<?xml version="1.0" encoding="utf-8"?>
<!-- Generator: Adobe Illustrator 23.0.6, SVG Export Plug-In . SVG Version: 6.00 Build 0)  -->
<svg version="1.1" id="Layer_1" xmlns="http://www.w3.org/2000/svg" xmlns:xlink="http://www.w3.org/1999/xlink" x="0px" y="0px"
	 viewBox="0 0 1391 237" style="enable-background:new 0 0 1391 237;" xml:space="preserve">
<style type="text/css">
	.st0{fill:#CCA048;}
	.st1{fill:#DDC399;}
	.st2{fill:#C17D49;}
	.st3{fill:#DDC02F;}
	.st4{fill:#BCA782;}
</style>
<path class="st0" d="M576.25,85.24c-2.17-1.12-6.34-2.9-11.87-2.99c-6.61-0.11-11.34,2.26-12.29,2.75
	c-2.78,1.44-4.72,3.11-6.24,4.43c-2.44,2.13-4.23,4.2-5.45,5.8c1.05,1.02,2.63,2.47,4.67,4.05c1.53,1.19,5.72,4.32,9.12,5.77
	c8.11,3.45,21.2-0.66,25.14-9.36c1.19-2.62,1.33-5.19,1.21-7.13C579.12,87.45,577.69,86.35,576.25,85.24z"/>
<path class="st1" d="M643.32,132.06c-2.17-1.12-6.34-2.9-11.87-2.99c-6.61-0.11-11.34,2.26-12.29,2.75
	c-2.78,1.44-4.72,3.11-6.24,4.43c-2.44,2.13-4.23,4.2-5.45,5.8c1.05,1.02,2.63,2.47,4.67,4.05c1.53,1.19,5.72,4.32,9.12,5.77
	c8.11,3.45,21.2-0.66,25.14-9.36c1.19-2.62,1.33-5.19,1.21-7.13C646.19,134.27,644.76,133.17,643.32,132.06z"/>
<path class="st2" d="M578.35,166.66c-2.17-1.12-6.34-2.9-11.87-2.99c-6.61-0.11-11.34,2.26-12.29,2.75
	c-2.78,1.44-4.72,3.11-6.24,4.43c-2.44,2.13-4.23,4.2-5.45,5.8c1.05,1.02,2.63,2.47,4.67,4.05c1.53,1.19,5.72,4.32,9.12,5.77
	c8.11,3.45,21.2-0.66,25.14-9.36c1.19-2.62,1.33-5.19,1.21-7.13C581.22,168.87,579.79,167.77,578.35,166.66z"/>
<path class="st3" d="M704.6,89.45c-2.17-1.12-6.34-2.9-11.87-2.99c-6.61-0.11-11.34,2.26-12.29,2.75c-2.78,1.44-4.72,3.11-6.24,4.43
	c-2.44,2.13-4.23,4.2-5.45,5.8c1.05,1.02,2.63,2.47,4.67,4.05c1.53,1.19,5.72,4.32,9.12,5.77c8.11,3.45,21.2-0.66,25.14-9.36
	c1.19-2.62,1.33-5.19,1.21-7.13C707.47,91.66,706.03,90.56,704.6,89.45z"/>
<path class="st4" d="M708.3,162.02c-2.17-1.12-6.34-2.9-11.87-2.99c-6.61-0.11-11.34,2.26-12.29,2.75
	c-2.78,1.44-4.72,3.11-6.24,4.43c-2.44,2.13-4.23,4.2-5.45,5.8c1.05,1.02,2.63,2.47,4.67,4.05c1.53,1.19,5.72,4.32,9.12,5.77
	c8.11,3.45,21.2-0.66,25.14-9.36c1.19-2.62,1.33-5.19,1.21-7.13C711.17,164.23,709.74,163.13,708.3,162.02z"/>
<path class="st1" d="M770.73,118.14c-2.17-1.12-6.34-2.9-11.87-2.99c-6.61-0.11-11.34,2.26-12.29,2.75
	c-2.78,1.44-4.72,3.11-6.24,4.43c-2.44,2.13-4.23,4.2-5.45,5.8c1.05,1.02,2.63,2.47,4.67,4.05c1.53,1.19,5.72,4.32,9.12,5.77
	c8.11,3.45,21.2-0.66,25.14-9.36c1.19-2.62,1.33-5.19,1.21-7.13C773.6,120.35,772.17,119.25,770.73,118.14z"/>
<path class="st0" d="M823.97,77.22c-2.17-1.12-6.34-2.9-11.87-2.99c-6.61-0.11-11.34,2.26-12.29,2.75
	c-2.78,1.44-4.72,3.11-6.24,4.43c-2.44,2.13-4.23,4.2-5.45,5.8c1.05,1.02,2.63,2.47,4.67,4.05c1.53,1.19,5.72,4.32,9.12,5.77
	c8.11,3.45,21.2-0.66,25.14-9.36c1.19-2.62,1.33-5.19,1.21-7.13C826.83,79.43,825.4,78.33,823.97,77.22z"/>
<path class="st2" d="M823.97,166.66c-2.17-1.12-6.34-2.9-11.87-2.99c-6.61-0.11-11.34,2.26-12.29,2.75
	c-2.78,1.44-4.72,3.11-6.24,4.43c-2.44,2.13-4.23,4.2-5.45,5.8c1.05,1.02,2.63,2.47,4.67,4.05c1.53,1.19,5.72,4.32,9.12,5.77
	c8.11,3.45,21.2-0.66,25.14-9.36c1.19-2.62,1.33-5.19,1.21-7.13C826.83,168.87,825.4,167.77,823.97,166.66z"/>
<path class="st0" d="M206.32,89.27c-2.17-1.12-6.34-2.9-11.87-2.99c-6.61-0.11-11.34,2.26-12.29,2.75
	c-2.78,1.44-4.72,3.11-6.24,4.43c-2.44,2.13-4.23,4.2-5.45,5.8c1.05,1.02,2.63,2.47,4.67,4.05c1.53,1.19,5.72,4.32,9.12,5.77
	c8.11,3.45,21.2-0.66,25.14-9.36c1.19-2.62,1.33-5.19,1.21-7.13C209.18,91.48,207.75,90.37,206.32,89.27z"/>
<path class="st1" d="M273.39,136.09c-2.17-1.12-6.34-2.9-11.87-2.99c-6.61-0.11-11.34,2.26-12.29,2.75
	c-2.78,1.44-4.72,3.11-6.24,4.43c-2.44,2.13-4.23,4.2-5.45,5.8c1.05,1.02,2.63,2.47,4.67,4.05c1.53,1.19,5.72,4.32,9.12,5.77
	c8.11,3.45,21.2-0.66,25.14-9.36c1.19-2.62,1.33-5.19,1.21-7.13C276.25,138.3,274.82,137.19,273.39,136.09z"/>
<path class="st2" d="M208.42,170.69c-2.17-1.12-6.34-2.9-11.87-2.99c-6.61-0.11-11.34,2.26-12.29,2.75
	c-2.78,1.44-4.72,3.11-6.24,4.43c-2.44,2.13-4.23,4.2-5.45,5.8c1.05,1.02,2.63,2.47,4.67,4.05c1.53,1.19,5.72,4.32,9.12,5.77
	c8.11,3.45,21.2-0.66,25.14-9.36c1.19-2.62,1.33-5.19,1.21-7.13C211.28,172.9,209.85,171.79,208.42,170.69z"/>
<path class="st3" d="M334.67,93.48c-2.17-1.12-6.34-2.9-11.87-2.99c-6.61-0.11-11.34,2.26-12.29,2.75
	c-2.78,1.44-4.72,3.11-6.24,4.43c-2.44,2.13-4.23,4.2-5.45,5.8c1.05,1.02,2.63,2.47,4.67,4.05c1.53,1.19,5.72,4.32,9.12,5.77
	c8.11,3.45,21.2-0.66,25.14-9.36c1.19-2.62,1.33-5.19,1.21-7.13C337.53,95.69,336.1,94.58,334.67,93.48z"/>
<path class="st4" d="M338.37,166.05c-2.17-1.12-6.34-2.9-11.87-2.99c-6.61-0.11-11.34,2.26-12.29,2.75
	c-2.78,1.44-4.72,3.11-6.24,4.43c-2.44,2.13-4.23,4.2-5.45,5.8c1.05,1.02,2.63,2.47,4.67,4.05c1.53,1.19,5.72,4.32,9.12,5.77
	c8.11,3.45,21.2-0.66,25.14-9.36c1.19-2.62,1.33-5.19,1.21-7.13C341.23,168.26,339.8,167.15,338.37,166.05z"/>
<path class="st1" d="M400.8,122.17c-2.17-1.12-6.34-2.9-11.87-2.99c-6.61-0.11-11.34,2.26-12.29,2.75
	c-2.78,1.44-4.72,3.11-6.24,4.43c-2.44,2.13-4.23,4.2-5.45,5.8c1.05,1.02,2.63,2.47,4.67,4.05c1.53,1.19,5.72,4.32,9.12,5.77
	c8.11,3.45,21.2-0.66,25.14-9.36c1.19-2.62,1.33-5.19,1.21-7.13C403.66,124.38,402.23,123.27,400.8,122.17z"/>
<path class="st0" d="M454.03,81.25c-2.17-1.12-6.34-2.9-11.87-2.99c-6.61-0.11-11.34,2.26-12.29,2.75
	c-2.78,1.44-4.72,3.11-6.24,4.43c-2.44,2.13-4.23,4.2-5.45,5.8c1.05,1.02,2.63,2.47,4.67,4.05c1.53,1.19,5.72,4.32,9.12,5.77
	c8.11,3.45,21.2-0.66,25.14-9.36c1.19-2.62,1.33-5.19,1.21-7.13C456.9,83.46,455.46,82.35,454.03,81.25z"/>
<path class="st2" d="M454.03,170.69c-2.17-1.12-6.34-2.9-11.87-2.99c-6.61-0.11-11.34,2.26-12.29,2.75
	c-2.78,1.44-4.72,3.11-6.24,4.43c-2.44,2.13-4.23,4.2-5.45,5.8c1.05,1.02,2.63,2.47,4.67,4.05c1.53,1.19,5.72,4.32,9.12,5.77
	c8.11,3.45,21.2-0.66,25.14-9.36c1.19-2.62,1.33-5.19,1.21-7.13C456.9,172.9,455.46,171.79,454.03,170.69z"/>
<path class="st0" d="M946.19,76.42c-2.17-1.12-6.34-2.9-11.87-2.99c-6.61-0.11-11.34,2.26-12.29,2.75
	c-2.78,1.44-4.72,3.11-6.24,4.43c-2.44,2.13-4.23,4.2-5.45,5.8c1.05,1.02,2.63,2.47,4.67,4.05c1.53,1.19,5.72,4.32,9.12,5.77
	c8.11,3.45,21.2-0.66,25.14-9.36c1.19-2.62,1.33-5.19,1.21-7.13C949.06,78.62,947.62,77.52,946.19,76.42z"/>
<path class="st1" d="M1013.26,123.24c-2.17-1.12-6.34-2.9-11.87-2.99c-6.61-0.11-11.34,2.26-12.29,2.75
	c-2.78,1.44-4.72,3.11-6.24,4.43c-2.44,2.13-4.23,4.2-5.45,5.8c1.05,1.02,2.63,2.47,4.67,4.05c1.53,1.19,5.72,4.32,9.12,5.77
	c8.11,3.45,21.2-0.66,25.14-9.36c1.19-2.62,1.33-5.19,1.21-7.13C1016.13,125.44,1014.69,124.34,1013.26,123.24z"/>
<path class="st2" d="M948.29,157.84c-2.17-1.12-6.34-2.9-11.87-2.99c-6.61-0.11-11.34,2.26-12.29,2.75
	c-2.78,1.44-4.72,3.11-6.24,4.43c-2.44,2.13-4.23,4.2-5.45,5.8c1.05,1.02,2.63,2.47,4.67,4.05c1.53,1.19,5.72,4.32,9.12,5.77
	c8.11,3.45,21.2-0.66,25.14-9.36c1.19-2.62,1.33-5.19,1.21-7.13C951.15,160.04,949.72,158.94,948.29,157.84z"/>
<path class="st3" d="M1074.54,80.63c-2.17-1.12-6.34-2.9-11.87-2.99c-6.61-0.11-11.34,2.26-12.29,2.75
	c-2.78,1.44-4.72,3.11-6.24,4.43c-2.44,2.13-4.23,4.2-5.45,5.8c1.05,1.02,2.63,2.47,4.67,4.05c1.53,1.19,5.72,4.32,9.12,5.77
	c8.11,3.45,21.2-0.66,25.14-9.36c1.19-2.62,1.33-5.19,1.21-7.13C1077.4,82.83,1075.97,81.73,1074.54,80.63z"/>
<path class="st4" d="M1078.24,153.2c-2.17-1.12-6.34-2.9-11.87-2.99c-6.61-0.11-11.34,2.26-12.29,2.75
	c-2.78,1.44-4.72,3.11-6.24,4.43c-2.44,2.13-4.23,4.2-5.45,5.8c1.05,1.02,2.63,2.47,4.67,4.05c1.53,1.19,5.72,4.32,9.12,5.77
	c8.11,3.45,21.2-0.66,25.14-9.36c1.19-2.62,1.33-5.19,1.21-7.13C1081.11,155.4,1079.67,154.3,1078.24,153.2z"/>
<path class="st1" d="M1140.67,109.32c-2.17-1.12-6.34-2.9-11.87-2.99c-6.61-0.11-11.34,2.26-12.29,2.75
	c-2.78,1.44-4.72,3.11-6.24,4.43c-2.44,2.13-4.23,4.2-5.45,5.8c1.05,1.02,2.63,2.47,4.67,4.05c1.53,1.19,5.72,4.32,9.12,5.77
	c8.11,3.45,21.2-0.66,25.14-9.36c1.19-2.62,1.33-5.19,1.21-7.13C1143.54,111.52,1142.1,110.42,1140.67,109.32z"/>
<path class="st0" d="M1193.9,68.4c-2.17-1.12-6.34-2.9-11.87-2.99c-6.61-0.11-11.34,2.26-12.29,2.75c-2.78,1.44-4.72,3.11-6.24,4.43
	c-2.44,2.13-4.23,4.2-5.45,5.8c1.05,1.02,2.63,2.47,4.67,4.05c1.53,1.19,5.72,4.32,9.12,5.77c8.11,3.45,21.2-0.66,25.14-9.36
	c1.19-2.62,1.33-5.19,1.21-7.13C1196.77,70.6,1195.34,69.5,1193.9,68.4z"/>
<path class="st2" d="M1193.9,157.84c-2.17-1.12-6.34-2.9-11.87-2.99c-6.61-0.11-11.34,2.26-12.29,2.75
	c-2.78,1.44-4.72,3.11-6.24,4.43c-2.44,2.13-4.23,4.2-5.45,5.8c1.05,1.02,2.63,2.47,4.67,4.05c1.53,1.19,5.72,4.32,9.12,5.77
	c8.11,3.45,21.2-0.66,25.14-9.36c1.19-2.62,1.33-5.19,1.21-7.13C1196.77,160.04,1195.34,158.94,1193.9,157.84z"/>
</svg>
