<?xml version="1.0" encoding="utf-8"?>
<!-- Generator: Adobe Illustrator 23.0.6, SVG Export Plug-In . SVG Version: 6.00 Build 0)  -->
<svg version="1.1" id="Layer_1" xmlns="http://www.w3.org/2000/svg" xmlns:xlink="http://www.w3.org/1999/xlink" x="0px" y="0px"
	 viewBox="0 0 1391 237" style="enable-background:new 0 0 1391 237;" xml:space="preserve">
<style type="text/css">
	.st0{fill:#EAADAD;}
	.st1{fill:#FCFCFC;}
</style>
<g>
	<g>
		<path class="st0" d="M765.45,121.43c-2.18-0.11-2.16,12.6-7.59,14.34c-4.5,1.44-12.03-4.85-11.39-9.28
			c0.77-5.27,13.03-7.34,12.66-8.86c-0.38-1.53-12.39,2.38-15.61-2.11c-2.17-3.03-0.15-9.62,3.38-10.97
			c4.93-1.88,11.67,6.95,13.5,5.48c1.92-1.53-5.82-10.92-2.95-14.77c2.34-3.14,11.47-2.19,13.92,2.11
			c2.58,4.52-2.91,11.48-1.27,12.66c1.82,1.3,7.73-7.77,13.08-6.33c4.22,1.14,7.56,8.7,5.48,11.81c-0.27,0.41-0.58,0.66-0.84,0.84
			c-4.75,3.37-13.28-0.4-13.92,0.84c-0.79,1.55,12.44,7.14,11.81,12.23c-0.5,4-9.55,7.86-14.34,5.06
			C766.19,131.49,767.38,121.53,765.45,121.43z"/>
		<circle class="st1" cx="765.45" cy="114.68" r="4.43"/>
	</g>
	<g>
		<path class="st0" d="M699.22,92.74c-2.18-0.11-2.16,12.6-7.59,14.34c-4.5,1.44-12.03-4.85-11.39-9.28
			c0.77-5.27,13.03-7.34,12.66-8.86c-0.38-1.53-12.39,2.38-15.61-2.11c-2.17-3.03-0.15-9.62,3.38-10.97
			c4.93-1.88,11.67,6.95,13.5,5.48c1.92-1.53-5.82-10.92-2.95-14.77c2.34-3.14,11.47-2.19,13.92,2.11
			c2.58,4.52-2.91,11.48-1.27,12.66c1.82,1.3,7.73-7.77,13.08-6.33c4.22,1.14,7.56,8.7,5.48,11.81c-0.27,0.41-0.58,0.66-0.84,0.84
			c-4.75,3.37-13.28-0.4-13.92,0.84c-0.79,1.55,12.44,7.14,11.81,12.23c-0.5,4-9.55,7.86-14.34,5.06
			C699.96,102.8,701.15,92.84,699.22,92.74z"/>
		<circle class="st1" cx="699.22" cy="85.99" r="4.43"/>
	</g>
	<g>
		<path class="st0" d="M638.05,135.35c-2.18-0.11-2.16,12.6-7.59,14.34c-4.5,1.44-12.03-4.85-11.39-9.28
			c0.77-5.27,13.03-7.34,12.66-8.86c-0.38-1.53-12.39,2.38-15.61-2.11c-2.17-3.03-0.15-9.62,3.38-10.97
			c4.93-1.88,11.67,6.95,13.5,5.48c1.92-1.53-5.82-10.92-2.95-14.77c2.34-3.14,11.47-2.19,13.92,2.11
			c2.58,4.52-2.91,11.48-1.27,12.66c1.82,1.3,7.73-7.77,13.08-6.33c4.22,1.14,7.56,8.7,5.48,11.81c-0.27,0.41-0.58,0.66-0.84,0.84
			c-4.75,3.37-13.28-0.4-13.92,0.84c-0.79,1.55,12.44,7.14,11.81,12.23c-0.5,4-9.55,7.86-14.34,5.06
			C638.79,145.41,639.98,135.45,638.05,135.35z"/>
		<circle class="st1" cx="638.05" cy="128.6" r="4.43"/>
	</g>
	<g>
		<path class="st0" d="M703.01,165.31c-2.17-0.11-2.16,12.6-7.59,14.34c-4.5,1.44-12.03-4.85-11.39-9.28
			c0.77-5.27,13.03-7.34,12.66-8.86c-0.38-1.53-12.39,2.38-15.61-2.11c-2.17-3.03-0.15-9.62,3.38-10.97
			c4.93-1.88,11.67,6.95,13.5,5.48c1.92-1.53-5.82-10.92-2.95-14.77c2.34-3.14,11.47-2.19,13.92,2.11
			c2.58,4.52-2.91,11.48-1.27,12.66c1.82,1.3,7.73-7.77,13.08-6.33c4.22,1.14,7.56,8.7,5.48,11.81c-0.27,0.41-0.58,0.66-0.84,0.84
			c-4.75,3.37-13.28-0.4-13.92,0.84c-0.79,1.55,12.44,7.14,11.81,12.23c-0.5,4-9.55,7.86-14.34,5.06
			C703.75,175.36,704.95,165.4,703.01,165.31z"/>
		<circle class="st1" cx="703.01" cy="158.56" r="4.43"/>
	</g>
	<g>
		<path class="st0" d="M819.03,169.95c-2.18-0.11-2.16,12.6-7.59,14.34c-4.5,1.44-12.03-4.85-11.39-9.28
			c0.77-5.27,13.03-7.34,12.66-8.86c-0.38-1.53-12.39,2.38-15.61-2.11c-2.17-3.03-0.15-9.62,3.38-10.97
			c4.93-1.88,11.67,6.95,13.5,5.48c1.92-1.53-5.82-10.92-2.95-14.77c2.34-3.14,11.47-2.19,13.92,2.11
			c2.58,4.52-2.91,11.48-1.27,12.66c1.82,1.3,7.73-7.77,13.08-6.33c4.22,1.14,7.56,8.7,5.48,11.81c-0.27,0.41-0.58,0.66-0.84,0.84
			c-4.75,3.37-13.28-0.4-13.92,0.84c-0.79,1.55,12.44,7.14,11.81,12.23c-0.5,4-9.55,7.86-14.34,5.06
			C819.77,180,820.96,170.04,819.03,169.95z"/>
		<circle class="st1" cx="819.03" cy="163.2" r="4.43"/>
	</g>
	<g>
		<path class="st0" d="M818.61,80.51c-2.18-0.11-2.16,12.6-7.59,14.34c-4.5,1.44-12.03-4.85-11.39-9.28
			c0.77-5.27,13.03-7.34,12.66-8.86c-0.38-1.53-12.39,2.38-15.61-2.11c-2.17-3.03-0.15-9.62,3.38-10.97
			c4.93-1.88,11.67,6.95,13.5,5.48c1.92-1.53-5.82-10.92-2.95-14.77c2.34-3.14,11.47-2.19,13.92,2.11
			c2.58,4.52-2.91,11.48-1.27,12.66c1.82,1.3,7.73-7.77,13.08-6.33c4.22,1.14,7.56,8.7,5.48,11.81c-0.27,0.41-0.58,0.66-0.84,0.84
			c-4.75,3.37-13.28-0.4-13.92,0.84c-0.79,1.55,12.44,7.14,11.81,12.23c-0.5,4-9.55,7.86-14.34,5.06
			C819.35,90.57,820.54,80.6,818.61,80.51z"/>
		<circle class="st1" cx="818.61" cy="73.76" r="4.43"/>
	</g>
	<g>
		<path class="st0" d="M573.08,169.95c-2.18-0.11-2.16,12.6-7.59,14.34c-4.5,1.44-12.03-4.85-11.39-9.28
			c0.77-5.27,13.03-7.34,12.66-8.86c-0.38-1.53-12.39,2.38-15.61-2.11c-2.17-3.03-0.15-9.62,3.37-10.97
			c4.93-1.88,11.67,6.95,13.5,5.48c1.92-1.53-5.82-10.92-2.95-14.77c2.34-3.14,11.47-2.19,13.92,2.11
			c2.58,4.52-2.91,11.48-1.27,12.66c1.82,1.3,7.73-7.77,13.08-6.33c4.22,1.14,7.56,8.7,5.48,11.81c-0.27,0.41-0.58,0.66-0.84,0.84
			c-4.75,3.37-13.28-0.4-13.92,0.84c-0.79,1.55,12.44,7.14,11.81,12.23c-0.5,4-9.55,7.86-14.34,5.06
			C573.82,180,575.01,170.04,573.08,169.95z"/>
		<circle class="st1" cx="573.08" cy="163.2" r="4.43"/>
	</g>
	<g>
		<path class="st0" d="M570.97,88.52c-2.18-0.11-2.16,12.6-7.59,14.34c-4.5,1.44-12.03-4.85-11.39-9.28
			c0.77-5.27,13.03-7.34,12.66-8.86c-0.38-1.53-12.39,2.38-15.61-2.11c-2.17-3.03-0.15-9.62,3.37-10.97
			c4.93-1.88,11.67,6.95,13.5,5.48c1.92-1.53-5.82-10.92-2.95-14.77c2.34-3.14,11.47-2.19,13.92,2.11
			c2.58,4.52-2.91,11.48-1.27,12.66c1.82,1.3,7.73-7.77,13.08-6.33c4.22,1.14,7.56,8.7,5.48,11.81c-0.27,0.41-0.58,0.66-0.84,0.84
			c-4.75,3.37-13.28-0.4-13.92,0.84c-0.79,1.55,12.44,7.14,11.81,12.23c-0.5,4-9.55,7.86-14.34,5.06
			C571.71,98.58,572.9,88.62,570.97,88.52z"/>
		<circle class="st1" cx="570.97" cy="81.77" r="4.43"/>
	</g>
</g>
<g>
	<g>
		<path class="st0" d="M765.45,121.43c-2.18-0.11-2.16,12.6-7.59,14.34c-4.5,1.44-12.03-4.85-11.39-9.28
			c0.77-5.27,13.03-7.34,12.66-8.86c-0.38-1.53-12.39,2.38-15.61-2.11c-2.17-3.03-0.15-9.62,3.38-10.97
			c4.93-1.88,11.67,6.95,13.5,5.48c1.92-1.53-5.82-10.92-2.95-14.77c2.34-3.14,11.47-2.19,13.92,2.11
			c2.58,4.52-2.91,11.48-1.27,12.66c1.82,1.3,7.73-7.77,13.08-6.33c4.22,1.14,7.56,8.7,5.48,11.81c-0.27,0.41-0.58,0.66-0.84,0.84
			c-4.75,3.37-13.28-0.4-13.92,0.84c-0.79,1.55,12.44,7.14,11.81,12.23c-0.5,4-9.55,7.86-14.34,5.06
			C766.19,131.49,767.38,121.53,765.45,121.43z"/>
		<circle class="st1" cx="765.45" cy="114.68" r="4.43"/>
	</g>
	<g>
		<path class="st0" d="M699.22,92.74c-2.18-0.11-2.16,12.6-7.59,14.34c-4.5,1.44-12.03-4.85-11.39-9.28
			c0.77-5.27,13.03-7.34,12.66-8.86c-0.38-1.53-12.39,2.38-15.61-2.11c-2.17-3.03-0.15-9.62,3.38-10.97
			c4.93-1.88,11.67,6.95,13.5,5.48c1.92-1.53-5.82-10.92-2.95-14.77c2.34-3.14,11.47-2.19,13.92,2.11
			c2.58,4.52-2.91,11.48-1.27,12.66c1.82,1.3,7.73-7.77,13.08-6.33c4.22,1.14,7.56,8.7,5.48,11.81c-0.27,0.41-0.58,0.66-0.84,0.84
			c-4.75,3.37-13.28-0.4-13.92,0.84c-0.79,1.55,12.44,7.14,11.81,12.23c-0.5,4-9.55,7.86-14.34,5.06
			C699.96,102.8,701.15,92.84,699.22,92.74z"/>
		<circle class="st1" cx="699.22" cy="85.99" r="4.43"/>
	</g>
	<g>
		<path class="st0" d="M638.05,135.35c-2.18-0.11-2.16,12.6-7.59,14.34c-4.5,1.44-12.03-4.85-11.39-9.28
			c0.77-5.27,13.03-7.34,12.66-8.86c-0.38-1.53-12.39,2.38-15.61-2.11c-2.17-3.03-0.15-9.62,3.38-10.97
			c4.93-1.88,11.67,6.95,13.5,5.48c1.92-1.53-5.82-10.92-2.95-14.77c2.34-3.14,11.47-2.19,13.92,2.11
			c2.58,4.52-2.91,11.48-1.27,12.66c1.82,1.3,7.73-7.77,13.08-6.33c4.22,1.14,7.56,8.7,5.48,11.81c-0.27,0.41-0.58,0.66-0.84,0.84
			c-4.75,3.37-13.28-0.4-13.92,0.84c-0.79,1.55,12.44,7.14,11.81,12.23c-0.5,4-9.55,7.86-14.34,5.06
			C638.79,145.41,639.98,135.45,638.05,135.35z"/>
		<circle class="st1" cx="638.05" cy="128.6" r="4.43"/>
	</g>
	<g>
		<path class="st0" d="M703.01,165.31c-2.17-0.11-2.16,12.6-7.59,14.34c-4.5,1.44-12.03-4.85-11.39-9.28
			c0.77-5.27,13.03-7.34,12.66-8.86c-0.38-1.53-12.39,2.38-15.61-2.11c-2.17-3.03-0.15-9.62,3.38-10.97
			c4.93-1.88,11.67,6.95,13.5,5.48c1.92-1.53-5.82-10.92-2.95-14.77c2.34-3.14,11.47-2.19,13.92,2.11
			c2.58,4.52-2.91,11.48-1.27,12.66c1.82,1.3,7.73-7.77,13.08-6.33c4.22,1.14,7.56,8.7,5.48,11.81c-0.27,0.41-0.58,0.66-0.84,0.84
			c-4.75,3.37-13.28-0.4-13.92,0.84c-0.79,1.55,12.44,7.14,11.81,12.23c-0.5,4-9.55,7.86-14.34,5.06
			C703.75,175.36,704.95,165.4,703.01,165.31z"/>
		<circle class="st1" cx="703.01" cy="158.56" r="4.43"/>
	</g>
	<g>
		<path class="st0" d="M819.03,169.95c-2.18-0.11-2.16,12.6-7.59,14.34c-4.5,1.44-12.03-4.85-11.39-9.28
			c0.77-5.27,13.03-7.34,12.66-8.86c-0.38-1.53-12.39,2.38-15.61-2.11c-2.17-3.03-0.15-9.62,3.38-10.97
			c4.93-1.88,11.67,6.95,13.5,5.48c1.92-1.53-5.82-10.92-2.95-14.77c2.34-3.14,11.47-2.19,13.92,2.11
			c2.58,4.52-2.91,11.48-1.27,12.66c1.82,1.3,7.73-7.77,13.08-6.33c4.22,1.14,7.56,8.7,5.48,11.81c-0.27,0.41-0.58,0.66-0.84,0.84
			c-4.75,3.37-13.28-0.4-13.92,0.84c-0.79,1.55,12.44,7.14,11.81,12.23c-0.5,4-9.55,7.86-14.34,5.06
			C819.77,180,820.96,170.04,819.03,169.95z"/>
		<circle class="st1" cx="819.03" cy="163.2" r="4.43"/>
	</g>
	<g>
		<path class="st0" d="M818.61,80.51c-2.18-0.11-2.16,12.6-7.59,14.34c-4.5,1.44-12.03-4.85-11.39-9.28
			c0.77-5.27,13.03-7.34,12.66-8.86c-0.38-1.53-12.39,2.38-15.61-2.11c-2.17-3.03-0.15-9.62,3.38-10.97
			c4.93-1.88,11.67,6.95,13.5,5.48c1.92-1.53-5.82-10.92-2.95-14.77c2.34-3.14,11.47-2.19,13.92,2.11
			c2.58,4.52-2.91,11.48-1.27,12.66c1.82,1.3,7.73-7.77,13.08-6.33c4.22,1.14,7.56,8.7,5.48,11.81c-0.27,0.41-0.58,0.66-0.84,0.84
			c-4.75,3.37-13.28-0.4-13.92,0.84c-0.79,1.55,12.44,7.14,11.81,12.23c-0.5,4-9.55,7.86-14.34,5.06
			C819.35,90.57,820.54,80.6,818.61,80.51z"/>
		<circle class="st1" cx="818.61" cy="73.76" r="4.43"/>
	</g>
	<g>
		<path class="st0" d="M573.08,169.95c-2.18-0.11-2.16,12.6-7.59,14.34c-4.5,1.44-12.03-4.85-11.39-9.28
			c0.77-5.27,13.03-7.34,12.66-8.86c-0.38-1.53-12.39,2.38-15.61-2.11c-2.17-3.03-0.15-9.62,3.37-10.97
			c4.93-1.88,11.67,6.95,13.5,5.48c1.92-1.53-5.82-10.92-2.95-14.77c2.34-3.14,11.47-2.19,13.92,2.11
			c2.58,4.52-2.91,11.48-1.27,12.66c1.82,1.3,7.73-7.77,13.08-6.33c4.22,1.14,7.56,8.7,5.48,11.81c-0.27,0.41-0.58,0.66-0.84,0.84
			c-4.75,3.37-13.28-0.4-13.92,0.84c-0.79,1.55,12.44,7.14,11.81,12.23c-0.5,4-9.55,7.86-14.34,5.06
			C573.82,180,575.01,170.04,573.08,169.95z"/>
		<circle class="st1" cx="573.08" cy="163.2" r="4.43"/>
	</g>
	<g>
		<path class="st0" d="M570.97,88.52c-2.18-0.11-2.16,12.6-7.59,14.34c-4.5,1.44-12.03-4.85-11.39-9.28
			c0.77-5.27,13.03-7.34,12.66-8.86c-0.38-1.53-12.39,2.38-15.61-2.11c-2.17-3.03-0.15-9.62,3.37-10.97
			c4.93-1.88,11.67,6.95,13.5,5.48c1.92-1.53-5.82-10.92-2.95-14.77c2.34-3.14,11.47-2.19,13.92,2.11
			c2.58,4.52-2.91,11.48-1.27,12.66c1.82,1.3,7.73-7.77,13.08-6.33c4.22,1.14,7.56,8.7,5.48,11.81c-0.27,0.41-0.58,0.66-0.84,0.84
			c-4.75,3.37-13.28-0.4-13.92,0.84c-0.79,1.55,12.44,7.14,11.81,12.23c-0.5,4-9.55,7.86-14.34,5.06
			C571.71,98.58,572.9,88.62,570.97,88.52z"/>
		<circle class="st1" cx="570.97" cy="81.77" r="4.43"/>
	</g>
</g>
<g>
	<g>
		<path class="st0" d="M765.45,121.43c-2.18-0.11-2.16,12.6-7.59,14.34c-4.5,1.44-12.03-4.85-11.39-9.28
			c0.77-5.27,13.03-7.34,12.66-8.86c-0.38-1.53-12.39,2.38-15.61-2.11c-2.17-3.03-0.15-9.62,3.38-10.97
			c4.93-1.88,11.67,6.95,13.5,5.48c1.92-1.53-5.82-10.92-2.95-14.77c2.34-3.14,11.47-2.19,13.92,2.11
			c2.58,4.52-2.91,11.48-1.27,12.66c1.82,1.3,7.73-7.77,13.08-6.33c4.22,1.14,7.56,8.7,5.48,11.81c-0.27,0.41-0.58,0.66-0.84,0.84
			c-4.75,3.37-13.28-0.4-13.92,0.84c-0.79,1.55,12.44,7.14,11.81,12.23c-0.5,4-9.55,7.86-14.34,5.06
			C766.19,131.49,767.38,121.53,765.45,121.43z"/>
		<circle class="st1" cx="765.45" cy="114.68" r="4.43"/>
	</g>
	<g>
		<path class="st0" d="M699.22,92.74c-2.18-0.11-2.16,12.6-7.59,14.34c-4.5,1.44-12.03-4.85-11.39-9.28
			c0.77-5.27,13.03-7.34,12.66-8.86c-0.38-1.53-12.39,2.38-15.61-2.11c-2.17-3.03-0.15-9.62,3.38-10.97
			c4.93-1.88,11.67,6.95,13.5,5.48c1.92-1.53-5.82-10.92-2.95-14.77c2.34-3.14,11.47-2.19,13.92,2.11
			c2.58,4.52-2.91,11.48-1.27,12.66c1.82,1.3,7.73-7.77,13.08-6.33c4.22,1.14,7.56,8.7,5.48,11.81c-0.27,0.41-0.58,0.66-0.84,0.84
			c-4.75,3.37-13.28-0.4-13.92,0.84c-0.79,1.55,12.44,7.14,11.81,12.23c-0.5,4-9.55,7.86-14.34,5.06
			C699.96,102.8,701.15,92.84,699.22,92.74z"/>
		<circle class="st1" cx="699.22" cy="85.99" r="4.43"/>
	</g>
	<g>
		<path class="st0" d="M638.05,135.35c-2.18-0.11-2.16,12.6-7.59,14.34c-4.5,1.44-12.03-4.85-11.39-9.28
			c0.77-5.27,13.03-7.34,12.66-8.86c-0.38-1.53-12.39,2.38-15.61-2.11c-2.17-3.03-0.15-9.62,3.38-10.97
			c4.93-1.88,11.67,6.95,13.5,5.48c1.92-1.53-5.82-10.92-2.95-14.77c2.34-3.14,11.47-2.19,13.92,2.11
			c2.58,4.52-2.91,11.48-1.27,12.66c1.82,1.3,7.73-7.77,13.08-6.33c4.22,1.14,7.56,8.7,5.48,11.81c-0.27,0.41-0.58,0.66-0.84,0.84
			c-4.75,3.37-13.28-0.4-13.92,0.84c-0.79,1.55,12.44,7.14,11.81,12.23c-0.5,4-9.55,7.86-14.34,5.06
			C638.79,145.41,639.98,135.45,638.05,135.35z"/>
		<circle class="st1" cx="638.05" cy="128.6" r="4.43"/>
	</g>
	<g>
		<path class="st0" d="M703.01,165.31c-2.17-0.11-2.16,12.6-7.59,14.34c-4.5,1.44-12.03-4.85-11.39-9.28
			c0.77-5.27,13.03-7.34,12.66-8.86c-0.38-1.53-12.39,2.38-15.61-2.11c-2.17-3.03-0.15-9.62,3.38-10.97
			c4.93-1.88,11.67,6.95,13.5,5.48c1.92-1.53-5.82-10.92-2.95-14.77c2.34-3.14,11.47-2.19,13.92,2.11
			c2.58,4.52-2.91,11.48-1.27,12.66c1.82,1.3,7.73-7.77,13.08-6.33c4.22,1.14,7.56,8.7,5.48,11.81c-0.27,0.41-0.58,0.66-0.84,0.84
			c-4.75,3.37-13.28-0.4-13.92,0.84c-0.79,1.55,12.44,7.14,11.81,12.23c-0.5,4-9.55,7.86-14.34,5.06
			C703.75,175.36,704.95,165.4,703.01,165.31z"/>
		<circle class="st1" cx="703.01" cy="158.56" r="4.43"/>
	</g>
	<g>
		<path class="st0" d="M819.03,169.95c-2.18-0.11-2.16,12.6-7.59,14.34c-4.5,1.44-12.03-4.85-11.39-9.28
			c0.77-5.27,13.03-7.34,12.66-8.86c-0.38-1.53-12.39,2.38-15.61-2.11c-2.17-3.03-0.15-9.62,3.38-10.97
			c4.93-1.88,11.67,6.95,13.5,5.48c1.92-1.53-5.82-10.92-2.95-14.77c2.34-3.14,11.47-2.19,13.92,2.11
			c2.58,4.52-2.91,11.48-1.27,12.66c1.82,1.3,7.73-7.77,13.08-6.33c4.22,1.14,7.56,8.7,5.48,11.81c-0.27,0.41-0.58,0.66-0.84,0.84
			c-4.75,3.37-13.28-0.4-13.92,0.84c-0.79,1.55,12.44,7.14,11.81,12.23c-0.5,4-9.55,7.86-14.34,5.06
			C819.77,180,820.96,170.04,819.03,169.95z"/>
		<circle class="st1" cx="819.03" cy="163.2" r="4.43"/>
	</g>
	<g>
		<path class="st0" d="M818.61,80.51c-2.18-0.11-2.16,12.6-7.59,14.34c-4.5,1.44-12.03-4.85-11.39-9.28
			c0.77-5.27,13.03-7.34,12.66-8.86c-0.38-1.53-12.39,2.38-15.61-2.11c-2.17-3.03-0.15-9.62,3.38-10.97
			c4.93-1.88,11.67,6.95,13.5,5.48c1.92-1.53-5.82-10.92-2.95-14.77c2.34-3.14,11.47-2.19,13.92,2.11
			c2.58,4.52-2.91,11.48-1.27,12.66c1.82,1.3,7.73-7.77,13.08-6.33c4.22,1.14,7.56,8.7,5.48,11.81c-0.27,0.41-0.58,0.66-0.84,0.84
			c-4.75,3.37-13.28-0.4-13.92,0.84c-0.79,1.55,12.44,7.14,11.81,12.23c-0.5,4-9.55,7.86-14.34,5.06
			C819.35,90.57,820.54,80.6,818.61,80.51z"/>
		<circle class="st1" cx="818.61" cy="73.76" r="4.43"/>
	</g>
	<g>
		<path class="st0" d="M573.08,169.95c-2.18-0.11-2.16,12.6-7.59,14.34c-4.5,1.44-12.03-4.85-11.39-9.28
			c0.77-5.27,13.03-7.34,12.66-8.86c-0.38-1.53-12.39,2.38-15.61-2.11c-2.17-3.03-0.15-9.62,3.37-10.97
			c4.93-1.88,11.67,6.95,13.5,5.48c1.92-1.53-5.82-10.92-2.95-14.77c2.34-3.14,11.47-2.19,13.92,2.11
			c2.58,4.52-2.91,11.48-1.27,12.66c1.82,1.3,7.73-7.77,13.08-6.33c4.22,1.14,7.56,8.7,5.48,11.81c-0.27,0.41-0.58,0.66-0.84,0.84
			c-4.75,3.37-13.28-0.4-13.92,0.84c-0.79,1.55,12.44,7.14,11.81,12.23c-0.5,4-9.55,7.86-14.34,5.06
			C573.82,180,575.01,170.04,573.08,169.95z"/>
		<circle class="st1" cx="573.08" cy="163.2" r="4.43"/>
	</g>
	<g>
		<path class="st0" d="M570.97,88.52c-2.18-0.11-2.16,12.6-7.59,14.34c-4.5,1.44-12.03-4.85-11.39-9.28
			c0.77-5.27,13.03-7.34,12.66-8.86c-0.38-1.53-12.39,2.38-15.61-2.11c-2.17-3.03-0.15-9.62,3.37-10.97
			c4.93-1.88,11.67,6.95,13.5,5.48c1.92-1.53-5.82-10.92-2.95-14.77c2.34-3.14,11.47-2.19,13.92,2.11
			c2.58,4.52-2.91,11.48-1.27,12.66c1.82,1.3,7.73-7.77,13.08-6.33c4.22,1.14,7.56,8.7,5.48,11.81c-0.27,0.41-0.58,0.66-0.84,0.84
			c-4.75,3.37-13.28-0.4-13.92,0.84c-0.79,1.55,12.44,7.14,11.81,12.23c-0.5,4-9.55,7.86-14.34,5.06
			C571.71,98.58,572.9,88.62,570.97,88.52z"/>
		<circle class="st1" cx="570.97" cy="81.77" r="4.43"/>
	</g>
</g>
<g>
	<g>
		<path class="st0" d="M391.45,122.43c-2.18-0.11-2.16,12.6-7.59,14.34c-4.5,1.44-12.03-4.85-11.39-9.28
			c0.77-5.27,13.03-7.34,12.66-8.86c-0.38-1.53-12.39,2.38-15.61-2.11c-2.17-3.03-0.15-9.62,3.37-10.97
			c4.93-1.88,11.67,6.95,13.5,5.48c1.92-1.53-5.82-10.92-2.95-14.77c2.34-3.14,11.47-2.19,13.92,2.11
			c2.58,4.52-2.91,11.48-1.27,12.66c1.82,1.3,7.73-7.77,13.08-6.33c4.22,1.14,7.56,8.7,5.48,11.81c-0.27,0.41-0.58,0.66-0.84,0.84
			c-4.75,3.37-13.28-0.4-13.92,0.84c-0.79,1.55,12.44,7.14,11.81,12.23c-0.5,4-9.55,7.86-14.34,5.06
			C392.19,132.49,393.38,122.53,391.45,122.43z"/>
		<circle class="st1" cx="391.45" cy="115.68" r="4.43"/>
	</g>
	<g>
		<path class="st0" d="M325.22,93.74c-2.18-0.11-2.16,12.6-7.59,14.34c-4.5,1.44-12.03-4.85-11.39-9.28
			c0.77-5.27,13.03-7.34,12.66-8.86c-0.38-1.53-12.39,2.38-15.61-2.11c-2.17-3.03-0.15-9.62,3.38-10.97
			c4.93-1.88,11.67,6.95,13.5,5.48c1.92-1.53-5.82-10.92-2.95-14.77c2.34-3.14,11.47-2.19,13.92,2.11
			c2.58,4.52-2.91,11.48-1.27,12.66c1.82,1.3,7.73-7.77,13.08-6.33c4.22,1.14,7.56,8.7,5.48,11.81c-0.27,0.41-0.58,0.66-0.84,0.84
			c-4.75,3.37-13.28-0.4-13.92,0.84c-0.79,1.55,12.44,7.14,11.81,12.23c-0.5,4-9.55,7.86-14.34,5.06
			C325.96,103.8,327.15,93.84,325.22,93.74z"/>
		<circle class="st1" cx="325.22" cy="86.99" r="4.43"/>
	</g>
	<g>
		<path class="st0" d="M264.05,136.35c-2.18-0.11-2.16,12.6-7.59,14.34c-4.5,1.44-12.03-4.85-11.39-9.28
			c0.77-5.27,13.03-7.34,12.66-8.86c-0.38-1.53-12.39,2.38-15.61-2.11c-2.17-3.03-0.15-9.62,3.37-10.97
			c4.93-1.88,11.67,6.95,13.5,5.48c1.92-1.53-5.82-10.92-2.95-14.77c2.34-3.14,11.47-2.19,13.92,2.11
			c2.58,4.52-2.91,11.48-1.27,12.66c1.82,1.3,7.73-7.77,13.08-6.33c4.22,1.14,7.56,8.7,5.48,11.81c-0.27,0.41-0.58,0.66-0.84,0.84
			c-4.75,3.37-13.28-0.4-13.92,0.84c-0.79,1.55,12.44,7.14,11.81,12.23c-0.5,4-9.55,7.86-14.34,5.06
			C264.79,146.41,265.98,136.45,264.05,136.35z"/>
		<circle class="st1" cx="264.05" cy="129.6" r="4.43"/>
	</g>
	<g>
		<path class="st0" d="M329.01,166.31c-2.18-0.11-2.16,12.6-7.59,14.34c-4.5,1.44-12.03-4.85-11.39-9.28
			c0.77-5.27,13.03-7.34,12.66-8.86c-0.38-1.53-12.39,2.38-15.61-2.11c-2.17-3.03-0.15-9.62,3.37-10.97
			c4.93-1.88,11.67,6.95,13.5,5.48c1.92-1.53-5.82-10.92-2.95-14.77c2.34-3.14,11.47-2.19,13.92,2.11
			c2.58,4.52-2.91,11.48-1.27,12.66c1.82,1.3,7.73-7.77,13.08-6.33c4.22,1.14,7.56,8.7,5.48,11.81c-0.27,0.41-0.58,0.66-0.84,0.84
			c-4.75,3.37-13.28-0.4-13.92,0.84c-0.79,1.55,12.44,7.14,11.81,12.23c-0.5,4-9.55,7.86-14.34,5.06
			C329.75,176.36,330.95,166.4,329.01,166.31z"/>
		<circle class="st1" cx="329.01" cy="159.56" r="4.43"/>
	</g>
	<g>
		<path class="st0" d="M445.03,170.95c-2.18-0.11-2.16,12.6-7.59,14.34c-4.5,1.44-12.03-4.85-11.39-9.28
			c0.77-5.27,13.03-7.34,12.66-8.86c-0.38-1.53-12.39,2.38-15.61-2.11c-2.17-3.03-0.15-9.62,3.38-10.97
			c4.93-1.88,11.67,6.95,13.5,5.48c1.92-1.53-5.82-10.92-2.95-14.77c2.34-3.14,11.47-2.19,13.92,2.11
			c2.58,4.52-2.91,11.48-1.27,12.66c1.82,1.3,7.73-7.77,13.08-6.33c4.22,1.14,7.56,8.7,5.48,11.81c-0.27,0.41-0.58,0.66-0.84,0.84
			c-4.75,3.37-13.28-0.4-13.92,0.84c-0.79,1.55,12.44,7.14,11.81,12.23c-0.5,4-9.55,7.86-14.34,5.06
			C445.77,181,446.96,171.04,445.03,170.95z"/>
		<circle class="st1" cx="445.03" cy="164.2" r="4.43"/>
	</g>
	<g>
		<path class="st0" d="M444.61,81.51c-2.18-0.11-2.16,12.6-7.59,14.34c-4.5,1.44-12.03-4.85-11.39-9.28
			c0.77-5.27,13.03-7.34,12.66-8.86c-0.38-1.53-12.39,2.38-15.61-2.11c-2.17-3.03-0.15-9.62,3.38-10.97
			c4.93-1.88,11.67,6.95,13.5,5.48c1.92-1.53-5.82-10.92-2.95-14.77c2.34-3.14,11.47-2.19,13.92,2.11
			c2.58,4.52-2.91,11.48-1.27,12.66c1.82,1.3,7.73-7.77,13.08-6.33c4.22,1.14,7.56,8.7,5.48,11.81c-0.27,0.41-0.58,0.66-0.84,0.84
			c-4.75,3.37-13.28-0.4-13.92,0.84c-0.79,1.55,12.44,7.14,11.81,12.23c-0.5,4-9.55,7.86-14.34,5.06
			C445.35,91.57,446.54,81.6,444.61,81.51z"/>
		<circle class="st1" cx="444.61" cy="74.76" r="4.43"/>
	</g>
	<g>
		<path class="st0" d="M199.08,170.95c-2.18-0.11-2.16,12.6-7.59,14.34c-4.5,1.44-12.03-4.85-11.39-9.28
			c0.77-5.27,13.03-7.34,12.66-8.86c-0.38-1.53-12.39,2.38-15.61-2.11c-2.17-3.03-0.15-9.62,3.38-10.97
			c4.93-1.88,11.67,6.95,13.5,5.48c1.92-1.53-5.82-10.92-2.95-14.77c2.34-3.14,11.47-2.19,13.92,2.11
			c2.58,4.52-2.91,11.48-1.27,12.66c1.82,1.3,7.73-7.77,13.08-6.33c4.22,1.14,7.56,8.7,5.48,11.81c-0.27,0.41-0.58,0.66-0.84,0.84
			c-4.75,3.37-13.28-0.4-13.92,0.84c-0.79,1.55,12.44,7.14,11.81,12.23c-0.5,4-9.55,7.86-14.34,5.06
			C199.82,181,201.01,171.04,199.08,170.95z"/>
		<circle class="st1" cx="199.08" cy="164.2" r="4.43"/>
	</g>
	<g>
		<path class="st0" d="M196.97,89.52c-2.18-0.11-2.16,12.6-7.59,14.34c-4.5,1.44-12.03-4.85-11.39-9.28
			c0.77-5.27,13.03-7.34,12.66-8.86c-0.38-1.53-12.39,2.38-15.61-2.11c-2.17-3.03-0.15-9.62,3.38-10.97
			c4.93-1.88,11.67,6.95,13.5,5.48c1.92-1.53-5.82-10.92-2.95-14.77c2.34-3.14,11.47-2.19,13.92,2.11
			c2.58,4.52-2.91,11.48-1.27,12.66c1.82,1.3,7.73-7.77,13.08-6.33c4.22,1.14,7.56,8.7,5.48,11.81c-0.27,0.41-0.58,0.66-0.84,0.84
			c-4.75,3.37-13.28-0.4-13.92,0.84c-0.79,1.55,12.44,7.14,11.81,12.23c-0.5,4-9.55,7.86-14.34,5.06
			C197.71,99.58,198.9,89.62,196.97,89.52z"/>
		<circle class="st1" cx="196.97" cy="82.77" r="4.43"/>
	</g>
</g>
<g>
	<g>
		<path class="st0" d="M1133.45,117.43c-2.17-0.11-2.16,12.6-7.59,14.34c-4.5,1.44-12.03-4.85-11.39-9.28
			c0.77-5.27,13.03-7.34,12.66-8.86c-0.38-1.53-12.39,2.38-15.61-2.11c-2.17-3.03-0.15-9.62,3.38-10.97
			c4.93-1.88,11.67,6.95,13.5,5.48c1.92-1.53-5.82-10.92-2.95-14.77c2.34-3.14,11.47-2.19,13.92,2.11
			c2.58,4.52-2.91,11.48-1.27,12.66c1.82,1.3,7.73-7.77,13.08-6.33c4.22,1.14,7.56,8.7,5.48,11.81c-0.27,0.41-0.58,0.66-0.84,0.84
			c-4.75,3.37-13.28-0.4-13.92,0.84c-0.79,1.55,12.44,7.14,11.81,12.23c-0.5,4-9.55,7.86-14.34,5.06
			C1134.19,127.49,1135.38,117.53,1133.45,117.43z"/>
		<circle class="st1" cx="1133.45" cy="110.68" r="4.43"/>
	</g>
	<g>
		<path class="st0" d="M1067.22,88.74c-2.18-0.11-2.16,12.6-7.59,14.34c-4.5,1.44-12.03-4.85-11.39-9.28
			c0.77-5.27,13.03-7.34,12.66-8.86c-0.38-1.53-12.39,2.38-15.61-2.11c-2.17-3.03-0.15-9.62,3.38-10.97
			c4.93-1.88,11.67,6.95,13.5,5.48c1.92-1.53-5.82-10.92-2.95-14.77c2.34-3.14,11.47-2.19,13.92,2.11
			c2.58,4.52-2.91,11.48-1.27,12.66c1.82,1.3,7.73-7.77,13.08-6.33c4.22,1.14,7.56,8.7,5.48,11.81c-0.27,0.41-0.58,0.66-0.84,0.84
			c-4.75,3.37-13.28-0.4-13.92,0.84c-0.79,1.55,12.44,7.14,11.81,12.23c-0.5,4-9.55,7.86-14.34,5.06
			C1067.96,98.8,1069.15,88.84,1067.22,88.74z"/>
		<circle class="st1" cx="1067.22" cy="81.99" r="4.43"/>
	</g>
	<g>
		<path class="st0" d="M1006.05,131.35c-2.18-0.11-2.16,12.6-7.59,14.34c-4.5,1.44-12.03-4.85-11.39-9.28
			c0.77-5.27,13.03-7.34,12.66-8.86c-0.38-1.53-12.39,2.38-15.61-2.11c-2.17-3.03-0.15-9.62,3.38-10.97
			c4.93-1.88,11.67,6.95,13.5,5.48c1.92-1.53-5.82-10.92-2.95-14.77c2.34-3.14,11.47-2.19,13.92,2.11
			c2.58,4.52-2.91,11.48-1.27,12.66c1.82,1.3,7.73-7.77,13.08-6.33c4.22,1.14,7.56,8.7,5.48,11.81c-0.27,0.41-0.58,0.66-0.84,0.84
			c-4.75,3.37-13.28-0.4-13.92,0.84c-0.79,1.55,12.44,7.14,11.81,12.23c-0.5,4-9.55,7.86-14.34,5.06
			C1006.79,141.41,1007.98,131.45,1006.05,131.35z"/>
		<circle class="st1" cx="1006.05" cy="124.6" r="4.43"/>
	</g>
	<g>
		<path class="st0" d="M1071.01,161.31c-2.18-0.11-2.16,12.6-7.59,14.34c-4.5,1.44-12.03-4.85-11.39-9.28
			c0.77-5.27,13.03-7.34,12.66-8.86c-0.38-1.53-12.39,2.38-15.61-2.11c-2.17-3.03-0.15-9.62,3.38-10.97
			c4.93-1.88,11.67,6.95,13.5,5.48c1.92-1.53-5.82-10.92-2.95-14.77c2.34-3.14,11.47-2.19,13.92,2.11
			c2.58,4.52-2.91,11.48-1.27,12.66c1.82,1.3,7.73-7.77,13.08-6.33c4.22,1.14,7.56,8.7,5.48,11.81c-0.27,0.41-0.58,0.66-0.84,0.84
			c-4.75,3.37-13.28-0.4-13.92,0.84c-0.79,1.55,12.44,7.14,11.81,12.23c-0.5,4-9.55,7.86-14.34,5.06
			C1071.75,171.36,1072.95,161.4,1071.01,161.31z"/>
		<circle class="st1" cx="1071.01" cy="154.56" r="4.43"/>
	</g>
	<g>
		<path class="st0" d="M1187.03,165.95c-2.17-0.11-2.16,12.6-7.59,14.34c-4.5,1.44-12.03-4.85-11.39-9.28
			c0.77-5.27,13.03-7.34,12.66-8.86c-0.38-1.53-12.39,2.38-15.61-2.11c-2.17-3.03-0.15-9.62,3.38-10.97
			c4.93-1.88,11.67,6.95,13.5,5.48c1.92-1.53-5.82-10.92-2.95-14.77c2.34-3.14,11.47-2.19,13.92,2.11
			c2.58,4.52-2.91,11.48-1.27,12.66c1.82,1.3,7.73-7.77,13.08-6.33c4.22,1.14,7.56,8.7,5.48,11.81c-0.27,0.41-0.58,0.66-0.84,0.84
			c-4.75,3.37-13.28-0.4-13.92,0.84c-0.79,1.55,12.44,7.14,11.81,12.23c-0.5,4-9.55,7.86-14.34,5.06
			C1187.77,176,1188.96,166.04,1187.03,165.95z"/>
		<circle class="st1" cx="1187.03" cy="159.2" r="4.43"/>
	</g>
	<g>
		<path class="st0" d="M1186.61,76.51c-2.17-0.11-2.16,12.6-7.59,14.34c-4.5,1.44-12.03-4.85-11.39-9.28
			c0.77-5.27,13.03-7.34,12.66-8.86c-0.38-1.53-12.39,2.38-15.61-2.11c-2.17-3.03-0.15-9.62,3.38-10.97
			c4.93-1.88,11.67,6.95,13.5,5.48c1.92-1.53-5.82-10.92-2.95-14.77c2.34-3.14,11.47-2.19,13.92,2.11
			c2.58,4.52-2.91,11.48-1.27,12.66c1.82,1.3,7.73-7.77,13.08-6.33c4.22,1.14,7.56,8.7,5.48,11.81c-0.27,0.41-0.58,0.66-0.84,0.84
			c-4.75,3.37-13.28-0.4-13.92,0.84c-0.79,1.55,12.44,7.14,11.81,12.23c-0.5,4-9.55,7.86-14.34,5.06
			C1187.35,86.57,1188.54,76.6,1186.61,76.51z"/>
		<circle class="st1" cx="1186.61" cy="69.76" r="4.43"/>
	</g>
	<g>
		<path class="st0" d="M941.08,165.95c-2.18-0.11-2.16,12.6-7.59,14.34c-4.5,1.44-12.03-4.85-11.39-9.28
			c0.77-5.27,13.03-7.34,12.66-8.86c-0.38-1.53-12.39,2.38-15.61-2.11c-2.17-3.03-0.15-9.62,3.37-10.97
			c4.93-1.88,11.67,6.95,13.5,5.48c1.92-1.53-5.82-10.92-2.95-14.77c2.34-3.14,11.47-2.19,13.92,2.11
			c2.58,4.52-2.91,11.48-1.27,12.66c1.82,1.3,7.73-7.77,13.08-6.33c4.22,1.14,7.56,8.7,5.48,11.81c-0.27,0.41-0.58,0.66-0.84,0.84
			c-4.75,3.37-13.28-0.4-13.92,0.84c-0.79,1.55,12.44,7.14,11.81,12.23c-0.5,4-9.55,7.86-14.34,5.06
			C941.82,176,943.01,166.04,941.08,165.95z"/>
		<circle class="st1" cx="941.08" cy="159.2" r="4.43"/>
	</g>
	<g>
		<path class="st0" d="M938.97,84.52c-2.18-0.11-2.16,12.6-7.59,14.34c-4.5,1.44-12.03-4.85-11.39-9.28
			c0.77-5.27,13.03-7.34,12.66-8.86c-0.38-1.53-12.39,2.38-15.61-2.11c-2.17-3.03-0.15-9.62,3.37-10.97
			c4.93-1.88,11.67,6.95,13.5,5.48c1.92-1.53-5.82-10.92-2.95-14.77c2.34-3.14,11.47-2.19,13.92,2.11
			c2.58,4.52-2.91,11.48-1.27,12.66c1.82,1.3,7.73-7.77,13.08-6.33c4.22,1.14,7.56,8.7,5.48,11.81c-0.27,0.41-0.58,0.66-0.84,0.84
			c-4.75,3.37-13.28-0.4-13.92,0.84c-0.79,1.55,12.44,7.14,11.81,12.23c-0.5,4-9.55,7.86-14.34,5.06
			C939.71,94.58,940.9,84.62,938.97,84.52z"/>
		<circle class="st1" cx="938.97" cy="77.77" r="4.43"/>
	</g>
</g>
</svg>
