<?xml version="1.0" encoding="utf-8"?>
<!-- Generator: Adobe Illustrator 23.0.6, SVG Export Plug-In . SVG Version: 6.00 Build 0)  -->
<svg version="1.1" id="Layer_1" xmlns="http://www.w3.org/2000/svg" xmlns:xlink="http://www.w3.org/1999/xlink" x="0px" y="0px"
	 viewBox="0 0 1391 237" style="enable-background:new 0 0 1391 237;" xml:space="preserve">
<style type="text/css">
	.st0{fill:#56915A;}
	.st1{fill:#EAADAD;}
	.st2{fill:#FCFCFC;}
	.st3{fill:#E25A5A;}
	.st4{fill:#F9B928;}
</style>
<g>
	<path class="st0" d="M569.94,84.94c-2.17-1.12-6.34-2.9-11.87-2.99c-6.61-0.11-11.34,2.26-12.29,2.75
		c-2.78,1.44-4.72,3.11-6.24,4.43c-2.44,2.13-4.23,4.2-5.45,5.8c1.05,1.02,2.63,2.47,4.67,4.05c1.53,1.19,5.72,4.32,9.12,5.77
		c8.11,3.45,21.2-0.66,25.14-9.36c1.19-2.62,1.33-5.19,1.21-7.13C572.8,87.15,571.37,86.04,569.94,84.94z"/>
	<g>
		<path class="st1" d="M765.33,121.01c-2.18-0.11-2.16,12.6-7.59,14.34c-4.5,1.44-12.03-4.85-11.39-9.28
			c0.77-5.27,13.03-7.34,12.66-8.86c-0.38-1.53-12.39,2.38-15.61-2.11c-2.17-3.03-0.15-9.62,3.38-10.97
			c4.93-1.88,11.67,6.95,13.5,5.48c1.92-1.53-5.82-10.92-2.95-14.77c2.34-3.14,11.47-2.19,13.92,2.11
			c2.58,4.52-2.91,11.48-1.27,12.66c1.82,1.3,7.73-7.77,13.08-6.33c4.22,1.14,7.56,8.7,5.48,11.81c-0.27,0.41-0.58,0.66-0.84,0.84
			c-4.75,3.37-13.28-0.4-13.92,0.84c-0.79,1.55,12.44,7.14,11.81,12.23c-0.5,4-9.55,7.86-14.34,5.06
			C766.07,131.07,767.26,121.11,765.33,121.01z"/>
		<circle class="st2" cx="765.33" cy="114.26" r="4.43"/>
	</g>
	<g>
		<path class="st1" d="M699.09,92.32c-2.18-0.11-2.16,12.6-7.59,14.34c-4.5,1.44-12.03-4.85-11.39-9.28
			c0.77-5.27,13.03-7.34,12.66-8.86c-0.38-1.53-12.39,2.38-15.61-2.11c-2.17-3.03-0.15-9.62,3.38-10.97
			c4.93-1.88,11.67,6.95,13.5,5.48c1.92-1.53-5.82-10.92-2.95-14.77c2.34-3.14,11.47-2.19,13.92,2.11
			c2.58,4.52-2.91,11.48-1.27,12.66c1.82,1.3,7.73-7.77,13.08-6.33c4.22,1.14,7.56,8.7,5.48,11.81c-0.27,0.41-0.58,0.66-0.84,0.84
			c-4.75,3.37-13.28-0.4-13.92,0.84c-0.79,1.55,12.44,7.14,11.81,12.23c-0.5,4-9.55,7.86-14.34,5.06
			C699.83,102.38,701.03,92.42,699.09,92.32z"/>
		<circle class="st2" cx="699.09" cy="85.57" r="4.43"/>
	</g>
	<g>
		<path class="st1" d="M637.92,134.93c-2.18-0.11-2.16,12.6-7.59,14.34c-4.5,1.44-12.03-4.85-11.39-9.28
			c0.77-5.27,13.03-7.34,12.66-8.86c-0.38-1.53-12.39,2.38-15.61-2.11c-2.17-3.03-0.15-9.62,3.38-10.97
			c4.93-1.88,11.67,6.95,13.5,5.48c1.92-1.53-5.82-10.92-2.95-14.77c2.34-3.14,11.47-2.19,13.92,2.11
			c2.58,4.52-2.91,11.48-1.27,12.66c1.82,1.3,7.73-7.77,13.08-6.33c4.22,1.14,7.56,8.7,5.48,11.81c-0.27,0.41-0.58,0.66-0.84,0.84
			c-4.75,3.37-13.28-0.4-13.92,0.84c-0.79,1.55,12.44,7.14,11.81,12.23c-0.5,4-9.55,7.86-14.34,5.06
			C638.66,144.99,639.85,135.03,637.92,134.93z"/>
		<circle class="st2" cx="637.92" cy="128.18" r="4.43"/>
	</g>
	<g>
		<path class="st1" d="M702.89,164.89c-2.17-0.11-2.16,12.6-7.59,14.34c-4.5,1.44-12.03-4.85-11.39-9.28
			c0.77-5.27,13.03-7.34,12.66-8.86c-0.38-1.53-12.39,2.38-15.61-2.11c-2.17-3.03-0.15-9.62,3.38-10.97
			c4.93-1.88,11.67,6.95,13.5,5.48c1.92-1.53-5.82-10.92-2.95-14.77c2.34-3.14,11.47-2.19,13.92,2.11
			c2.58,4.52-2.91,11.48-1.27,12.66c1.82,1.3,7.73-7.77,13.08-6.33c4.22,1.14,7.56,8.7,5.48,11.81c-0.27,0.41-0.58,0.66-0.84,0.84
			c-4.75,3.37-13.28-0.4-13.92,0.84c-0.79,1.55,12.44,7.14,11.81,12.23c-0.5,4-9.55,7.86-14.34,5.06
			C703.63,174.94,704.82,164.98,702.89,164.89z"/>
		<circle class="st2" cx="702.89" cy="158.14" r="4.43"/>
	</g>
	<g>
		<path class="st1" d="M818.91,169.53c-2.18-0.11-2.16,12.6-7.59,14.34c-4.5,1.44-12.03-4.85-11.39-9.28
			c0.77-5.27,13.03-7.34,12.66-8.86c-0.38-1.53-12.39,2.38-15.61-2.11c-2.17-3.03-0.15-9.62,3.37-10.97
			c4.93-1.88,11.67,6.95,13.5,5.48c1.92-1.53-5.82-10.92-2.95-14.77c2.34-3.14,11.47-2.19,13.92,2.11
			c2.58,4.52-2.91,11.48-1.27,12.66c1.82,1.3,7.73-7.77,13.08-6.33c4.22,1.14,7.56,8.7,5.48,11.81c-0.27,0.41-0.58,0.66-0.84,0.84
			c-4.75,3.37-13.28-0.4-13.92,0.84c-0.79,1.55,12.44,7.14,11.81,12.23c-0.5,4-9.55,7.86-14.34,5.06
			C819.65,179.58,820.84,169.62,818.91,169.53z"/>
		<circle class="st2" cx="818.91" cy="162.78" r="4.43"/>
	</g>
	<g>
		<path class="st1" d="M818.49,80.09c-2.18-0.11-2.16,12.6-7.59,14.34c-4.5,1.44-12.03-4.85-11.39-9.28
			c0.77-5.27,13.03-7.34,12.66-8.86c-0.38-1.53-12.39,2.38-15.61-2.11c-2.17-3.03-0.15-9.62,3.37-10.97
			c4.93-1.88,11.67,6.95,13.5,5.48c1.92-1.53-5.82-10.92-2.95-14.77c2.34-3.14,11.47-2.19,13.92,2.11
			c2.58,4.52-2.91,11.48-1.27,12.66c1.82,1.3,7.73-7.77,13.08-6.33c4.22,1.14,7.56,8.7,5.48,11.81c-0.27,0.41-0.58,0.66-0.84,0.84
			c-4.75,3.37-13.28-0.4-13.92,0.84c-0.79,1.55,12.44,7.14,11.81,12.23c-0.5,4-9.55,7.86-14.34,5.06
			C819.22,90.15,820.42,80.18,818.49,80.09z"/>
		<circle class="st2" cx="818.49" cy="73.34" r="4.43"/>
	</g>
	<g>
		<path class="st1" d="M572.95,169.53c-2.18-0.11-2.16,12.6-7.59,14.34c-4.5,1.44-12.03-4.85-11.39-9.28
			c0.77-5.27,13.03-7.34,12.66-8.86c-0.38-1.53-12.39,2.38-15.61-2.11c-2.17-3.03-0.15-9.62,3.38-10.97
			c4.93-1.88,11.67,6.95,13.5,5.48c1.92-1.53-5.82-10.92-2.95-14.77c2.34-3.14,11.47-2.19,13.92,2.11
			c2.58,4.52-2.91,11.48-1.27,12.66c1.82,1.3,7.73-7.77,13.08-6.33c4.22,1.14,7.56,8.7,5.48,11.81c-0.27,0.41-0.58,0.66-0.84,0.84
			c-4.75,3.37-13.28-0.4-13.92,0.84c-0.79,1.55,12.44,7.14,11.81,12.23c-0.5,4-9.55,7.86-14.34,5.06
			C573.69,179.58,574.89,169.62,572.95,169.53z"/>
		<circle class="st2" cx="572.95" cy="162.78" r="4.43"/>
	</g>
	<path class="st3" d="M570.85,88.11c-2.18-0.11-2.16,12.6-7.59,14.34c-4.5,1.44-12.03-4.85-11.39-9.28
		c0.77-5.27,13.03-7.34,12.66-8.86c-0.38-1.53-12.39,2.38-15.61-2.11c-2.17-3.03-0.15-9.62,3.37-10.97
		c4.93-1.88,11.67,6.95,13.5,5.48c1.92-1.53-5.82-10.92-2.95-14.77c2.34-3.14,11.47-2.19,13.92,2.11
		c2.58,4.52-2.91,11.48-1.27,12.66c1.82,1.3,7.73-7.77,13.08-6.33c4.22,1.14,7.56,8.7,5.48,11.81c-0.27,0.41-0.58,0.66-0.84,0.84
		c-4.75,3.37-13.28-0.4-13.92,0.84c-0.79,1.55,12.44,7.14,11.81,12.23c-0.5,4-9.55,7.86-14.34,5.06
		C571.58,98.16,572.78,88.2,570.85,88.11z"/>
	<circle class="st4" cx="570.85" cy="81.36" r="4.43"/>
	<path class="st0" d="M637.01,131.76c-2.17-1.12-6.34-2.9-11.87-2.99c-6.61-0.11-11.34,2.26-12.29,2.75
		c-2.78,1.44-4.72,3.11-6.24,4.43c-2.44,2.13-4.23,4.2-5.45,5.8c1.05,1.02,2.63,2.47,4.67,4.05c1.53,1.19,5.72,4.32,9.12,5.77
		c8.11,3.45,21.2-0.66,25.14-9.36c1.19-2.62,1.33-5.19,1.21-7.13C639.87,133.97,638.44,132.86,637.01,131.76z"/>
	<path class="st3" d="M637.92,134.93c-2.18-0.11-2.16,12.6-7.59,14.34c-4.5,1.44-12.03-4.85-11.39-9.28
		c0.77-5.27,13.03-7.34,12.66-8.86c-0.38-1.53-12.39,2.38-15.61-2.11c-2.17-3.03-0.15-9.62,3.37-10.97
		c4.93-1.88,11.67,6.95,13.5,5.48c1.92-1.53-5.82-10.92-2.95-14.77c2.34-3.14,11.47-2.19,13.92,2.11
		c2.58,4.52-2.91,11.48-1.27,12.66c1.82,1.3,7.73-7.77,13.08-6.33c4.22,1.14,7.56,8.7,5.48,11.81c-0.27,0.41-0.58,0.66-0.84,0.84
		c-4.75,3.37-13.28-0.4-13.92,0.84c-0.79,1.55,12.44,7.14,11.81,12.23c-0.5,4-9.55,7.86-14.34,5.06
		C638.65,144.98,639.85,135.02,637.92,134.93z"/>
	<circle class="st4" cx="637.92" cy="128.18" r="4.43"/>
	<path class="st0" d="M572.04,166.36c-2.17-1.12-6.34-2.9-11.87-2.99c-6.61-0.11-11.34,2.26-12.29,2.75
		c-2.78,1.44-4.72,3.11-6.24,4.43c-2.44,2.13-4.23,4.2-5.45,5.8c1.05,1.02,2.63,2.47,4.67,4.05c1.53,1.19,5.72,4.32,9.12,5.77
		c8.11,3.45,21.2-0.66,25.14-9.36c1.19-2.62,1.33-5.19,1.21-7.13C574.9,168.57,573.47,167.46,572.04,166.36z"/>
	<path class="st3" d="M572.95,169.53c-2.18-0.11-2.16,12.6-7.59,14.34c-4.5,1.44-12.03-4.85-11.39-9.28
		c0.77-5.27,13.03-7.34,12.66-8.86c-0.38-1.53-12.39,2.38-15.61-2.11c-2.17-3.03-0.15-9.62,3.37-10.97
		c4.93-1.88,11.67,6.95,13.5,5.48c1.92-1.53-5.82-10.92-2.95-14.77c2.34-3.14,11.47-2.19,13.92,2.11
		c2.58,4.52-2.91,11.48-1.27,12.66c1.82,1.3,7.73-7.77,13.08-6.33c4.22,1.14,7.56,8.7,5.48,11.81c-0.27,0.41-0.58,0.66-0.84,0.84
		c-4.75,3.37-13.28-0.4-13.92,0.84c-0.79,1.55,12.44,7.14,11.81,12.23c-0.5,4-9.55,7.86-14.34,5.06
		C573.68,179.58,574.88,169.62,572.95,169.53z"/>
	<circle class="st4" cx="572.95" cy="163.13" r="4.43"/>
	<path class="st0" d="M698.28,89.15c-2.17-1.12-6.34-2.9-11.87-2.99c-6.61-0.11-11.34,2.26-12.29,2.75
		c-2.78,1.44-4.72,3.11-6.24,4.43c-2.44,2.13-4.23,4.2-5.45,5.8c1.05,1.02,2.63,2.47,4.67,4.05c1.53,1.19,5.72,4.32,9.12,5.77
		c8.11,3.45,21.2-0.66,25.14-9.36c1.19-2.62,1.33-5.19,1.21-7.13C701.15,91.36,699.72,90.25,698.28,89.15z"/>
	<path class="st3" d="M699.2,92.32c-2.18-0.11-2.16,12.6-7.59,14.34c-4.5,1.44-12.03-4.85-11.39-9.28
		c0.77-5.27,13.03-7.34,12.66-8.86c-0.38-1.53-12.39,2.38-15.61-2.11c-2.17-3.03-0.15-9.62,3.37-10.97
		c4.93-1.88,11.67,6.95,13.5,5.48c1.92-1.53-5.82-10.92-2.95-14.77c2.34-3.14,11.47-2.19,13.92,2.11
		c2.58,4.52-2.91,11.48-1.27,12.66c1.82,1.3,7.73-7.77,13.08-6.33c4.22,1.14,7.56,8.7,5.48,11.81c-0.27,0.41-0.58,0.66-0.84,0.84
		c-4.75,3.37-13.28-0.4-13.92,0.84c-0.79,1.55,12.44,7.14,11.81,12.23c-0.5,4-9.55,7.86-14.34,5.06
		C699.93,102.37,701.13,92.41,699.2,92.32z"/>
	<circle class="st4" cx="699.2" cy="85.57" r="4.43"/>
	<path class="st0" d="M701.99,161.72c-2.17-1.12-6.34-2.9-11.87-2.99c-6.61-0.11-11.34,2.26-12.29,2.75
		c-2.78,1.44-4.72,3.11-6.24,4.43c-2.44,2.13-4.23,4.2-5.45,5.8c1.05,1.02,2.63,2.47,4.67,4.05c1.53,1.19,5.72,4.32,9.12,5.77
		c8.11,3.45,21.2-0.66,25.14-9.36c1.19-2.62,1.33-5.19,1.21-7.13C704.85,163.93,703.42,162.82,701.99,161.72z"/>
	<path class="st3" d="M702.9,164.89c-2.18-0.11-2.16,12.6-7.59,14.34c-4.5,1.44-12.03-4.85-11.39-9.28
		c0.77-5.27,13.03-7.34,12.66-8.86c-0.38-1.53-12.39,2.38-15.61-2.11c-2.17-3.03-0.15-9.62,3.37-10.97
		c4.93-1.88,11.67,6.95,13.5,5.48c1.92-1.53-5.82-10.92-2.95-14.77c2.34-3.14,11.47-2.19,13.92,2.11
		c2.58,4.52-2.91,11.48-1.27,12.66c1.82,1.3,7.73-7.77,13.08-6.33c4.22,1.14,7.56,8.7,5.48,11.81c-0.27,0.41-0.58,0.66-0.84,0.84
		c-4.75,3.37-13.28-0.4-13.92,0.84c-0.79,1.55,12.44,7.14,11.81,12.23c-0.5,4-9.55,7.86-14.34,5.06
		C703.63,174.94,704.83,164.98,702.9,164.89z"/>
	<circle class="st4" cx="702.9" cy="158.14" r="4.43"/>
	<path class="st0" d="M764.42,117.84c-2.17-1.12-6.34-2.9-11.87-2.99c-6.61-0.11-11.34,2.26-12.29,2.75
		c-2.78,1.44-4.72,3.11-6.24,4.43c-2.44,2.13-4.23,4.2-5.45,5.8c1.05,1.02,2.63,2.47,4.67,4.05c1.53,1.19,5.72,4.32,9.12,5.77
		c8.11,3.45,21.2-0.66,25.14-9.36c1.19-2.62,1.33-5.19,1.21-7.13C767.28,120.05,765.85,118.94,764.42,117.84z"/>
	<path class="st3" d="M765.33,121.01c-2.18-0.11-2.16,12.6-7.59,14.34c-4.5,1.44-12.03-4.85-11.39-9.28
		c0.77-5.27,13.03-7.34,12.66-8.86c-0.38-1.53-12.39,2.38-15.61-2.11c-2.17-3.03-0.15-9.62,3.37-10.97
		c4.93-1.88,11.67,6.95,13.5,5.48c1.92-1.53-5.82-10.92-2.95-14.77c2.34-3.14,11.47-2.19,13.92,2.11
		c2.58,4.52-2.91,11.48-1.27,12.66c1.82,1.3,7.73-7.77,13.08-6.33c4.22,1.14,7.56,8.7,5.48,11.81c-0.27,0.41-0.58,0.66-0.84,0.84
		c-4.75,3.37-13.28-0.4-13.92,0.84c-0.79,1.55,12.44,7.14,11.81,12.23c-0.5,4-9.55,7.86-14.34,5.06
		C766.06,131.06,767.26,121.1,765.33,121.01z"/>
	<circle class="st4" cx="765.33" cy="114.26" r="4.43"/>
	<path class="st0" d="M817.65,76.92c-2.17-1.12-6.34-2.9-11.87-2.99c-6.61-0.11-11.34,2.26-12.29,2.75
		c-2.78,1.44-4.72,3.11-6.24,4.43c-2.44,2.13-4.23,4.2-5.45,5.8c1.05,1.02,2.63,2.47,4.67,4.05c1.53,1.19,5.72,4.32,9.12,5.77
		c8.11,3.45,21.2-0.66,25.14-9.36c1.19-2.62,1.33-5.19,1.21-7.13C820.51,79.13,819.08,78.02,817.65,76.92z"/>
	<path class="st3" d="M818.56,80.09c-2.18-0.11-2.16,12.6-7.59,14.34c-4.5,1.44-12.03-4.85-11.39-9.28
		c0.77-5.27,13.03-7.34,12.66-8.86c-0.38-1.53-12.39,2.38-15.61-2.11c-2.17-3.03-0.15-9.62,3.37-10.97
		c4.93-1.88,11.67,6.95,13.5,5.48c1.92-1.53-5.82-10.92-2.95-14.77c2.34-3.14,11.47-2.19,13.92,2.11
		c2.58,4.52-2.91,11.48-1.27,12.66c1.82,1.3,7.73-7.77,13.08-6.33c4.22,1.14,7.56,8.7,5.48,11.81c-0.27,0.41-0.58,0.66-0.84,0.84
		c-4.75,3.37-13.28-0.4-13.92,0.84c-0.79,1.55,12.44,7.14,11.81,12.23c-0.5,4-9.55,7.86-14.34,5.06
		C819.29,90.14,820.49,80.18,818.56,80.09z"/>
	<circle class="st4" cx="818.56" cy="73.34" r="4.43"/>
	<path class="st0" d="M817.65,166.36c-2.17-1.12-6.34-2.9-11.87-2.99c-6.61-0.11-11.34,2.26-12.29,2.75
		c-2.78,1.44-4.72,3.11-6.24,4.43c-2.44,2.13-4.23,4.2-5.45,5.8c1.05,1.02,2.63,2.47,4.67,4.05c1.53,1.19,5.72,4.32,9.12,5.77
		c8.11,3.45,21.2-0.66,25.14-9.36c1.19-2.62,1.33-5.19,1.21-7.13C820.51,168.57,819.08,167.46,817.65,166.36z"/>
	<path class="st3" d="M818.56,169.53c-2.18-0.11-2.16,12.6-7.59,14.34c-4.5,1.44-12.03-4.85-11.39-9.28
		c0.77-5.27,13.03-7.34,12.66-8.86c-0.38-1.53-12.39,2.38-15.61-2.11c-2.17-3.03-0.15-9.62,3.37-10.97
		c4.93-1.88,11.67,6.95,13.5,5.48c1.92-1.53-5.82-10.92-2.95-14.77c2.34-3.14,11.47-2.19,13.92,2.11
		c2.58,4.52-2.91,11.48-1.27,12.66c1.82,1.3,7.73-7.77,13.08-6.33c4.22,1.14,7.56,8.7,5.48,11.81c-0.27,0.41-0.58,0.66-0.84,0.84
		c-4.75,3.37-13.28-0.4-13.92,0.84c-0.79,1.55,12.44,7.14,11.81,12.23c-0.5,4-9.55,7.86-14.34,5.06
		C819.29,179.58,820.49,169.62,818.56,169.53z"/>
	<circle class="st4" cx="818.56" cy="162.78" r="4.43"/>
</g>
<g>
	<path class="st0" d="M200,88.97c-2.17-1.12-6.34-2.9-11.87-2.99c-6.61-0.11-11.34,2.26-12.29,2.75c-2.78,1.44-4.72,3.11-6.24,4.43
		c-2.44,2.13-4.23,4.2-5.45,5.8c1.05,1.02,2.63,2.47,4.67,4.05c1.53,1.19,5.72,4.32,9.12,5.77c8.11,3.45,21.2-0.66,25.14-9.36
		c1.19-2.62,1.33-5.19,1.21-7.13C202.87,91.17,201.43,90.07,200,88.97z"/>
	<g>
		<path class="st1" d="M395.39,125.04c-2.18-0.11-2.16,12.6-7.59,14.34c-4.5,1.44-12.03-4.85-11.39-9.28
			c0.77-5.27,13.03-7.34,12.66-8.86c-0.38-1.53-12.39,2.38-15.61-2.11c-2.17-3.03-0.15-9.62,3.38-10.97
			c4.93-1.88,11.67,6.95,13.5,5.48c1.92-1.53-5.82-10.92-2.95-14.77c2.34-3.14,11.47-2.19,13.92,2.11
			c2.58,4.52-2.91,11.48-1.27,12.66c1.82,1.3,7.73-7.77,13.08-6.33c4.22,1.14,7.56,8.7,5.48,11.81c-0.27,0.41-0.58,0.66-0.84,0.84
			c-4.75,3.37-13.28-0.4-13.92,0.84c-0.79,1.55,12.44,7.14,11.81,12.23c-0.5,4-9.55,7.86-14.34,5.06
			C396.13,135.1,397.32,125.14,395.39,125.04z"/>
		<circle class="st2" cx="395.39" cy="118.29" r="4.43"/>
	</g>
	<g>
		<path class="st1" d="M329.15,96.35c-2.18-0.11-2.16,12.6-7.59,14.34c-4.5,1.44-12.03-4.85-11.39-9.28
			c0.77-5.27,13.03-7.34,12.66-8.86c-0.38-1.53-12.39,2.38-15.61-2.11c-2.17-3.03-0.15-9.62,3.38-10.97
			c4.93-1.88,11.67,6.95,13.5,5.48c1.92-1.53-5.82-10.92-2.95-14.77c2.34-3.14,11.47-2.19,13.92,2.11
			c2.58,4.52-2.91,11.48-1.27,12.66c1.82,1.3,7.73-7.77,13.08-6.33c4.22,1.14,7.56,8.7,5.48,11.81c-0.27,0.41-0.58,0.66-0.84,0.84
			c-4.75,3.37-13.28-0.4-13.92,0.84c-0.79,1.55,12.44,7.14,11.81,12.23c-0.5,4-9.55,7.86-14.34,5.06
			C329.89,106.41,331.09,96.45,329.15,96.35z"/>
		<circle class="st2" cx="329.15" cy="89.6" r="4.43"/>
	</g>
	<g>
		<path class="st1" d="M267.98,138.96c-2.18-0.11-2.16,12.6-7.59,14.34c-4.5,1.44-12.03-4.85-11.39-9.28
			c0.77-5.27,13.03-7.34,12.66-8.86c-0.38-1.53-12.39,2.38-15.61-2.11c-2.17-3.03-0.15-9.62,3.38-10.97
			c4.93-1.88,11.67,6.95,13.5,5.48c1.92-1.53-5.82-10.92-2.95-14.77c2.34-3.14,11.47-2.19,13.92,2.11
			c2.58,4.52-2.91,11.48-1.27,12.66c1.82,1.3,7.73-7.77,13.08-6.33c4.22,1.14,7.56,8.7,5.48,11.81c-0.27,0.41-0.58,0.66-0.84,0.84
			c-4.75,3.37-13.28-0.4-13.92,0.84c-0.79,1.55,12.44,7.14,11.81,12.23c-0.5,4-9.55,7.86-14.34,5.06
			C268.72,149.02,269.91,139.06,267.98,138.96z"/>
		<circle class="st2" cx="267.98" cy="132.21" r="4.43"/>
	</g>
	<g>
		<path class="st1" d="M332.95,168.92c-2.17-0.11-2.16,12.6-7.59,14.34c-4.5,1.44-12.03-4.85-11.39-9.28
			c0.77-5.27,13.03-7.34,12.66-8.86c-0.38-1.53-12.39,2.38-15.61-2.11c-2.17-3.03-0.15-9.62,3.38-10.97
			c4.93-1.88,11.67,6.95,13.5,5.48c1.92-1.53-5.82-10.92-2.95-14.77c2.34-3.14,11.47-2.19,13.92,2.11
			c2.58,4.52-2.91,11.48-1.27,12.66c1.82,1.3,7.73-7.77,13.08-6.33c4.22,1.14,7.56,8.7,5.48,11.81c-0.27,0.41-0.58,0.66-0.84,0.84
			c-4.75,3.37-13.28-0.4-13.92,0.84c-0.79,1.55,12.44,7.14,11.81,12.23c-0.5,4-9.55,7.86-14.34,5.06
			C333.69,178.97,334.88,169.01,332.95,168.92z"/>
		<circle class="st2" cx="332.95" cy="162.17" r="4.43"/>
	</g>
	<g>
		<path class="st1" d="M448.97,173.56c-2.18-0.11-2.16,12.6-7.59,14.34c-4.5,1.44-12.03-4.85-11.39-9.28
			c0.77-5.27,13.03-7.34,12.66-8.86c-0.38-1.53-12.39,2.38-15.61-2.11c-2.17-3.03-0.15-9.62,3.37-10.97
			c4.93-1.88,11.67,6.95,13.5,5.48c1.92-1.53-5.82-10.92-2.95-14.77c2.34-3.14,11.47-2.19,13.92,2.11
			c2.58,4.52-2.91,11.48-1.27,12.66c1.82,1.3,7.73-7.77,13.08-6.33c4.22,1.14,7.56,8.7,5.48,11.81c-0.27,0.41-0.58,0.66-0.84,0.84
			c-4.75,3.37-13.28-0.4-13.92,0.84c-0.79,1.55,12.44,7.14,11.81,12.23c-0.5,4-9.55,7.86-14.34,5.06
			C449.71,183.61,450.9,173.65,448.97,173.56z"/>
		<circle class="st2" cx="448.97" cy="166.81" r="4.43"/>
	</g>
	<g>
		<path class="st1" d="M448.55,84.12c-2.18-0.11-2.16,12.6-7.59,14.34c-4.5,1.44-12.03-4.85-11.39-9.28
			c0.77-5.27,13.03-7.34,12.66-8.86c-0.38-1.53-12.39,2.38-15.61-2.11c-2.17-3.03-0.15-9.62,3.37-10.97
			c4.93-1.88,11.67,6.95,13.5,5.48c1.92-1.53-5.82-10.92-2.95-14.77c2.34-3.14,11.47-2.19,13.92,2.11
			c2.58,4.52-2.91,11.48-1.27,12.66c1.82,1.3,7.73-7.77,13.08-6.33c4.22,1.14,7.56,8.7,5.48,11.81c-0.27,0.41-0.58,0.66-0.84,0.84
			c-4.75,3.37-13.28-0.4-13.92,0.84c-0.79,1.55,12.44,7.14,11.81,12.23c-0.5,4-9.55,7.86-14.34,5.06
			C449.28,94.18,450.48,84.21,448.55,84.12z"/>
		<circle class="st2" cx="448.55" cy="77.37" r="4.43"/>
	</g>
	<g>
		<path class="st1" d="M203.01,173.56c-2.18-0.11-2.16,12.6-7.59,14.34c-4.5,1.44-12.03-4.85-11.39-9.28
			c0.77-5.27,13.03-7.34,12.66-8.86c-0.38-1.53-12.39,2.38-15.61-2.11c-2.17-3.03-0.15-9.62,3.38-10.97
			c4.93-1.88,11.67,6.95,13.5,5.48c1.92-1.53-5.82-10.92-2.95-14.77c2.34-3.14,11.47-2.19,13.92,2.11
			c2.58,4.52-2.91,11.48-1.27,12.66c1.82,1.3,7.73-7.77,13.08-6.33c4.22,1.14,7.56,8.7,5.48,11.81c-0.27,0.41-0.58,0.66-0.84,0.84
			c-4.75,3.37-13.28-0.4-13.92,0.84c-0.79,1.55,12.44,7.14,11.81,12.23c-0.5,4-9.55,7.86-14.34,5.06
			C203.75,183.61,204.95,173.65,203.01,173.56z"/>
		<circle class="st2" cx="203.01" cy="166.81" r="4.43"/>
	</g>
	<path class="st3" d="M200.91,92.14c-2.18-0.11-2.16,12.6-7.59,14.34c-4.5,1.44-12.03-4.85-11.39-9.28
		c0.77-5.27,13.03-7.34,12.66-8.86c-0.38-1.53-12.39,2.38-15.61-2.11c-2.17-3.03-0.15-9.62,3.37-10.97
		c4.93-1.88,11.67,6.95,13.5,5.48c1.92-1.53-5.82-10.92-2.95-14.77c2.34-3.14,11.47-2.19,13.92,2.11
		c2.58,4.52-2.91,11.48-1.27,12.66c1.82,1.3,7.73-7.77,13.08-6.33c4.22,1.14,7.56,8.7,5.48,11.81c-0.27,0.41-0.58,0.66-0.84,0.84
		c-4.75,3.37-13.28-0.4-13.92,0.84c-0.79,1.55,12.44,7.14,11.81,12.23c-0.5,4-9.55,7.86-14.34,5.06
		C201.64,102.19,202.84,92.23,200.91,92.14z"/>
	<circle class="st4" cx="200.91" cy="85.39" r="4.43"/>
	<path class="st0" d="M267.07,135.79c-2.17-1.12-6.34-2.9-11.87-2.99c-6.61-0.11-11.34,2.26-12.29,2.75
		c-2.78,1.44-4.72,3.11-6.24,4.43c-2.44,2.13-4.23,4.2-5.45,5.8c1.05,1.02,2.63,2.47,4.67,4.05c1.53,1.19,5.72,4.32,9.12,5.77
		c8.11,3.45,21.2-0.66,25.14-9.36c1.19-2.62,1.33-5.19,1.21-7.13C269.94,137.99,268.5,136.89,267.07,135.79z"/>
	<path class="st3" d="M267.98,138.96c-2.18-0.11-2.16,12.6-7.59,14.34c-4.5,1.44-12.03-4.85-11.39-9.28
		c0.77-5.27,13.03-7.34,12.66-8.86c-0.38-1.53-12.39,2.38-15.61-2.11c-2.17-3.03-0.15-9.62,3.37-10.97
		c4.93-1.88,11.67,6.95,13.5,5.48c1.92-1.53-5.82-10.92-2.95-14.77c2.34-3.14,11.47-2.19,13.92,2.11
		c2.58,4.52-2.91,11.48-1.27,12.66c1.82,1.3,7.73-7.77,13.08-6.33c4.22,1.14,7.56,8.7,5.48,11.81c-0.27,0.41-0.58,0.66-0.84,0.84
		c-4.75,3.37-13.28-0.4-13.92,0.84c-0.79,1.55,12.44,7.14,11.81,12.23c-0.5,4-9.55,7.86-14.34,5.06
		C268.71,149.01,269.91,139.05,267.98,138.96z"/>
	<circle class="st4" cx="267.98" cy="132.21" r="4.43"/>
	<path class="st0" d="M202.1,170.39c-2.17-1.12-6.34-2.9-11.87-2.99c-6.61-0.11-11.34,2.26-12.29,2.75
		c-2.78,1.44-4.72,3.11-6.24,4.43c-2.44,2.13-4.23,4.2-5.45,5.8c1.05,1.02,2.63,2.47,4.67,4.05c1.53,1.19,5.72,4.32,9.12,5.77
		c8.11,3.45,21.2-0.66,25.14-9.36c1.19-2.62,1.33-5.19,1.21-7.13C204.96,172.59,203.53,171.49,202.1,170.39z"/>
	<path class="st3" d="M203.01,173.56c-2.18-0.11-2.16,12.6-7.59,14.34c-4.5,1.44-12.03-4.85-11.39-9.28
		c0.77-5.27,13.03-7.34,12.66-8.86c-0.38-1.53-12.39,2.38-15.61-2.11c-2.17-3.03-0.15-9.62,3.37-10.97
		c4.93-1.88,11.67,6.95,13.5,5.48c1.92-1.53-5.82-10.92-2.95-14.77c2.34-3.14,11.47-2.19,13.92,2.11
		c2.58,4.52-2.91,11.48-1.27,12.66c1.82,1.3,7.73-7.77,13.08-6.33c4.22,1.14,7.56,8.7,5.48,11.81c-0.27,0.41-0.58,0.66-0.84,0.84
		c-4.75,3.37-13.28-0.4-13.92,0.84c-0.79,1.55,12.44,7.14,11.81,12.23c-0.5,4-9.55,7.86-14.34,5.06
		C203.74,183.61,204.94,173.65,203.01,173.56z"/>
	<circle class="st4" cx="203.01" cy="167.16" r="4.43"/>
	<path class="st0" d="M328.35,93.18c-2.17-1.12-6.34-2.9-11.87-2.99c-6.61-0.11-11.34,2.26-12.29,2.75
		c-2.78,1.44-4.72,3.11-6.24,4.43c-2.44,2.13-4.23,4.2-5.45,5.8c1.05,1.02,2.63,2.47,4.67,4.05c1.53,1.19,5.72,4.32,9.12,5.77
		c8.11,3.45,21.2-0.66,25.14-9.36c1.19-2.62,1.33-5.19,1.21-7.13C331.21,95.38,329.78,94.28,328.35,93.18z"/>
	<path class="st3" d="M329.26,96.35c-2.18-0.11-2.16,12.6-7.59,14.34c-4.5,1.44-12.03-4.85-11.39-9.28
		c0.77-5.27,13.03-7.34,12.66-8.86c-0.38-1.53-12.39,2.38-15.61-2.11c-2.17-3.03-0.15-9.62,3.37-10.97
		c4.93-1.88,11.67,6.95,13.5,5.48c1.92-1.53-5.82-10.92-2.95-14.77c2.34-3.14,11.47-2.19,13.92,2.11
		c2.58,4.52-2.91,11.48-1.27,12.66c1.82,1.3,7.73-7.77,13.08-6.33c4.22,1.14,7.56,8.7,5.48,11.81c-0.27,0.41-0.58,0.66-0.84,0.84
		c-4.75,3.37-13.28-0.4-13.92,0.84c-0.79,1.55,12.44,7.14,11.81,12.23c-0.5,4-9.55,7.86-14.34,5.06
		C329.99,106.4,331.19,96.44,329.26,96.35z"/>
	<circle class="st4" cx="329.26" cy="89.6" r="4.43"/>
	<path class="st0" d="M332.05,165.75c-2.17-1.12-6.34-2.9-11.87-2.99c-6.61-0.11-11.34,2.26-12.29,2.75
		c-2.78,1.44-4.72,3.11-6.24,4.43c-2.44,2.13-4.23,4.2-5.45,5.8c1.05,1.02,2.63,2.47,4.67,4.05c1.53,1.19,5.72,4.32,9.12,5.77
		c8.11,3.45,21.2-0.66,25.14-9.36c1.19-2.62,1.33-5.19,1.21-7.13C334.92,167.95,333.48,166.85,332.05,165.75z"/>
	<path class="st3" d="M332.96,168.92c-2.18-0.11-2.16,12.6-7.59,14.34c-4.5,1.44-12.03-4.85-11.39-9.28
		c0.77-5.27,13.03-7.34,12.66-8.86c-0.38-1.53-12.39,2.38-15.61-2.11c-2.17-3.03-0.15-9.62,3.37-10.97
		c4.93-1.88,11.67,6.95,13.5,5.48c1.92-1.53-5.82-10.92-2.95-14.77c2.34-3.14,11.47-2.19,13.92,2.11
		c2.58,4.52-2.91,11.48-1.27,12.66c1.82,1.3,7.73-7.77,13.08-6.33c4.22,1.14,7.56,8.7,5.48,11.81c-0.27,0.41-0.58,0.66-0.84,0.84
		c-4.75,3.37-13.28-0.4-13.92,0.84c-0.79,1.55,12.44,7.14,11.81,12.23c-0.5,4-9.55,7.86-14.34,5.06
		C333.69,178.97,334.89,169.01,332.96,168.92z"/>
	<circle class="st4" cx="332.96" cy="162.17" r="4.43"/>
	<path class="st0" d="M394.48,121.87c-2.17-1.12-6.34-2.9-11.87-2.99c-6.61-0.11-11.34,2.26-12.29,2.75
		c-2.78,1.44-4.72,3.11-6.24,4.43c-2.44,2.13-4.23,4.2-5.45,5.8c1.05,1.02,2.63,2.47,4.67,4.05c1.53,1.19,5.72,4.32,9.12,5.77
		c8.11,3.45,21.2-0.66,25.14-9.36c1.19-2.62,1.33-5.19,1.21-7.13C397.35,124.07,395.91,122.97,394.48,121.87z"/>
	<path class="st3" d="M395.39,125.04c-2.18-0.11-2.16,12.6-7.59,14.34c-4.5,1.44-12.03-4.85-11.39-9.28
		c0.77-5.27,13.03-7.34,12.66-8.86c-0.38-1.53-12.39,2.38-15.61-2.11c-2.17-3.03-0.15-9.62,3.37-10.97
		c4.93-1.88,11.67,6.95,13.5,5.48c1.92-1.53-5.82-10.92-2.95-14.77c2.34-3.14,11.47-2.19,13.92,2.11
		c2.58,4.52-2.91,11.48-1.27,12.66c1.82,1.3,7.73-7.77,13.08-6.33c4.22,1.14,7.56,8.7,5.48,11.81c-0.27,0.41-0.58,0.66-0.84,0.84
		c-4.75,3.37-13.28-0.4-13.92,0.84c-0.79,1.55,12.44,7.14,11.81,12.23c-0.5,4-9.55,7.86-14.34,5.06
		C396.12,135.09,397.32,125.13,395.39,125.04z"/>
	<circle class="st4" cx="395.39" cy="118.29" r="4.43"/>
	<path class="st0" d="M447.71,80.95c-2.17-1.12-6.34-2.9-11.87-2.99c-6.61-0.11-11.34,2.26-12.29,2.75
		c-2.78,1.44-4.72,3.11-6.24,4.43c-2.44,2.13-4.23,4.2-5.45,5.8c1.05,1.02,2.63,2.47,4.67,4.05c1.53,1.19,5.72,4.32,9.12,5.77
		c8.11,3.45,21.2-0.66,25.14-9.36c1.19-2.62,1.33-5.19,1.21-7.13C450.58,83.15,449.15,82.05,447.71,80.95z"/>
	<path class="st3" d="M448.63,84.12c-2.18-0.11-2.16,12.6-7.59,14.34c-4.5,1.44-12.03-4.85-11.39-9.28
		c0.77-5.27,13.03-7.34,12.66-8.86c-0.38-1.53-12.39,2.38-15.61-2.11c-2.17-3.03-0.15-9.62,3.37-10.97
		c4.93-1.88,11.67,6.95,13.5,5.48c1.92-1.53-5.82-10.92-2.95-14.77c2.34-3.14,11.47-2.19,13.92,2.11
		c2.58,4.52-2.91,11.48-1.27,12.66c1.82,1.3,7.73-7.77,13.08-6.33c4.22,1.14,7.56,8.7,5.48,11.81c-0.27,0.41-0.58,0.66-0.84,0.84
		c-4.75,3.37-13.28-0.4-13.92,0.84c-0.79,1.55,12.44,7.14,11.81,12.23c-0.5,4-9.55,7.86-14.34,5.06
		C449.36,94.17,450.56,84.21,448.63,84.12z"/>
	<circle class="st4" cx="448.63" cy="77.37" r="4.43"/>
	<path class="st0" d="M447.71,170.39c-2.17-1.12-6.34-2.9-11.87-2.99c-6.61-0.11-11.34,2.26-12.29,2.75
		c-2.78,1.44-4.72,3.11-6.24,4.43c-2.44,2.13-4.23,4.2-5.45,5.8c1.05,1.02,2.63,2.47,4.67,4.05c1.53,1.19,5.72,4.32,9.12,5.77
		c8.11,3.45,21.2-0.66,25.14-9.36c1.19-2.62,1.33-5.19,1.21-7.13C450.58,172.59,449.15,171.49,447.71,170.39z"/>
	<path class="st3" d="M448.63,173.56c-2.18-0.11-2.16,12.6-7.59,14.34c-4.5,1.44-12.03-4.85-11.39-9.28
		c0.77-5.27,13.03-7.34,12.66-8.86c-0.38-1.53-12.39,2.38-15.61-2.11c-2.17-3.03-0.15-9.62,3.37-10.97
		c4.93-1.88,11.67,6.95,13.5,5.48c1.92-1.53-5.82-10.92-2.95-14.77c2.34-3.14,11.47-2.19,13.92,2.11
		c2.58,4.52-2.91,11.48-1.27,12.66c1.82,1.3,7.73-7.77,13.08-6.33c4.22,1.14,7.56,8.7,5.48,11.81c-0.27,0.41-0.58,0.66-0.84,0.84
		c-4.75,3.37-13.28-0.4-13.92,0.84c-0.79,1.55,12.44,7.14,11.81,12.23c-0.5,4-9.55,7.86-14.34,5.06
		C449.36,183.61,450.56,173.65,448.63,173.56z"/>
	<circle class="st4" cx="448.63" cy="166.81" r="4.43"/>
</g>
<g>
	<path class="st0" d="M939.87,76.11c-2.17-1.12-6.34-2.9-11.87-2.99c-6.61-0.11-11.34,2.26-12.29,2.75
		c-2.78,1.44-4.72,3.11-6.24,4.43c-2.44,2.13-4.23,4.2-5.45,5.8c1.05,1.02,2.63,2.47,4.67,4.05c1.53,1.19,5.72,4.32,9.12,5.77
		c8.11,3.45,21.2-0.66,25.14-9.36c1.19-2.62,1.33-5.19,1.21-7.13C942.74,78.32,941.3,77.22,939.87,76.11z"/>
	<g>
		<path class="st1" d="M1135.27,112.18c-2.18-0.11-2.16,12.6-7.59,14.34c-4.5,1.44-12.03-4.85-11.39-9.28
			c0.77-5.27,13.03-7.34,12.66-8.86c-0.38-1.53-12.39,2.38-15.61-2.11c-2.17-3.03-0.15-9.62,3.38-10.97
			c4.93-1.88,11.67,6.95,13.5,5.48c1.92-1.53-5.82-10.92-2.95-14.77c2.34-3.14,11.47-2.19,13.92,2.11
			c2.58,4.52-2.91,11.48-1.27,12.66c1.82,1.3,7.73-7.77,13.08-6.33c4.22,1.14,7.56,8.7,5.48,11.81c-0.27,0.41-0.58,0.66-0.84,0.84
			c-4.75,3.37-13.28-0.4-13.92,0.84c-0.79,1.55,12.44,7.14,11.81,12.23c-0.5,4-9.55,7.86-14.34,5.06
			C1136.01,122.24,1137.2,112.28,1135.27,112.18z"/>
		<circle class="st2" cx="1135.27" cy="105.43" r="4.43"/>
	</g>
	<g>
		<path class="st1" d="M1069.03,83.49c-2.18-0.11-2.16,12.6-7.59,14.34c-4.5,1.44-12.03-4.85-11.39-9.28
			c0.77-5.27,13.03-7.34,12.66-8.86c-0.38-1.53-12.39,2.38-15.61-2.11c-2.17-3.03-0.15-9.62,3.38-10.97
			c4.93-1.88,11.67,6.95,13.5,5.48c1.92-1.53-5.82-10.92-2.95-14.77c2.34-3.14,11.47-2.19,13.92,2.11
			c2.58,4.52-2.91,11.48-1.27,12.66c1.82,1.3,7.73-7.77,13.08-6.33c4.22,1.14,7.56,8.7,5.48,11.81c-0.27,0.41-0.58,0.66-0.84,0.84
			c-4.75,3.37-13.28-0.4-13.92,0.84c-0.79,1.55,12.44,7.14,11.81,12.23c-0.5,4-9.55,7.86-14.34,5.06
			C1069.77,93.55,1070.97,83.59,1069.03,83.49z"/>
		<circle class="st2" cx="1069.03" cy="76.74" r="4.43"/>
	</g>
	<g>
		<path class="st1" d="M1007.86,126.1c-2.18-0.11-2.16,12.6-7.59,14.34c-4.5,1.44-12.03-4.85-11.39-9.28
			c0.77-5.27,13.03-7.34,12.66-8.86c-0.38-1.53-12.39,2.38-15.61-2.11c-2.17-3.03-0.15-9.62,3.38-10.97
			c4.93-1.88,11.67,6.95,13.5,5.48c1.92-1.53-5.82-10.92-2.95-14.77c2.34-3.14,11.47-2.19,13.92,2.11
			c2.58,4.52-2.91,11.48-1.27,12.66c1.82,1.3,7.73-7.77,13.08-6.33c4.22,1.14,7.56,8.7,5.48,11.81c-0.27,0.41-0.58,0.66-0.84,0.84
			c-4.75,3.37-13.28-0.4-13.92,0.84c-0.79,1.55,12.44,7.14,11.81,12.23c-0.5,4-9.55,7.86-14.34,5.06
			C1008.6,136.16,1009.79,126.2,1007.86,126.1z"/>
		<circle class="st2" cx="1007.86" cy="119.35" r="4.43"/>
	</g>
	<g>
		<path class="st1" d="M1072.83,156.06c-2.17-0.11-2.16,12.6-7.59,14.34c-4.5,1.44-12.03-4.85-11.39-9.28
			c0.77-5.27,13.03-7.34,12.66-8.86c-0.38-1.53-12.39,2.38-15.61-2.11c-2.17-3.03-0.15-9.62,3.38-10.97
			c4.93-1.88,11.67,6.95,13.5,5.48c1.92-1.53-5.82-10.92-2.95-14.77c2.34-3.14,11.47-2.19,13.92,2.11
			c2.58,4.52-2.91,11.48-1.27,12.66c1.82,1.3,7.73-7.77,13.08-6.33c4.22,1.14,7.56,8.7,5.48,11.81c-0.27,0.41-0.58,0.66-0.84,0.84
			c-4.75,3.37-13.28-0.4-13.92,0.84c-0.79,1.55,12.44,7.14,11.81,12.23c-0.5,4-9.55,7.86-14.34,5.06
			C1073.57,166.11,1074.76,156.15,1072.83,156.06z"/>
		<circle class="st2" cx="1072.83" cy="149.31" r="4.43"/>
	</g>
	<g>
		<path class="st1" d="M1188.85,160.7c-2.18-0.11-2.16,12.6-7.59,14.34c-4.5,1.44-12.03-4.85-11.39-9.28
			c0.77-5.27,13.03-7.34,12.66-8.86c-0.38-1.53-12.39,2.38-15.61-2.11c-2.17-3.03-0.15-9.62,3.37-10.97
			c4.93-1.88,11.67,6.95,13.5,5.48c1.92-1.53-5.82-10.92-2.95-14.77c2.34-3.14,11.47-2.19,13.92,2.11
			c2.58,4.52-2.91,11.48-1.27,12.66c1.82,1.3,7.73-7.77,13.08-6.33c4.22,1.14,7.56,8.7,5.48,11.81c-0.27,0.41-0.58,0.66-0.84,0.84
			c-4.75,3.37-13.28-0.4-13.92,0.84c-0.79,1.55,12.44,7.14,11.81,12.23c-0.5,4-9.55,7.86-14.34,5.06
			C1189.59,170.75,1190.78,160.79,1188.85,160.7z"/>
		<circle class="st2" cx="1188.85" cy="153.95" r="4.43"/>
	</g>
	<g>
		<path class="st1" d="M1188.43,71.26c-2.18-0.11-2.16,12.6-7.59,14.34c-4.5,1.44-12.03-4.85-11.39-9.28
			c0.77-5.27,13.03-7.34,12.66-8.86c-0.38-1.53-12.39,2.38-15.61-2.11c-2.17-3.03-0.15-9.62,3.37-10.97
			c4.93-1.88,11.67,6.95,13.5,5.48c1.92-1.53-5.82-10.92-2.95-14.77c2.34-3.14,11.47-2.19,13.92,2.11
			c2.58,4.52-2.91,11.48-1.27,12.66c1.82,1.3,7.73-7.77,13.08-6.33c4.22,1.14,7.56,8.7,5.48,11.81c-0.27,0.41-0.58,0.66-0.84,0.84
			c-4.75,3.37-13.28-0.4-13.92,0.84c-0.79,1.55,12.44,7.14,11.81,12.23c-0.5,4-9.55,7.86-14.34,5.06
			C1189.16,81.32,1190.36,71.35,1188.43,71.26z"/>
		<circle class="st2" cx="1188.43" cy="64.51" r="4.43"/>
	</g>
	<g>
		<path class="st1" d="M942.89,160.7c-2.18-0.11-2.16,12.6-7.59,14.34c-4.5,1.44-12.03-4.85-11.39-9.28
			c0.77-5.27,13.03-7.34,12.66-8.86c-0.38-1.53-12.39,2.38-15.61-2.11c-2.17-3.03-0.15-9.62,3.38-10.97
			c4.93-1.88,11.67,6.95,13.5,5.48c1.92-1.53-5.82-10.92-2.95-14.77c2.34-3.14,11.47-2.19,13.92,2.11
			c2.58,4.52-2.91,11.48-1.27,12.66c1.82,1.3,7.73-7.77,13.08-6.33c4.22,1.14,7.56,8.7,5.48,11.81c-0.27,0.41-0.58,0.66-0.84,0.84
			c-4.75,3.37-13.28-0.4-13.92,0.84c-0.79,1.55,12.44,7.14,11.81,12.23c-0.5,4-9.55,7.86-14.34,5.06
			C943.63,170.75,944.83,160.79,942.89,160.7z"/>
		<circle class="st2" cx="942.89" cy="153.95" r="4.43"/>
	</g>
	<path class="st3" d="M940.79,79.28c-2.18-0.11-2.16,12.6-7.59,14.34c-4.5,1.44-12.03-4.85-11.39-9.28
		c0.77-5.27,13.03-7.34,12.66-8.86c-0.38-1.53-12.39,2.38-15.61-2.11c-2.17-3.03-0.15-9.62,3.37-10.97
		c4.93-1.88,11.67,6.95,13.5,5.48c1.92-1.53-5.82-10.92-2.95-14.77c2.34-3.14,11.47-2.19,13.92,2.11
		c2.58,4.52-2.91,11.48-1.27,12.66c1.82,1.3,7.73-7.77,13.08-6.33c4.22,1.14,7.56,8.7,5.48,11.81c-0.27,0.41-0.58,0.66-0.84,0.84
		c-4.75,3.37-13.28-0.4-13.92,0.84c-0.79,1.55,12.44,7.14,11.81,12.23c-0.5,4-9.55,7.86-14.34,5.06
		C941.52,89.33,942.72,79.37,940.79,79.28z"/>
	<circle class="st4" cx="940.79" cy="72.53" r="4.43"/>
	<path class="st0" d="M1006.94,122.93c-2.17-1.12-6.34-2.9-11.87-2.99c-6.61-0.11-11.34,2.26-12.29,2.75
		c-2.78,1.44-4.72,3.11-6.24,4.43c-2.44,2.13-4.23,4.2-5.45,5.8c1.05,1.02,2.63,2.47,4.67,4.05c1.53,1.19,5.72,4.32,9.12,5.77
		c8.11,3.45,21.2-0.66,25.14-9.36c1.19-2.62,1.33-5.19,1.21-7.13C1009.81,125.14,1008.37,124.04,1006.94,122.93z"/>
	<path class="st3" d="M1007.86,126.1c-2.18-0.11-2.16,12.6-7.59,14.34c-4.5,1.44-12.03-4.85-11.39-9.28
		c0.77-5.27,13.03-7.34,12.66-8.86c-0.38-1.53-12.39,2.38-15.61-2.11c-2.17-3.03-0.15-9.62,3.37-10.97
		c4.93-1.88,11.67,6.95,13.5,5.48c1.92-1.53-5.82-10.92-2.95-14.77c2.34-3.14,11.47-2.19,13.92,2.11
		c2.58,4.52-2.91,11.48-1.27,12.66c1.82,1.3,7.73-7.77,13.08-6.33c4.22,1.14,7.56,8.7,5.48,11.81c-0.27,0.41-0.58,0.66-0.84,0.84
		c-4.75,3.37-13.28-0.4-13.92,0.84c-0.79,1.55,12.44,7.14,11.81,12.23c-0.5,4-9.55,7.86-14.34,5.06
		C1008.59,136.15,1009.79,126.19,1007.86,126.1z"/>
	<circle class="st4" cx="1007.86" cy="119.35" r="4.43"/>
	<path class="st0" d="M941.97,157.53c-2.17-1.12-6.34-2.9-11.87-2.99c-6.61-0.11-11.34,2.26-12.29,2.75
		c-2.78,1.44-4.72,3.11-6.24,4.43c-2.44,2.13-4.23,4.2-5.45,5.8c1.05,1.02,2.63,2.47,4.67,4.05c1.53,1.19,5.72,4.32,9.12,5.77
		c8.11,3.45,21.2-0.66,25.14-9.36c1.19-2.62,1.33-5.19,1.21-7.13C944.84,159.74,943.4,158.64,941.97,157.53z"/>
	<path class="st3" d="M942.89,160.7c-2.18-0.11-2.16,12.6-7.59,14.34c-4.5,1.44-12.03-4.85-11.39-9.28
		c0.77-5.27,13.03-7.34,12.66-8.86c-0.38-1.53-12.39,2.38-15.61-2.11c-2.17-3.03-0.15-9.62,3.37-10.97
		c4.93-1.88,11.67,6.95,13.5,5.48c1.92-1.53-5.82-10.92-2.95-14.77c2.34-3.14,11.47-2.19,13.92,2.11
		c2.58,4.52-2.91,11.48-1.27,12.66c1.82,1.3,7.73-7.77,13.08-6.33c4.22,1.14,7.56,8.7,5.48,11.81c-0.27,0.41-0.58,0.66-0.84,0.84
		c-4.75,3.37-13.28-0.4-13.92,0.84c-0.79,1.55,12.44,7.14,11.81,12.23c-0.5,4-9.55,7.86-14.34,5.06
		C943.62,170.75,944.82,160.79,942.89,160.7z"/>
	<circle class="st4" cx="942.89" cy="154.3" r="4.43"/>
	<path class="st0" d="M1068.22,80.32c-2.17-1.12-6.34-2.9-11.87-2.99c-6.61-0.11-11.34,2.26-12.29,2.75
		c-2.78,1.44-4.72,3.11-6.24,4.43c-2.44,2.13-4.23,4.2-5.45,5.8c1.05,1.02,2.63,2.47,4.67,4.05c1.53,1.19,5.72,4.32,9.12,5.77
		c8.11,3.45,21.2-0.66,25.14-9.36c1.19-2.62,1.33-5.19,1.21-7.13C1071.08,82.53,1069.65,81.43,1068.22,80.32z"/>
	<path class="st3" d="M1069.13,83.49c-2.18-0.11-2.16,12.6-7.59,14.34c-4.5,1.44-12.03-4.85-11.39-9.28
		c0.77-5.27,13.03-7.34,12.66-8.86c-0.38-1.53-12.39,2.38-15.61-2.11c-2.17-3.03-0.15-9.62,3.37-10.97
		c4.93-1.88,11.67,6.95,13.5,5.48c1.92-1.53-5.82-10.92-2.95-14.77c2.34-3.14,11.47-2.19,13.92,2.11
		c2.58,4.52-2.91,11.48-1.27,12.66c1.82,1.3,7.73-7.77,13.08-6.33c4.22,1.14,7.56,8.7,5.48,11.81c-0.27,0.41-0.58,0.66-0.84,0.84
		c-4.75,3.37-13.28-0.4-13.92,0.84c-0.79,1.55,12.44,7.14,11.81,12.23c-0.5,4-9.55,7.86-14.34,5.06
		C1069.86,93.54,1071.06,83.58,1069.13,83.49z"/>
	<circle class="st4" cx="1069.13" cy="76.74" r="4.43"/>
	<path class="st0" d="M1071.92,152.89c-2.17-1.12-6.34-2.9-11.87-2.99c-6.61-0.11-11.34,2.26-12.29,2.75
		c-2.78,1.44-4.72,3.11-6.24,4.43c-2.44,2.13-4.23,4.2-5.45,5.8c1.05,1.02,2.63,2.47,4.67,4.05c1.53,1.19,5.72,4.32,9.12,5.77
		c8.11,3.45,21.2-0.66,25.14-9.36c1.19-2.62,1.33-5.19,1.21-7.13C1074.79,155.1,1073.35,154,1071.92,152.89z"/>
	<path class="st3" d="M1072.84,156.06c-2.18-0.11-2.16,12.6-7.59,14.34c-4.5,1.44-12.03-4.85-11.39-9.28
		c0.77-5.27,13.03-7.34,12.66-8.86c-0.38-1.53-12.39,2.38-15.61-2.11c-2.17-3.03-0.15-9.62,3.37-10.97
		c4.93-1.88,11.67,6.95,13.5,5.48c1.92-1.53-5.82-10.92-2.95-14.77c2.34-3.14,11.47-2.19,13.92,2.11
		c2.58,4.52-2.91,11.48-1.27,12.66c1.82,1.3,7.73-7.77,13.08-6.33c4.22,1.14,7.56,8.7,5.48,11.81c-0.27,0.41-0.58,0.66-0.84,0.84
		c-4.75,3.37-13.28-0.4-13.92,0.84c-0.79,1.55,12.44,7.14,11.81,12.23c-0.5,4-9.55,7.86-14.34,5.06
		C1073.57,166.11,1074.77,156.15,1072.84,156.06z"/>
	<circle class="st4" cx="1072.84" cy="149.31" r="4.43"/>
	<path class="st0" d="M1134.35,109.01c-2.17-1.12-6.34-2.9-11.87-2.99c-6.61-0.11-11.34,2.26-12.29,2.75
		c-2.78,1.44-4.72,3.11-6.24,4.43c-2.44,2.13-4.23,4.2-5.45,5.8c1.05,1.02,2.63,2.47,4.67,4.05c1.53,1.19,5.72,4.32,9.12,5.77
		c8.11,3.45,21.2-0.66,25.14-9.36c1.19-2.62,1.33-5.19,1.21-7.13C1137.22,111.22,1135.78,110.12,1134.35,109.01z"/>
	<path class="st3" d="M1135.27,112.18c-2.18-0.11-2.16,12.6-7.59,14.34c-4.5,1.44-12.03-4.85-11.39-9.28
		c0.77-5.27,13.03-7.34,12.66-8.86c-0.38-1.53-12.39,2.38-15.61-2.11c-2.17-3.03-0.15-9.62,3.37-10.97
		c4.93-1.88,11.67,6.95,13.5,5.48c1.92-1.53-5.82-10.92-2.95-14.77c2.34-3.14,11.47-2.19,13.92,2.11
		c2.58,4.52-2.91,11.48-1.27,12.66c1.82,1.3,7.73-7.77,13.08-6.33c4.22,1.14,7.56,8.7,5.48,11.81c-0.27,0.41-0.58,0.66-0.84,0.84
		c-4.75,3.37-13.28-0.4-13.92,0.84c-0.79,1.55,12.44,7.14,11.81,12.23c-0.5,4-9.55,7.86-14.34,5.06
		C1136,122.23,1137.2,112.27,1135.27,112.18z"/>
	<circle class="st4" cx="1135.27" cy="105.43" r="4.43"/>
	<path class="st0" d="M1187.58,68.09c-2.17-1.12-6.34-2.9-11.87-2.99c-6.61-0.11-11.34,2.26-12.29,2.75
		c-2.78,1.44-4.72,3.11-6.24,4.43c-2.44,2.13-4.23,4.2-5.45,5.8c1.05,1.02,2.63,2.47,4.67,4.05c1.53,1.19,5.72,4.32,9.12,5.77
		c8.11,3.45,21.2-0.66,25.14-9.36c1.19-2.62,1.33-5.19,1.21-7.13C1190.45,70.3,1189.02,69.2,1187.58,68.09z"/>
	<path class="st3" d="M1188.5,71.26c-2.18-0.11-2.16,12.6-7.59,14.34c-4.5,1.44-12.03-4.85-11.39-9.28
		c0.77-5.27,13.03-7.34,12.66-8.86c-0.38-1.53-12.39,2.38-15.61-2.11c-2.17-3.03-0.15-9.62,3.37-10.97
		c4.93-1.88,11.67,6.95,13.5,5.48c1.92-1.53-5.82-10.92-2.95-14.77c2.34-3.14,11.47-2.19,13.92,2.11
		c2.58,4.52-2.91,11.48-1.27,12.66c1.82,1.3,7.73-7.77,13.08-6.33c4.22,1.14,7.56,8.7,5.48,11.81c-0.27,0.41-0.58,0.66-0.84,0.84
		c-4.75,3.37-13.28-0.4-13.92,0.84c-0.79,1.55,12.44,7.14,11.81,12.23c-0.5,4-9.55,7.86-14.34,5.06
		C1189.23,81.31,1190.43,71.35,1188.5,71.26z"/>
	<circle class="st4" cx="1188.5" cy="64.51" r="4.43"/>
	<path class="st0" d="M1187.58,157.53c-2.17-1.12-6.34-2.9-11.87-2.99c-6.61-0.11-11.34,2.26-12.29,2.75
		c-2.78,1.44-4.72,3.11-6.24,4.43c-2.44,2.13-4.23,4.2-5.45,5.8c1.05,1.02,2.63,2.47,4.67,4.05c1.53,1.19,5.72,4.32,9.12,5.77
		c8.11,3.45,21.2-0.66,25.14-9.36c1.19-2.62,1.33-5.19,1.21-7.13C1190.45,159.74,1189.02,158.64,1187.58,157.53z"/>
	<path class="st3" d="M1188.5,160.7c-2.18-0.11-2.16,12.6-7.59,14.34c-4.5,1.44-12.03-4.85-11.39-9.28
		c0.77-5.27,13.03-7.34,12.66-8.86c-0.38-1.53-12.39,2.38-15.61-2.11c-2.17-3.03-0.15-9.62,3.37-10.97
		c4.93-1.88,11.67,6.95,13.5,5.48c1.92-1.53-5.82-10.92-2.95-14.77c2.34-3.14,11.47-2.19,13.92,2.11
		c2.58,4.52-2.91,11.48-1.27,12.66c1.82,1.3,7.73-7.77,13.08-6.33c4.22,1.14,7.56,8.7,5.48,11.81c-0.27,0.41-0.58,0.66-0.84,0.84
		c-4.75,3.37-13.28-0.4-13.92,0.84c-0.79,1.55,12.44,7.14,11.81,12.23c-0.5,4-9.55,7.86-14.34,5.06
		C1189.23,170.75,1190.43,160.79,1188.5,160.7z"/>
	<circle class="st4" cx="1188.5" cy="153.95" r="4.43"/>
</g>
</svg>
