<?xml version="1.0" encoding="utf-8"?>
<!-- Generator: Adobe Illustrator 23.0.6, SVG Export Plug-In . SVG Version: 6.00 Build 0)  -->
<svg version="1.1" id="Layer_1" xmlns="http://www.w3.org/2000/svg" xmlns:xlink="http://www.w3.org/1999/xlink" x="0px" y="0px"
	 viewBox="0 0 1391 237" style="enable-background:new 0 0 1391 237;" xml:space="preserve">
<style type="text/css">
	.st0{fill:none;stroke:#DDC399;stroke-width:3;stroke-miterlimit:10;}
</style>
<path class="st0" d="M584.98,71.22c-2.17-1.12-6.34-2.9-11.87-2.99c-6.61-0.11-11.34,2.26-12.29,2.75
	c-2.78,1.44-4.72,3.11-6.24,4.43c-2.44,2.13-4.23,4.2-5.45,5.8c1.05,1.02,2.63,2.47,4.67,4.05c1.53,1.19,5.72,4.32,9.12,5.77
	c8.11,3.45,21.2-0.66,25.14-9.36c1.19-2.62,1.33-5.19,1.21-7.13C587.85,73.43,586.42,72.32,584.98,71.22z"/>
<path class="st0" d="M652.05,118.04c-2.17-1.12-6.34-2.9-11.87-2.99c-6.61-0.11-11.34,2.26-12.29,2.75
	c-2.78,1.44-4.72,3.11-6.24,4.43c-2.44,2.13-4.23,4.2-5.45,5.8c1.05,1.02,2.63,2.47,4.67,4.05c1.53,1.19,5.72,4.32,9.12,5.77
	c8.11,3.45,21.2-0.66,25.14-9.36c1.19-2.62,1.33-5.19,1.21-7.13C654.92,120.25,653.49,119.14,652.05,118.04z"/>
<path class="st0" d="M587.08,152.64c-2.17-1.12-6.34-2.9-11.87-2.99c-6.61-0.11-11.34,2.26-12.29,2.75
	c-2.78,1.44-4.72,3.11-6.24,4.43c-2.44,2.13-4.23,4.2-5.45,5.8c1.05,1.02,2.63,2.47,4.67,4.05c1.53,1.19,5.72,4.32,9.12,5.77
	c8.11,3.45,21.2-0.66,25.14-9.36c1.19-2.62,1.33-5.19,1.21-7.13C589.95,154.85,588.52,153.74,587.08,152.64z"/>
<path class="st0" d="M713.33,75.43c-2.17-1.12-6.34-2.9-11.87-2.99c-6.61-0.11-11.34,2.26-12.29,2.75
	c-2.78,1.44-4.72,3.11-6.24,4.43c-2.44,2.13-4.23,4.2-5.45,5.8c1.05,1.02,2.63,2.47,4.67,4.05c1.53,1.19,5.72,4.32,9.12,5.77
	c8.11,3.45,21.2-0.66,25.14-9.36c1.19-2.62,1.33-5.19,1.21-7.13C716.2,77.64,714.77,76.53,713.33,75.43z"/>
<path class="st0" d="M717.03,148c-2.17-1.12-6.34-2.9-11.87-2.99c-6.61-0.11-11.34,2.26-12.29,2.75c-2.78,1.44-4.72,3.11-6.24,4.43
	c-2.44,2.13-4.23,4.2-5.45,5.8c1.05,1.02,2.63,2.47,4.67,4.05c1.53,1.19,5.72,4.32,9.12,5.77c8.11,3.45,21.2-0.66,25.14-9.36
	c1.19-2.62,1.33-5.19,1.21-7.13C719.9,150.21,718.47,149.1,717.03,148z"/>
<path class="st0" d="M779.46,104.12c-2.17-1.12-6.34-2.9-11.87-2.99c-6.61-0.11-11.34,2.26-12.29,2.75
	c-2.78,1.44-4.72,3.11-6.24,4.43c-2.44,2.13-4.23,4.2-5.45,5.8c1.05,1.02,2.63,2.47,4.67,4.05c1.53,1.19,5.72,4.32,9.12,5.77
	c8.11,3.45,21.2-0.66,25.14-9.36c1.19-2.62,1.33-5.19,1.21-7.13C782.33,106.33,780.9,105.22,779.46,104.12z"/>
<path class="st0" d="M832.7,63.2c-2.17-1.12-6.34-2.9-11.87-2.99c-6.61-0.11-11.34,2.26-12.29,2.75c-2.78,1.44-4.72,3.11-6.24,4.43
	c-2.44,2.13-4.23,4.2-5.45,5.8c1.05,1.02,2.63,2.47,4.67,4.05c1.53,1.19,5.72,4.32,9.12,5.77c8.11,3.45,21.2-0.66,25.14-9.36
	c1.19-2.62,1.33-5.19,1.21-7.13C835.56,65.41,834.13,64.3,832.7,63.2z"/>
<path class="st0" d="M832.7,152.64c-2.17-1.12-6.34-2.9-11.87-2.99c-6.61-0.11-11.34,2.26-12.29,2.75
	c-2.78,1.44-4.72,3.11-6.24,4.43c-2.44,2.13-4.23,4.2-5.45,5.8c1.05,1.02,2.63,2.47,4.67,4.05c1.53,1.19,5.72,4.32,9.12,5.77
	c8.11,3.45,21.2-0.66,25.14-9.36c1.19-2.62,1.33-5.19,1.21-7.13C835.56,154.85,834.13,153.74,832.7,152.64z"/>
<path class="st0" d="M215.05,75.24c-2.17-1.12-6.34-2.9-11.87-2.99c-6.61-0.11-11.34,2.26-12.29,2.75
	c-2.78,1.44-4.72,3.11-6.24,4.43c-2.44,2.13-4.23,4.2-5.45,5.8c1.05,1.02,2.63,2.47,4.67,4.05c1.53,1.19,5.72,4.32,9.12,5.77
	c8.11,3.45,21.2-0.66,25.14-9.36c1.19-2.62,1.33-5.19,1.21-7.13C217.91,77.45,216.48,76.35,215.05,75.24z"/>
<path class="st0" d="M282.12,122.06c-2.17-1.12-6.34-2.9-11.87-2.99c-6.61-0.11-11.34,2.26-12.29,2.75
	c-2.78,1.44-4.72,3.11-6.24,4.43c-2.44,2.13-4.23,4.2-5.45,5.8c1.05,1.02,2.63,2.47,4.67,4.05c1.53,1.19,5.72,4.32,9.12,5.77
	c8.11,3.45,21.2-0.66,25.14-9.36c1.19-2.62,1.33-5.19,1.21-7.13C284.98,124.27,283.55,123.17,282.12,122.06z"/>
<path class="st0" d="M217.15,156.66c-2.17-1.12-6.34-2.9-11.87-2.99c-6.61-0.11-11.34,2.26-12.29,2.75
	c-2.78,1.44-4.72,3.11-6.24,4.43c-2.44,2.13-4.23,4.2-5.45,5.8c1.05,1.02,2.63,2.47,4.67,4.05c1.53,1.19,5.72,4.32,9.12,5.77
	c8.11,3.45,21.2-0.66,25.14-9.36c1.19-2.62,1.33-5.19,1.21-7.13C220.01,158.87,218.58,157.77,217.15,156.66z"/>
<path class="st0" d="M343.4,79.45c-2.17-1.12-6.34-2.9-11.87-2.99c-6.61-0.11-11.34,2.26-12.29,2.75c-2.78,1.44-4.72,3.11-6.24,4.43
	c-2.44,2.13-4.23,4.2-5.45,5.8c1.05,1.02,2.63,2.47,4.67,4.05c1.53,1.19,5.72,4.32,9.12,5.77c8.11,3.45,21.2-0.66,25.14-9.36
	c1.19-2.62,1.33-5.19,1.21-7.13C346.26,81.66,344.83,80.56,343.4,79.45z"/>
<path class="st0" d="M347.1,152.02c-2.17-1.12-6.34-2.9-11.87-2.99c-6.61-0.11-11.34,2.26-12.29,2.75
	c-2.78,1.44-4.72,3.11-6.24,4.43c-2.44,2.13-4.23,4.2-5.45,5.8c1.05,1.02,2.63,2.47,4.67,4.05c1.53,1.19,5.72,4.32,9.12,5.77
	c8.11,3.45,21.2-0.66,25.14-9.36c1.19-2.62,1.33-5.19,1.21-7.13C349.96,154.23,348.53,153.13,347.1,152.02z"/>
<path class="st0" d="M409.53,108.14c-2.17-1.12-6.34-2.9-11.87-2.99c-6.61-0.11-11.34,2.26-12.29,2.75
	c-2.78,1.44-4.72,3.11-6.24,4.43c-2.44,2.13-4.23,4.2-5.45,5.8c1.05,1.02,2.63,2.47,4.67,4.05c1.53,1.19,5.72,4.32,9.12,5.77
	c8.11,3.45,21.2-0.66,25.14-9.36c1.19-2.62,1.33-5.19,1.21-7.13C412.39,110.35,410.96,109.25,409.53,108.14z"/>
<path class="st0" d="M462.76,67.22c-2.17-1.12-6.34-2.9-11.87-2.99c-6.61-0.11-11.34,2.26-12.29,2.75
	c-2.78,1.44-4.72,3.11-6.24,4.43c-2.44,2.13-4.23,4.2-5.45,5.8c1.05,1.02,2.63,2.47,4.67,4.05c1.53,1.19,5.72,4.32,9.12,5.77
	c8.11,3.45,21.2-0.66,25.14-9.36c1.19-2.62,1.33-5.19,1.21-7.13C465.63,69.43,464.19,68.33,462.76,67.22z"/>
<path class="st0" d="M462.76,156.66c-2.17-1.12-6.34-2.9-11.87-2.99c-6.61-0.11-11.34,2.26-12.29,2.75
	c-2.78,1.44-4.72,3.11-6.24,4.43c-2.44,2.13-4.23,4.2-5.45,5.8c1.05,1.02,2.63,2.47,4.67,4.05c1.53,1.19,5.72,4.32,9.12,5.77
	c8.11,3.45,21.2-0.66,25.14-9.36c1.19-2.62,1.33-5.19,1.21-7.13C465.63,158.87,464.19,157.77,462.76,156.66z"/>
<path class="st0" d="M954.92,62.39c-2.17-1.12-6.34-2.9-11.87-2.99c-6.61-0.11-11.34,2.26-12.29,2.75
	c-2.78,1.44-4.72,3.11-6.24,4.43c-2.44,2.13-4.23,4.2-5.45,5.8c1.05,1.02,2.63,2.47,4.67,4.05c1.53,1.19,5.72,4.32,9.12,5.77
	c8.11,3.45,21.2-0.66,25.14-9.36c1.19-2.62,1.33-5.19,1.21-7.13C957.79,64.6,956.35,63.49,954.92,62.39z"/>
<path class="st0" d="M1021.99,109.21c-2.17-1.12-6.34-2.9-11.87-2.99c-6.61-0.11-11.34,2.26-12.29,2.75
	c-2.78,1.44-4.72,3.11-6.24,4.43c-2.44,2.13-4.23,4.2-5.45,5.8c1.05,1.02,2.63,2.47,4.67,4.05c1.53,1.19,5.72,4.32,9.12,5.77
	c8.11,3.45,21.2-0.66,25.14-9.36c1.19-2.62,1.33-5.19,1.21-7.13C1024.86,111.42,1023.42,110.31,1021.99,109.21z"/>
<path class="st0" d="M957.02,143.81c-2.17-1.12-6.34-2.9-11.87-2.99c-6.61-0.11-11.34,2.26-12.29,2.75
	c-2.78,1.44-4.72,3.11-6.24,4.43c-2.44,2.13-4.23,4.2-5.45,5.8c1.05,1.02,2.63,2.47,4.67,4.05c1.53,1.19,5.72,4.32,9.12,5.77
	c8.11,3.45,21.2-0.66,25.14-9.36c1.19-2.62,1.33-5.19,1.21-7.13C959.89,146.02,958.45,144.91,957.02,143.81z"/>
<path class="st0" d="M1083.27,66.6c-2.17-1.12-6.34-2.9-11.87-2.99c-6.61-0.11-11.34,2.26-12.29,2.75
	c-2.78,1.44-4.72,3.11-6.24,4.43c-2.44,2.13-4.23,4.2-5.45,5.8c1.05,1.02,2.63,2.47,4.67,4.05c1.53,1.19,5.72,4.32,9.12,5.77
	c8.11,3.45,21.2-0.66,25.14-9.36c1.19-2.62,1.33-5.19,1.21-7.13C1086.13,68.81,1084.7,67.7,1083.27,66.6z"/>
<path class="st0" d="M1086.97,139.17c-2.17-1.12-6.34-2.9-11.87-2.99c-6.61-0.11-11.34,2.26-12.29,2.75
	c-2.78,1.44-4.72,3.11-6.24,4.43c-2.44,2.13-4.23,4.2-5.45,5.8c1.05,1.02,2.63,2.47,4.67,4.05c1.53,1.19,5.72,4.32,9.12,5.77
	c8.11,3.45,21.2-0.66,25.14-9.36c1.19-2.62,1.33-5.19,1.21-7.13C1089.84,141.38,1088.4,140.27,1086.97,139.17z"/>
<path class="st0" d="M1149.4,95.29c-2.17-1.12-6.34-2.9-11.87-2.99c-6.61-0.11-11.34,2.26-12.29,2.75
	c-2.78,1.44-4.72,3.11-6.24,4.43c-2.44,2.13-4.23,4.2-5.45,5.8c1.05,1.02,2.63,2.47,4.67,4.05c1.53,1.19,5.72,4.32,9.12,5.77
	c8.11,3.45,21.2-0.66,25.14-9.36c1.19-2.62,1.33-5.19,1.21-7.13C1152.27,97.5,1150.83,96.39,1149.4,95.29z"/>
<path class="st0" d="M1202.63,54.37c-2.17-1.12-6.34-2.9-11.87-2.99c-6.61-0.11-11.34,2.26-12.29,2.75
	c-2.78,1.44-4.72,3.11-6.24,4.43c-2.44,2.13-4.23,4.2-5.45,5.8c1.05,1.02,2.63,2.47,4.67,4.05c1.53,1.19,5.72,4.32,9.12,5.77
	c8.11,3.45,21.2-0.66,25.14-9.36c1.19-2.62,1.33-5.19,1.21-7.13C1205.5,56.58,1204.07,55.47,1202.63,54.37z"/>
<path class="st0" d="M1202.63,143.81c-2.17-1.12-6.34-2.9-11.87-2.99c-6.61-0.11-11.34,2.26-12.29,2.75
	c-2.78,1.44-4.72,3.11-6.24,4.43c-2.44,2.13-4.23,4.2-5.45,5.8c1.05,1.02,2.63,2.47,4.67,4.05c1.53,1.19,5.72,4.32,9.12,5.77
	c8.11,3.45,21.2-0.66,25.14-9.36c1.19-2.62,1.33-5.19,1.21-7.13C1205.5,146.02,1204.07,144.91,1202.63,143.81z"/>
</svg>
