<?xml version="1.0" encoding="utf-8"?>
<!-- Generator: Adobe Illustrator 23.0.6, SVG Export Plug-In . SVG Version: 6.00 Build 0)  -->
<svg version="1.1" id="Layer_1" xmlns="http://www.w3.org/2000/svg" xmlns:xlink="http://www.w3.org/1999/xlink" x="0px" y="0px"
	 viewBox="0 0 1390.7 548.1" style="enable-background:new 0 0 1390.7 548.1;" xml:space="preserve">
<style type="text/css">
	.st0{fill:#CCA048;}
	.st1{fill:#DDC399;}
	.st2{fill:#C17D49;}
	.st3{fill:#DDC02F;}
	.st4{fill:#BCA782;}
</style>
<path class="st0" d="M173.2,53.2c-10.5-5.4-30.6-14-57.3-14.4C83.9,38.2,61.1,49.7,56.5,52c-13.4,7-22.8,15-30.1,21.4
	C14.5,83.7,5.9,93.7,0,101.5c5.1,4.9,12.7,11.9,22.6,19.6c7.4,5.7,27.6,20.9,44.1,27.9c39.2,16.7,102.4-3.2,121.4-45.2
	c5.7-12.7,6.4-25.1,5.8-34.4C187,63.9,180.1,58.6,173.2,53.2z"/>
<path class="st1" d="M497.2,279.4c-10.5-5.4-30.6-14-57.3-14.4c-31.9-0.5-54.8,10.9-59.4,13.3c-13.4,7-22.8,15-30.1,21.4
	c-11.8,10.3-20.4,20.3-26.3,28c5.1,4.9,12.7,11.9,22.6,19.6c7.4,5.7,27.6,20.9,44.1,27.9c39.2,16.7,102.4-3.2,121.4-45.2
	c5.7-12.7,6.4-25.1,5.8-34.4C511,290,504.1,284.7,497.2,279.4z"/>
<path class="st2" d="M183.3,446.5c-10.5-5.4-30.6-14-57.3-14.4c-31.9-0.5-54.8,10.9-59.4,13.3c-13.4,7-22.8,15-30.1,21.4
	C24.7,477,16,487,10.1,494.8c5.1,4.9,12.7,11.9,22.6,19.6c7.4,5.7,27.6,20.9,44.1,27.9c39.2,16.7,102.4-3.2,121.4-45.2
	c5.7-12.7,6.4-25.1,5.8-34.4C197.2,457.2,190.3,451.9,183.3,446.5z"/>
<path class="st3" d="M793.2,73.5c-10.5-5.4-30.6-14-57.3-14.4c-31.9-0.5-54.8,10.9-59.4,13.3c-13.4,7-22.8,15-30.1,21.4
	c-11.8,10.3-20.4,20.3-26.3,28c5.1,4.9,12.7,11.9,22.6,19.6c7.4,5.7,27.6,20.9,44.1,27.9C725.8,185.9,789,166,808.1,124
	c5.7-12.7,6.4-25.1,5.8-34.4C807.1,84.2,800.1,78.9,793.2,73.5z"/>
<path class="st4" d="M811.1,424.1c-10.5-5.4-30.6-14-57.3-14.4c-31.9-0.5-54.8,10.9-59.4,13.3c-13.4,7-22.8,15-30.1,21.4
	c-11.8,10.3-20.4,20.3-26.3,28c5.1,4.9,12.7,11.9,22.6,19.6c7.4,5.7,27.6,20.9,44.1,27.9c39.2,16.7,102.4-3.2,121.4-45.2
	c5.7-12.7,6.4-25.1,5.8-34.4C824.9,434.8,818,429.5,811.1,424.1z"/>
<path class="st1" d="M1112.6,212.1c-10.5-5.4-30.6-14-57.3-14.4c-31.9-0.5-54.8,10.9-59.4,13.3c-13.4,7-22.8,15-30.1,21.4
	c-11.8,10.3-20.4,20.3-26.3,28c5.1,4.9,12.7,11.9,22.6,19.6c7.4,5.7,27.6,20.9,44.1,27.9c39.2,16.7,102.4-3.2,121.4-45.2
	c5.7-12.7,6.4-25.1,5.8-34.4C1126.5,222.8,1119.6,217.5,1112.6,212.1z"/>
<path class="st0" d="M1369.8,14.5c-10.5-5.4-30.6-14-57.3-14.4c-31.9-0.5-54.8,10.9-59.4,13.3c-13.4,7-22.8,15-30.1,21.4
	c-11.8,10.3-20.4,20.3-26.3,28c5.1,4.9,12.7,11.9,22.6,19.6c7.4,5.7,27.6,20.9,44.1,27.9c39.2,16.7,102.4-3.2,121.4-45.2
	c5.7-12.7,6.4-25.1,5.8-34.4C1383.6,25.1,1376.7,19.8,1369.8,14.5z"/>
<path class="st2" d="M1369.8,446.5c-10.5-5.4-30.6-14-57.3-14.4c-31.9-0.5-54.8,10.9-59.4,13.3c-13.4,7-22.8,15-30.1,21.4
	c-11.8,10.3-20.4,20.3-26.3,28c5.1,4.9,12.7,11.9,22.6,19.6c7.4,5.7,27.6,20.9,44.1,27.9c39.2,16.7,102.4-3.2,121.4-45.2
	c5.7-12.7,6.4-25.1,5.8-34.4C1383.6,457.2,1376.7,451.9,1369.8,446.5z"/>
</svg>
