<?xml version="1.0" encoding="utf-8"?>
<!-- Generator: Adobe Illustrator 23.0.6, SVG Export Plug-In . SVG Version: 6.00 Build 0)  -->
<svg version="1.1" id="Layer_1" xmlns="http://www.w3.org/2000/svg" xmlns:xlink="http://www.w3.org/1999/xlink" x="0px" y="0px"
	 viewBox="0 0 1398.3 626.3" style="enable-background:new 0 0 1398.3 626.3;" xml:space="preserve">
<style type="text/css">
	.st0{fill:#EAADAD;}
	.st1{fill:#FCFCFC;}
</style>
<g>
	<g>
		<path class="st0" d="M1031,327.1c-10.3-0.5-10.2,59.8-36,68c-21.3,6.8-57.1-23-54-44c3.7-25,61.8-34.8,60.1-42
			c-1.8-7.3-58.8,11.3-74.1-10c-10.3-14.4-0.7-45.6,16-52c23.4-8.9,55.4,33,64,26c9.1-7.3-27.6-51.8-14-70.1
			c11.1-14.9,54.4-10.4,66,10c12.2,21.4-13.8,54.5-6,60.1c8.6,6.2,36.7-36.9,62.1-30c20,5.4,35.9,41.3,26,56c-1.3,1.9-2.8,3.1-4,4
			c-22.5,16-63-1.9-66,4c-3.7,7.4,59,33.9,56,58c-2.4,19-45.3,37.3-68,24C1034.5,374.8,1040.1,327.6,1031,327.1z"/>
		<circle class="st1" cx="1031" cy="295.1" r="21"/>
	</g>
	<g>
		<path class="st0" d="M716.8,191c-10.3-0.5-10.2,59.8-36,68c-21.3,6.8-57.1-23-54-44c3.7-25,61.8-34.8,60.1-42
			c-1.8-7.3-58.8,11.3-74.1-10c-10.3-14.4-0.7-45.6,16-52c23.4-8.9,55.4,33,64,26c9.1-7.3-27.6-51.8-14-70.1
			c11.1-14.9,54.4-10.4,66,10c12.2,21.4-13.8,54.5-6,60.1c8.6,6.2,36.7-36.9,62.1-30c20,5.4,35.9,41.3,26,56c-1.3,1.9-2.8,3.1-4,4
			c-22.5,16-63-1.9-66,4c-3.7,7.4,59,33.9,56,58c-2.4,19-45.3,37.3-68,24C720.3,238.7,725.9,191.4,716.8,191z"/>
		<circle class="st1" cx="716.8" cy="158.9" r="21"/>
	</g>
	<g>
		<path class="st0" d="M426.5,393.1c-10.3-0.5-10.2,59.8-36,68c-21.3,6.8-57.1-23-54-44c3.7-25,61.8-34.8,60.1-42
			c-1.8-7.3-58.8,11.3-74.1-10c-10.3-14.4-0.7-45.6,16-52c23.4-8.9,55.4,33,64,26c9.1-7.3-27.6-51.8-14-70.1
			c11.1-14.9,54.4-10.4,66,10c12.2,21.4-13.8,54.5-6,60.1c8.6,6.2,36.7-36.9,62.1-30c20,5.4,35.9,41.3,26,56c-1.3,1.9-2.8,3.1-4,4
			c-22.5,16-63-1.9-66,4c-3.7,7.4,59,33.9,56,58c-2.4,19-45.3,37.3-68,24C430.1,440.8,435.7,393.6,426.5,393.1z"/>
		<circle class="st1" cx="426.5" cy="361.1" r="21"/>
	</g>
	<g>
		<path class="st0" d="M734.7,535.3c-10.3-0.5-10.2,59.8-36,68c-21.3,6.8-57.1-23-54-44c3.7-25,61.8-34.8,60.1-42
			c-1.8-7.3-58.8,11.3-74.1-10c-10.3-14.4-0.7-45.6,16-52c23.4-8.9,55.4,33,64,26c9.1-7.3-27.6-51.8-14-70.1
			c11.1-14.9,54.4-10.4,66,10c12.2,21.4-13.8,54.5-6,60.1c8.6,6.2,36.7-36.9,62.1-30c20,5.4,35.9,41.3,26,56c-1.3,1.9-2.8,3.1-4,4
			c-22.5,16-63-1.9-66,4c-3.7,7.4,59,33.9,56,58c-2.4,19-45.3,37.3-68,24C738.2,582.9,743.9,535.7,734.7,535.3z"/>
		<circle class="st1" cx="734.7" cy="503.2" r="21"/>
	</g>
	<g>
		<path class="st0" d="M1285.2,557.3c-10.3-0.5-10.2,59.8-36,68c-21.3,6.8-57.1-23-54-44c3.7-25,61.8-34.8,60.1-42
			c-1.8-7.3-58.8,11.3-74.1-10c-10.3-14.4-0.7-45.6,16-52c23.4-8.9,55.4,33,64,26c9.1-7.3-27.6-51.8-14-70.1
			c11.1-14.9,54.4-10.4,66,10c12.2,21.4-13.8,54.5-6,60.1c8.6,6.2,36.7-36.9,62.1-30c20,5.4,35.9,41.3,26,56c-1.3,1.9-2.8,3.1-4,4
			c-22.5,16-63-1.9-66,4c-3.7,7.4,59,33.9,56,58c-2.4,19-45.3,37.3-68,24C1288.7,605,1294.3,557.7,1285.2,557.3z"/>
		<circle class="st1" cx="1285.2" cy="525.3" r="21"/>
	</g>
	<g>
		<path class="st0" d="M1283.2,132.9c-10.3-0.5-10.2,59.8-36,68c-21.3,6.8-57.1-23-54-44c3.7-25,61.8-34.8,60.1-42
			c-1.8-7.3-58.8,11.3-74.1-10c-10.3-14.4-0.7-45.6,16-52c23.4-8.9,55.4,33,64,26c9.1-7.3-27.6-51.8-14-70.1
			c11.1-14.9,54.4-10.4,66,10c12.2,21.4-13.8,54.5-6,60.1c8.6,6.2,36.7-36.9,62.1-30c20,5.4,35.9,41.3,26,56c-1.3,1.9-2.8,3.1-4,4
			c-22.5,16-63-1.9-66,4c-3.7,7.4,59,33.9,56,58c-2.4,19-45.3,37.3-68,24C1286.7,180.7,1292.3,133.4,1283.2,132.9z"/>
		<circle class="st1" cx="1283.2" cy="100.9" r="21"/>
	</g>
	<g>
		<path class="st0" d="M118.3,557.3c-10.3-0.5-10.2,59.8-36,68c-21.3,6.8-57.1-23-54-44c3.7-25,61.8-34.8,60.1-42
			c-1.8-7.3-58.8,11.3-74.1-10c-10.3-14.4-0.7-45.6,16-52c23.4-8.9,55.4,33,64,26c9.1-7.3-27.6-51.8-14-70.1
			c11.1-14.9,54.4-10.4,66,10c12.2,21.4-13.8,54.5-6,60.1c8.6,6.2,36.7-36.9,62.1-30c20,5.4,35.9,41.3,26,56c-1.3,1.9-2.8,3.1-4,4
			c-22.5,16-63-1.9-66,4c-3.7,7.4,59,33.9,56,58c-2.4,19-45.3,37.3-68,24C121.8,605,127.5,557.7,118.3,557.3z"/>
		<circle class="st1" cx="118.3" cy="525.3" r="21"/>
	</g>
	<g>
		<path class="st0" d="M108.3,170.9c-10.3-0.5-10.2,59.8-36,68c-21.3,6.8-57.1-23-54-44c3.7-25,61.8-34.8,60.1-42
			c-1.8-7.3-58.8,11.3-74.1-10c-10.3-14.4-0.7-45.6,16-52c23.4-8.9,55.4,33,64,26c9.1-7.3-27.6-51.8-14-70.1
			c11.1-14.9,54.4-10.4,66,10c12.2,21.4-13.8,54.5-6,60.1c8.6,6.2,36.7-36.9,62.1-30c20,5.4,35.9,41.3,26,56c-1.3,1.9-2.8,3.1-4,4
			c-22.5,16-63-1.9-66,4c-3.7,7.4,59,33.9,56,58c-2.4,19-45.3,37.3-68,24C111.8,218.7,117.5,171.4,108.3,170.9z"/>
		<circle class="st1" cx="108.3" cy="138.9" r="21"/>
	</g>
</g>
</svg>
