<?xml version="1.0" encoding="utf-8"?>
<!-- Generator: Adobe Illustrator 23.0.6, SVG Export Plug-In . SVG Version: 6.00 Build 0)  -->
<svg version="1.1" id="Layer_1" xmlns="http://www.w3.org/2000/svg" xmlns:xlink="http://www.w3.org/1999/xlink" x="0px" y="0px"
	 viewBox="0 0 1389.7 609.3" style="enable-background:new 0 0 1389.7 609.3;" xml:space="preserve">
<style type="text/css">
	.st0{fill:#56915A;}
	.st1{fill:#EAADAD;}
	.st2{fill:#FCFCFC;}
	.st3{fill:#E25A5A;}
	.st4{fill:#F9B928;}
</style>
<g>
	<path class="st0" d="M161.4,148c-9.8-5-28.5-13.1-53.4-13.5c-29.8-0.5-51.1,10.2-55.3,12.4c-12.5,6.5-21.3,14-28.1,19.9
		c-11,9.6-19,18.9-24.5,26.1c4.7,4.6,11.8,11.1,21,18.2c6.9,5.4,25.8,19.5,41.1,26c36.5,15.5,95.5-3,113.2-42.1
		c5.4-11.8,6-23.4,5.4-32.1C174.3,158,167.9,153,161.4,148z"/>
	<g>
		<path class="st1" d="M1041.1,310.4c-9.8-0.5-9.7,56.7-34.2,64.6c-20.3,6.5-54.2-21.8-51.3-41.8c3.5-23.7,58.7-33,57-39.9
			c-1.7-6.9-55.8,10.7-70.3-9.5c-9.8-13.6-0.7-43.3,15.2-49.4c22.2-8.5,52.5,31.3,60.8,24.7c8.6-6.9-26.2-49.2-13.3-66.5
			c10.5-14.1,51.6-9.9,62.7,9.5c11.6,20.4-13.1,51.7-5.7,57c8.2,5.9,34.8-35,58.9-28.5c19,5.1,34,39.2,24.7,53.2
			c-1.2,1.8-2.6,3-3.8,3.8c-21.4,15.2-59.8-1.8-62.7,3.8c-3.6,7,56,32.1,53.2,55.1c-2.3,18-43,35.4-64.6,22.8
			C1044.5,355.7,1049.8,310.9,1041.1,310.4z"/>
		<circle class="st2" cx="1041.1" cy="280" r="19.9"/>
	</g>
	<g>
		<path class="st1" d="M742.9,181.2c-9.8-0.5-9.7,56.7-34.2,64.6c-20.3,6.5-54.2-21.8-51.3-41.8c3.5-23.7,58.7-33,57-39.9
			c-1.7-6.9-55.8,10.7-70.3-9.5c-9.8-13.6-0.7-43.3,15.2-49.4c22.2-8.5,52.5,31.3,60.8,24.7c8.6-6.9-26.2-49.2-13.3-66.5
			c10.5-14.1,51.6-9.9,62.7,9.5c11.6,20.4-13.1,51.7-5.7,57c8.2,5.9,34.8-35,58.9-28.5c19,5.1,34,39.2,24.7,53.2
			c-1.2,1.8-2.6,3-3.8,3.8c-21.4,15.2-59.8-1.8-62.7,3.8c-3.6,7,56,32.1,53.2,55.1c-2.3,18-43,35.4-64.6,22.8
			C746.2,226.5,751.6,181.7,742.9,181.2z"/>
		<circle class="st2" cx="742.9" cy="150.8" r="19.9"/>
	</g>
	<g>
		<path class="st1" d="M467.5,373.1c-9.8-0.5-9.7,56.7-34.2,64.6c-20.3,6.5-54.2-21.8-51.3-41.8c3.5-23.7,58.7-33,57-39.9
			c-1.7-6.9-55.8,10.7-70.3-9.5c-9.8-13.6-0.7-43.3,15.2-49.4c22.2-8.5,52.5,31.3,60.8,24.7c8.6-6.9-26.2-49.2-13.3-66.5
			c10.5-14.1,51.6-9.9,62.7,9.5c11.6,20.4-13.1,51.7-5.7,57c8.2,5.9,34.8-35,58.9-28.5c19,5.1,34,39.2,24.7,53.2
			c-1.2,1.8-2.6,3-3.8,3.8c-21.4,15.2-59.8-1.8-62.7,3.8c-3.6,7,56,32.1,53.2,55.1c-2.3,18-43,35.4-64.6,22.8
			C470.8,418.4,476.2,373.5,467.5,373.1z"/>
		<circle class="st2" cx="467.5" cy="342.7" r="19.9"/>
	</g>
	<g>
		<path class="st1" d="M760,508c-9.8-0.5-9.7,56.7-34.2,64.6c-20.3,6.5-54.2-21.8-51.3-41.8c3.5-23.7,58.7-33,57-39.9
			c-1.7-6.9-55.8,10.7-70.3-9.5c-9.8-13.6-0.7-43.3,15.2-49.4c22.2-8.5,52.5,31.3,60.8,24.7c8.6-6.9-26.2-49.2-13.3-66.5
			c10.5-14.1,51.6-9.9,62.7,9.5c11.6,20.4-13.1,51.7-5.7,57c8.2,5.9,34.8-35,58.9-28.5c19,5.1,34,39.2,24.7,53.2
			c-1.2,1.8-2.6,3-3.8,3.8c-21.4,15.2-59.8-1.8-62.7,3.8c-3.6,7,56,32.1,53.2,55.1c-2.3,18-43,35.4-64.6,22.8
			C763.3,553.2,768.7,508.4,760,508z"/>
		<circle class="st2" cx="760" cy="477.6" r="19.9"/>
	</g>
	<g>
		<path class="st1" d="M1282.4,528.9c-9.8-0.5-9.7,56.7-34.2,64.6c-20.3,6.5-54.2-21.8-51.3-41.8c3.5-23.7,58.7-33,57-39.9
			c-1.7-6.9-55.8,10.7-70.3-9.5c-9.8-13.6-0.7-43.3,15.2-49.4c22.2-8.5,52.5,31.3,60.8,24.7c8.6-6.9-26.2-49.2-13.3-66.5
			c10.5-14.1,51.6-9.9,62.7,9.5c11.6,20.4-13.1,51.7-5.7,57c8.2,5.9,34.8-35,58.9-28.5c19,5.1,34,39.2,24.7,53.2
			c-1.2,1.8-2.6,3-3.8,3.8c-21.4,15.2-59.8-1.8-62.7,3.8c-3.6,7,56,32.1,53.2,55.1c-2.3,18-43,35.4-64.6,22.8
			C1285.7,574.1,1291.1,529.3,1282.4,528.9z"/>
		<circle class="st2" cx="1282.4" cy="498.5" r="19.9"/>
	</g>
	<g>
		<path class="st1" d="M1280.5,126.2c-9.8-0.5-9.7,56.7-34.2,64.6c-20.3,6.5-54.2-21.8-51.3-41.8c3.5-23.7,58.7-33,57-39.9
			c-1.7-6.9-55.8,10.7-70.3-9.5c-9.8-13.6-0.7-43.3,15.2-49.4c22.2-8.5,52.5,31.3,60.8,24.7c8.6-6.9-26.2-49.2-13.3-66.5
			c10.5-14.1,51.6-9.9,62.7,9.5c11.6,20.4-13.1,51.7-5.7,57c8.2,5.9,34.8-35,58.9-28.5c19,5.1,34,39.2,24.7,53.2
			c-1.2,1.8-2.6,3-3.8,3.8c-21.4,15.2-59.8-1.8-62.7,3.8c-3.6,7,56,32.1,53.2,55.1c-2.3,18-43,35.4-64.6,22.8
			C1283.8,171.5,1289.2,126.6,1280.5,126.2z"/>
		<circle class="st2" cx="1280.5" cy="95.8" r="19.9"/>
	</g>
	<g>
		<path class="st1" d="M175,528.9c-9.8-0.5-9.7,56.7-34.2,64.6c-20.3,6.5-54.2-21.8-51.3-41.8c3.5-23.7,58.7-33,57-39.9
			c-1.7-6.9-55.8,10.7-70.3-9.5c-9.8-13.6-0.7-43.3,15.2-49.4c22.2-8.5,52.5,31.3,60.8,24.7c8.6-6.9-26.2-49.2-13.3-66.5
			c10.5-14.1,51.6-9.9,62.7,9.5c11.6,20.4-13.1,51.7-5.7,57c8.2,5.9,34.8-35,58.9-28.5c19,5.1,34,39.2,24.7,53.2
			c-1.2,1.8-2.6,3-3.8,3.8c-21.4,15.2-59.8-1.8-62.7,3.8c-3.6,7,56,32.1,53.2,55.1c-2.3,18-43,35.4-64.6,22.8
			C178.3,574.1,183.7,529.3,175,528.9z"/>
		<circle class="st2" cx="175" cy="498.5" r="19.9"/>
	</g>
	<path class="st3" d="M165.5,162.3c-9.8-0.5-9.7,56.7-34.2,64.6c-20.3,6.5-54.2-21.8-51.3-41.8c3.5-23.7,58.7-33,57-39.9
		c-1.7-6.9-55.8,10.7-70.3-9.5C57,122,66.1,92.4,81.9,86.3c22.2-8.5,52.5,31.3,60.8,24.7c8.6-6.9-26.2-49.2-13.3-66.5
		c10.5-14.1,51.6-9.9,62.7,9.5c11.6,20.4-13.1,51.7-5.7,57c8.2,5.9,34.8-35,58.9-28.5c19,5.1,34,39.2,24.7,53.2
		c-1.2,1.8-2.6,3-3.8,3.8c-21.4,15.2-59.8-1.8-62.7,3.8c-3.6,7,56,32.1,53.2,55.1c-2.3,18-43,35.4-64.6,22.8
		C168.8,207.5,174.2,162.7,165.5,162.3z"/>
	<circle class="st4" cx="165.5" cy="131.9" r="19.9"/>
	<path class="st0" d="M463.4,358.8c-9.8-5-28.5-13.1-53.4-13.5c-29.8-0.5-51.1,10.2-55.3,12.4c-12.5,6.5-21.3,14-28.1,19.9
		c-11,9.6-19,18.9-24.5,26.1c4.7,4.6,11.8,11.1,21,18.2c6.9,5.4,25.8,19.5,41.1,26c36.5,15.5,95.5-3,113.2-42.1
		c5.4-11.8,6-23.4,5.4-32.1C476.3,368.8,469.8,363.8,463.4,358.8z"/>
	<path class="st3" d="M467.5,373.1c-9.8-0.5-9.7,56.7-34.2,64.6c-20.3,6.5-54.2-21.8-51.3-41.8c3.5-23.7,58.7-33,57-39.9
		c-1.7-6.9-55.8,10.7-70.3-9.5c-9.8-13.6-0.7-43.3,15.2-49.4c22.2-8.5,52.5,31.3,60.8,24.7c8.6-6.9-26.2-49.2-13.3-66.5
		c10.5-14.1,51.6-9.9,62.7,9.5c11.6,20.4-13.1,51.7-5.7,57c8.2,5.9,34.8-35,58.9-28.5c19,5.1,34,39.2,24.7,53.2
		c-1.2,1.8-2.6,3-3.8,3.8c-21.4,15.2-59.8-1.8-62.7,3.8c-3.6,7,56,32.1,53.2,55.1c-2.3,18-43,35.4-64.6,22.8
		C470.8,418.3,476.2,373.5,467.5,373.1z"/>
	<circle class="st4" cx="467.5" cy="342.7" r="19.9"/>
	<path class="st0" d="M170.9,514.6c-9.8-5-28.5-13.1-53.4-13.5c-29.8-0.5-51.1,10.2-55.3,12.4c-12.5,6.5-21.3,14-28.1,19.9
		c-11,9.6-19,18.9-24.5,26.1c4.7,4.6,11.8,11.1,21,18.2c6.9,5.4,25.8,19.5,41.1,26c36.5,15.5,95.5-3,113.2-42.1
		c5.4-11.8,6-23.4,5.4-32.1C183.7,524.5,177.3,519.5,170.9,514.6z"/>
	<path class="st3" d="M175,528.9c-9.8-0.5-9.7,56.7-34.2,64.6c-20.3,6.5-54.2-21.8-51.3-41.8c3.5-23.7,58.7-33,57-39.9
		c-1.7-6.9-55.8,10.7-70.3-9.5c-9.8-13.6-0.7-43.3,15.2-49.4c22.2-8.5,52.5,31.3,60.8,24.7c8.6-6.9-26.2-49.2-13.3-66.5
		c10.5-14.1,51.6-9.9,62.7,9.5c11.6,20.4-13.1,51.7-5.7,57c8.2,5.9,34.8-35,58.9-28.5c19,5.1,34,39.2,24.7,53.2
		c-1.2,1.8-2.6,3-3.8,3.8c-21.4,15.2-59.8-1.8-62.7,3.8c-3.6,7,56,32.1,53.2,55.1c-2.3,18-43,35.4-64.6,22.8
		C178.3,574.1,183.7,529.3,175,528.9z"/>
	<circle class="st4" cx="175" cy="500.1" r="19.9"/>
	<path class="st0" d="M739.3,167c-9.8-5-28.5-13.1-53.4-13.5c-29.8-0.5-51.1,10.2-55.3,12.4c-12.5,6.5-21.3,14-28.1,19.9
		c-11,9.6-19,18.9-24.5,26.1c4.7,4.6,11.8,11.1,21,18.2c6.9,5.4,25.8,19.5,41.1,26c36.5,15.5,95.5-3,113.2-42.1
		c5.4-11.8,6-23.4,5.4-32.1C752.2,176.9,745.7,171.9,739.3,167z"/>
	<path class="st3" d="M743.4,181.2c-9.8-0.5-9.7,56.7-34.2,64.6c-20.3,6.5-54.2-21.8-51.3-41.8c3.5-23.7,58.7-33,57-39.9
		c-1.7-6.9-55.8,10.7-70.3-9.5c-9.8-13.6-0.7-43.3,15.2-49.4c22.2-8.5,52.5,31.3,60.8,24.7c8.6-6.9-26.2-49.2-13.3-66.5
		c10.5-14.1,51.6-9.9,62.7,9.5c11.6,20.4-13.1,51.7-5.7,57c8.2,5.9,34.8-35,58.9-28.5c19,5.1,34,39.2,24.7,53.2
		c-1.2,1.8-2.6,3-3.8,3.8c-21.4,15.2-59.8-1.8-62.7,3.8c-3.6,7,56,32.1,53.2,55.1c-2.3,18-43,35.4-64.6,22.8
		C746.7,226.5,752.1,181.6,743.4,181.2z"/>
	<circle class="st4" cx="743.4" cy="150.8" r="19.9"/>
	<path class="st0" d="M756,493.7c-9.8-5-28.5-13.1-53.4-13.5c-29.8-0.5-51.1,10.2-55.3,12.4c-12.5,6.5-21.3,14-28.1,19.9
		c-11,9.6-19,18.9-24.5,26.1c4.7,4.6,11.8,11.1,21,18.2c6.9,5.4,25.8,19.5,41.1,26c36.5,15.5,95.5-3,113.2-42.1
		c5.4-11.8,6-23.4,5.4-32.1C768.8,503.7,762.4,498.7,756,493.7z"/>
	<path class="st3" d="M760.1,508c-9.8-0.5-9.7,56.7-34.2,64.6c-20.3,6.5-54.2-21.8-51.3-41.8c3.5-23.7,58.7-33,57-39.9
		c-1.7-6.9-55.8,10.7-70.3-9.5c-9.8-13.6-0.7-43.3,15.2-49.4c22.2-8.5,52.5,31.3,60.8,24.7c8.6-6.9-26.2-49.2-13.3-66.5
		c10.5-14.1,51.6-9.9,62.7,9.5c11.6,20.4-13.1,51.7-5.7,57c8.2,5.9,34.8-35,58.9-28.5c19,5.1,34,39.2,24.7,53.2
		c-1.2,1.8-2.6,3-3.8,3.8c-21.4,15.2-59.8-1.8-62.7,3.8c-3.6,7,56,32.1,53.2,55.1c-2.3,18-43,35.4-64.6,22.8
		C763.3,553.2,768.7,508.4,760.1,508z"/>
	<circle class="st4" cx="760.1" cy="477.6" r="19.9"/>
	<path class="st0" d="M1037.1,296.1c-9.8-5-28.5-13.1-53.4-13.5c-29.8-0.5-51.1,10.2-55.3,12.4c-12.5,6.5-21.3,14-28.1,19.9
		c-11,9.6-19,18.9-24.5,26.1c4.7,4.6,11.8,11.1,21,18.2c6.9,5.4,25.8,19.5,41.1,26c36.5,15.5,95.5-3,113.2-42.1
		c5.4-11.8,6-23.4,5.4-32.1C1049.9,306.1,1043.5,301.1,1037.1,296.1z"/>
	<path class="st3" d="M1041.1,310.4c-9.8-0.5-9.7,56.7-34.2,64.6c-20.3,6.5-54.2-21.8-51.3-41.8c3.5-23.7,58.7-33,57-39.9
		c-1.7-6.9-55.8,10.7-70.3-9.5c-9.8-13.6-0.7-43.3,15.2-49.4c22.2-8.5,52.5,31.3,60.8,24.7c8.6-6.9-26.2-49.2-13.3-66.5
		c10.5-14.1,51.6-9.9,62.7,9.5c11.6,20.4-13.1,51.7-5.7,57c8.2,5.9,34.8-35,58.9-28.5c19,5.1,34,39.2,24.7,53.2
		c-1.2,1.8-2.6,3-3.8,3.8c-21.4,15.2-59.8-1.8-62.7,3.8c-3.6,7,56,32.1,53.2,55.1c-2.3,18-43,35.4-64.6,22.8
		C1044.4,355.7,1049.8,310.8,1041.1,310.4z"/>
	<circle class="st4" cx="1041.1" cy="280" r="19.9"/>
	<path class="st0" d="M1276.7,111.9c-9.8-5-28.5-13.1-53.4-13.5c-29.8-0.5-51.1,10.2-55.3,12.4c-12.5,6.5-21.3,14-28.1,19.9
		c-11,9.6-19,18.9-24.5,26.1c4.7,4.6,11.8,11.1,21,18.2c6.9,5.4,25.8,19.5,41.1,26c36.5,15.5,95.5-3,113.2-42.1
		c5.4-11.8,6-23.4,5.4-32.1C1289.6,121.8,1283.2,116.8,1276.7,111.9z"/>
	<path class="st3" d="M1280.8,126.2c-9.8-0.5-9.7,56.7-34.2,64.6c-20.3,6.5-54.2-21.8-51.3-41.8c3.5-23.7,58.7-33,57-39.9
		c-1.7-6.9-55.8,10.7-70.3-9.5c-9.8-13.6-0.7-43.3,15.2-49.4c22.2-8.5,52.5,31.3,60.8,24.7c8.6-6.9-26.2-49.2-13.3-66.5
		c10.5-14.1,51.6-9.9,62.7,9.5c11.6,20.4-13.1,51.7-5.7,57c8.2,5.9,34.8-35,58.9-28.5c19,5.1,34,39.2,24.7,53.2
		c-1.2,1.8-2.6,3-3.8,3.8c-21.4,15.2-59.8-1.8-62.7,3.8c-3.6,7,56,32.1,53.2,55.1c-2.3,18-43,35.4-64.6,22.8
		C1284.1,171.4,1289.5,126.6,1280.8,126.2z"/>
	<circle class="st4" cx="1280.8" cy="95.8" r="19.9"/>
	<path class="st0" d="M1276.7,514.6c-9.8-5-28.5-13.1-53.4-13.5c-29.8-0.5-51.1,10.2-55.3,12.4c-12.5,6.5-21.3,14-28.1,19.9
		c-11,9.6-19,18.9-24.5,26.1c4.7,4.6,11.8,11.1,21,18.2c6.9,5.4,25.8,19.5,41.1,26c36.5,15.5,95.5-3,113.2-42.1
		c5.4-11.8,6-23.4,5.4-32.1C1289.6,524.5,1283.2,519.5,1276.7,514.6z"/>
	<path class="st3" d="M1280.8,528.9c-9.8-0.5-9.7,56.7-34.2,64.6c-20.3,6.5-54.2-21.8-51.3-41.8c3.5-23.7,58.7-33,57-39.9
		c-1.7-6.9-55.8,10.7-70.3-9.5c-9.8-13.6-0.7-43.3,15.2-49.4c22.2-8.5,52.5,31.3,60.8,24.7c8.6-6.9-26.2-49.2-13.3-66.5
		c10.5-14.1,51.6-9.9,62.7,9.5c11.6,20.4-13.1,51.7-5.7,57c8.2,5.9,34.8-35,58.9-28.5c19,5.1,34,39.2,24.7,53.2
		c-1.2,1.8-2.6,3-3.8,3.8c-21.4,15.2-59.8-1.8-62.7,3.8c-3.6,7,56,32.1,53.2,55.1c-2.3,18-43,35.4-64.6,22.8
		C1284.1,574.1,1289.5,529.3,1280.8,528.9z"/>
	<circle class="st4" cx="1280.8" cy="498.5" r="19.9"/>
</g>
</svg>
