<?xml version="1.0" encoding="utf-8"?>
<!-- Generator: Adobe Illustrator 23.0.6, SVG Export Plug-In . SVG Version: 6.00 Build 0)  -->
<svg version="1.1" id="Layer_1" xmlns="http://www.w3.org/2000/svg" xmlns:xlink="http://www.w3.org/1999/xlink" x="0px" y="0px"
	 viewBox="0 0 1394.5 551.2" style="enable-background:new 0 0 1394.5 551.2;" xml:space="preserve">
<style type="text/css">
	.st0{fill:none;stroke:#DDC399;stroke-width:27;stroke-miterlimit:10;}
</style>
<path class="st0" d="M175.2,54.7c-10.5-5.4-30.6-14-57.4-14.4C85.9,39.8,63,51.2,58.4,53.6c-13.4,7-22.8,15-30.1,21.4
	C16.5,85.2,7.9,95.3,2,103c5.1,4.9,12.7,11.9,22.6,19.6c7.4,5.7,27.6,20.9,44.1,27.9c39.2,16.7,102.4-3.2,121.5-45.2
	c5.7-12.7,6.4-25.1,5.8-34.4C189.1,65.4,182.2,60,175.2,54.7z"/>
<path class="st0" d="M499.3,280.9c-10.5-5.4-30.6-14-57.4-14.4c-31.9-0.5-54.8,10.9-59.4,13.3c-13.4,7-22.8,15-30.1,21.4
	c-11.8,10.3-20.4,20.3-26.3,28c5.1,4.9,12.7,11.9,22.6,19.6c7.4,5.7,27.6,20.9,44.1,27.9c39.2,16.7,102.4-3.2,121.5-45.2
	c5.7-12.7,6.4-25.1,5.8-34.4C513.1,291.6,506.2,286.2,499.3,280.9z"/>
<path class="st0" d="M185.4,448.1c-10.5-5.4-30.6-14-57.4-14.4c-31.9-0.5-54.8,10.9-59.4,13.3c-13.4,7-22.8,15-30.1,21.4
	c-11.8,10.3-20.4,20.3-26.3,28c5.1,4.9,12.7,11.9,22.6,19.6c7.4,5.7,27.6,20.9,44.1,27.9c39.2,16.7,102.4-3.2,121.5-45.2
	c5.7-12.7,6.4-25.1,5.8-34.4C199.2,458.8,192.3,453.4,185.4,448.1z"/>
<path class="st0" d="M795.4,75.1c-10.5-5.4-30.6-14-57.4-14.4c-31.9-0.5-54.8,10.9-59.4,13.3c-13.4,7-22.8,15-30.1,21.4
	c-11.8,10.3-20.4,20.3-26.3,28c5.1,4.9,12.7,11.9,22.6,19.6c7.4,5.7,27.6,20.9,44.1,27.9c39.2,16.7,102.4-3.2,121.5-45.2
	c5.7-12.7,6.4-25.1,5.8-34.4C809.2,85.7,802.3,80.4,795.4,75.1z"/>
<path class="st0" d="M813.2,425.7c-10.5-5.4-30.6-14-57.4-14.4c-31.9-0.5-54.8,10.9-59.4,13.3c-13.4,7-22.8,15-30.1,21.4
	c-11.8,10.3-20.4,20.3-26.3,28c5.1,4.9,12.7,11.9,22.6,19.6c7.4,5.7,27.6,20.9,44.1,27.9c39.2,16.7,102.4-3.2,121.5-45.2
	c5.7-12.7,6.4-25.1,5.8-34.4C827.1,436.4,820.2,431,813.2,425.7z"/>
<path class="st0" d="M1114.9,213.7c-10.5-5.4-30.6-14-57.4-14.4c-31.9-0.5-54.8,10.9-59.4,13.3c-13.4,7-22.8,15-30.1,21.4
	c-11.8,10.3-20.4,20.3-26.3,28c5.1,4.9,12.7,11.9,22.6,19.6c7.4,5.7,27.6,20.9,44.1,27.9c39.2,16.7,102.4-3.2,121.5-45.2
	c5.7-12.7,6.4-25.1,5.8-34.4C1128.7,224.4,1121.8,219,1114.9,213.7z"/>
<path class="st0" d="M1372.1,16c-10.5-5.4-30.6-14-57.4-14.4c-31.9-0.5-54.8,10.9-59.4,13.3c-13.4,7-22.8,15-30.1,21.4
	c-11.8,10.3-20.4,20.3-26.3,28c5.1,4.9,12.7,11.9,22.6,19.6c7.4,5.7,27.6,20.9,44.1,27.9c39.2,16.7,102.4-3.2,121.5-45.2
	c5.7-12.7,6.4-25.1,5.8-34.4C1385.9,26.6,1379,21.3,1372.1,16z"/>
<path class="st0" d="M1372.1,448.1c-10.5-5.4-30.6-14-57.4-14.4c-31.9-0.5-54.8,10.9-59.4,13.3c-13.4,7-22.8,15-30.1,21.4
	c-11.8,10.3-20.4,20.3-26.3,28c5.1,4.9,12.7,11.9,22.6,19.6c7.4,5.7,27.6,20.9,44.1,27.9c39.2,16.7,102.4-3.2,121.5-45.2
	c5.7-12.7,6.4-25.1,5.8-34.4C1385.9,458.8,1379,453.4,1372.1,448.1z"/>
</svg>
