<?xml version="1.0" encoding="utf-8"?>
<!-- Generator: Adobe Illustrator 23.0.6, SVG Export Plug-In . SVG Version: 6.00 Build 0)  -->
<svg version="1.1" id="Layer_1" xmlns="http://www.w3.org/2000/svg" xmlns:xlink="http://www.w3.org/1999/xlink" x="0px" y="0px"
	 viewBox="0 0 415 234" style="enable-background:new 0 0 415 234;" xml:space="preserve">
<style type="text/css">
	.st0{fill:#EFCD8D;}
	.st1{fill:#E3BB6F;}
	.st2{fill:#F3E2BF;}
	.st3{fill:#26745A;}
</style>
<rect x="-0.5" class="st0" width="415" height="234"/>
<g>
	<line class="st1" x1="217.1" y1="-3" x2="217.1" y2="236"/>
	<g>
		<path class="st1" d="M212.1-3c0,26.9,0,53.8,0,80.7c0,42.9,0,85.8,0,128.7c0,9.9,0,19.8,0,29.6c0,6.4,10,6.4,10,0
			c0-26.9,0-53.8,0-80.7c0-42.9,0-85.8,0-128.7c0-9.9,0-19.8,0-29.6C222.1-9.4,212.1-9.4,212.1-3L212.1-3z"/>
	</g>
</g>
<g>
	<line class="st1" x1="-7.4" y1="114" x2="423.1" y2="114"/>
	<g>
		<path class="st1" d="M-7.4,120c14.2,0,28.5,0,42.7,0c34.2,0,68.4,0,102.7,0c41.4,0,82.9,0,124.3,0c36,0,71.9,0,107.9,0
			c17.3,0,34.9,0.8,52.2,0c0.2,0,0.5,0,0.7,0c7.7,0,7.7-12,0-12c-14.2,0-28.5,0-42.7,0c-34.2,0-68.4,0-102.7,0
			c-41.4,0-82.9,0-124.3,0c-36,0-71.9,0-107.9,0c-17.3,0-34.9-0.8-52.2,0c-0.2,0-0.5,0-0.7,0C-15.1,108-15.1,120-7.4,120L-7.4,120z"
			/>
	</g>
</g>
<path class="st2" d="M222.1,93.7c2.6-2.8-9.9-22.1-28-34c-11.3-7.4-25.5-12.4-27-10c-0.3,0.5-0.7,2.3,11,13
	C191.9,75.3,218.8,97.1,222.1,93.7z"/>
<path class="st2" d="M153.5,77.1c-1.2,3.6,18.3,15.8,39.8,18.8c13.3,1.9,28.4,0.4,28.7-2.5c0.1-0.6-0.4-2.3-15.5-7.1
	C188.6,80.8,155,72.6,153.5,77.1z"/>
<path class="st2" d="M147.6,54.2c-5.1-5.8-8-14.7-6-16c3.7-2.5,26.5,20.4,24,24C164.2,64.2,153.9,61.3,147.6,54.2z"/>
<path class="st2" d="M179.6,102.2c-0.8-2.7-20.8,1.5-23,2c-18.7,4-34.3,7.3-48,20c-12.6,11.7-21.2,29.1-18,32c3.9,3.6,22-18.6,64-40
	C167.8,109.4,180.3,104.3,179.6,102.2z"/>
<path class="st2" d="M215,100.9c-2.3-2.8-26.9,9-42.7,18c-11.6,6.7-12.9,8.8-29.5,18.8c-20.2,12.1-28.6,15.2-28,16.5
	c1.1,2.2,31.1-3.5,59.5-19.2C197.9,121.9,217.2,103.7,215,100.9z"/>
<path class="st2" d="M121.6,141.2c-1.1-1.3-19.2,6.7-25,23c-2.5,6.9-2.4,14.6-1,15c1.7,0.5,4.2-9.2,13-22
	C116.4,145.8,122.3,142,121.6,141.2z"/>
<path class="st2" d="M228.7,106.2c1.4-1.4,16.4,17.1,43.5,34.4c9.4,6,22.1,14.1,40.5,19.8c23.6,7.4,45.7,7.6,49.4,7.6
	c16,0,30.8-2.3,31.5,0.7c0.4,1.5-3,3.5-4,4.2c-14.1,8.5-52.8,5.9-102.2-16.7c-5.4-2.4-18.7-8.1-32.5-19.1
	c-4.1-3.3-8.1-6.9-12.1-11.1C235.6,118.2,227.6,107.3,228.7,106.2z"/>
<g>
	<g>
		<path class="st1" d="M227,102.7c-10.6,34.6-25.8,67.6-45.3,98.2c-4.2,6.5,6.2,12.6,10.4,6.1c20.1-31.3,35.6-65.5,46.5-101
			C240.9,98.5,229.3,95.3,227,102.7L227,102.7z"/>
	</g>
</g>
<path class="st2" d="M249.6,132.2c0.9,0.3,6,1.8,6,4c0.1,3.6-13.5,4.8-27,10c-24.8,9.5-36.4,27.5-38,26c-1.4-1.3,7.5-15,21-26
	C217.6,141.3,234.4,127.5,249.6,132.2z"/>
<path class="st2" d="M256.5,135.7c-0.9-0.8-5.5,2.9-14.5,10.1c-15.2,12.2-22.8,18.3-21.8,19.9c1.1,1.9,12.5-1.3,21.5-8.2
	C252.3,149.4,258.2,137.1,256.5,135.7z"/>
<path class="st2" d="M227.4,99.7c-2.2-1.2,2.5-24.6,21.6-33.6c15.4-7.3,34.4-2.4,34.7,0.2c0.3,2.4-16.3,1.3-33.8,12.2
	C233.8,88.3,229.1,100.7,227.4,99.7z"/>
<g>
	<g>
		<path class="st1" d="M227.6,103.8c9.4-16.8,17.9-34.6,28.6-50.6c4.6-6.9,10.5-13.9,18.6-16.9c7.1-2.6,14.4-0.8,17.8,6.4
			c7.4,15.7-9,32.3-21.3,39.5c-16.2,9.4-35.4,11-53.8,11.2c-7.7,0.1-7.7,12.1,0,12c32.4-0.4,73.5-8,86.4-42.7
			c5.3-14.3,0.8-33-14.9-38.4c-15.7-5.5-30.9,6.4-39.8,18.1c-5.9,7.8-10.5,16.6-15.2,25.2c-5.6,10.1-11.2,20.1-16.8,30.2
			C213.5,104.5,223.8,110.6,227.6,103.8L227.6,103.8z"/>
	</g>
</g>
<g>
	<g>
		<path class="st1" d="M219.5,119.6c27.2,13.4,56.4,21.7,86.6,24.5c7.7,0.7,7.6-11.3,0-12c-28-2.6-55.4-10.4-80.6-22.8
			C218.7,105.8,212.6,116.2,219.5,119.6L219.5,119.6z"/>
	</g>
</g>
<path class="st2" d="M259.6,136.2c-2.1-0.5-4.5-23.2,9-37c10.9-11.2,28.1-12.2,29-10c0.9,2.1-13.3,6-25,21
	C261.9,123.8,261.2,136.5,259.6,136.2z"/>
<path class="st2" d="M213.9,105.2c-0.8-1.9-5.6-2.2-9.3-1c-5.5,1.8-8.1,6.8-10.6,11.3c-10.7,18.9-20.3,26.8-18.4,28.7
	c1.2,1.2,5.5-1.2,8-3c6-4.4,6.8-9.6,10-15.5C201.4,111.7,215.3,108.6,213.9,105.2z"/>
<g>
	<g>
		<path class="st1" d="M226.3,99.6c-2.7-5.2-9.8-5.8-15-5.7c-8.8,0.2-17.7,2.3-25.9,5.2c-16.8,5.8-38,16.5-44.9,34.2
			c-6.6,16.8,0.6,39.1,20.2,41.5c18,2.2,35.9-9.4,40.6-26.8c2.9-10.6,5.9-20.1,13.3-28.7c4.2-4.9,14.4-10.6,12.2-18.3
			c-2.1-7.4-13.7-4.2-11.6,3.2c-0.6-2,1-2.8,0-2.3c-0.8,0.4-1.6,1.5-2.2,2.1c-2.6,2.4-5.1,4.8-7.4,7.5c-5.5,6.5-9.9,13.8-12.7,21.9
			c-1.9,5.5-2.4,11.7-5.1,16.9c-2.9,5.7-9.1,9.5-15,11.4c-6,1.9-13.8,2.6-18.5-2.5c-4.1-4.4-4.8-11.6-3.8-17.3
			c2.4-14.1,18.2-22.6,30-28c7.7-3.6,16.1-6.2,24.5-7.4c3-0.4,6.1-0.8,9.2-0.5c0.7,0.1,1.5,0.4,2.2,0.3c1.1,0,0,0.1-0.4-0.6
			C219.5,112.5,229.9,106.5,226.3,99.6z"/>
	</g>
</g>
<polygon class="st3" points="235.2,87.8 237.1,114.3 260.1,127.7 235.5,137.8 229.8,163.7 212.6,143.4 186.2,146.1 200.2,123.5 
	189.5,99.1 215.3,105.4 "/>
<g>
	<path class="st2" d="M220.8,117.7l-3.4-1.7c-0.4-0.2-0.5-0.7-0.3-1l1.1-2.2c0.1-0.1,0.3-0.4,0.5-0.4l7.3-1.4l3.3,1.7
		c0.4,0.2,0.5,0.7,0.3,1L218,136.4c-0.2,0.4-0.6,0.5-1,0.4l-4-2c-0.4-0.2-0.5-0.7-0.3-1L220.8,117.7z"/>
</g>
</svg>
