<?xml version="1.0" encoding="utf-8"?>
<!-- Generator: Adobe Illustrator 23.0.6, SVG Export Plug-In . SVG Version: 6.00 Build 0)  -->
<svg version="1.1" id="Layer_1" xmlns="http://www.w3.org/2000/svg" xmlns:xlink="http://www.w3.org/1999/xlink" x="0px" y="0px"
	 viewBox="0 0 415 234" style="enable-background:new 0 0 415 234;" xml:space="preserve">
<style type="text/css">
	.st0{fill:#EFCD8D;}
	.st1{fill:#EABA61;}
	.st2{fill:#F6E2BB;}
	.st3{fill:#26745A;}
</style>
<rect x="-0.5" class="st0" width="415" height="234"/>
<g>
	<line class="st1" x1="216.8" y1="-2.5" x2="216.8" y2="236.5"/>
	<g>
		<path class="st1" d="M211.8-2.5c0,26.9,0,53.8,0,80.7c0,42.9,0,85.8,0,128.7c0,9.9,0,19.8,0,29.6c0,6.4,10,6.4,10,0
			c0-26.9,0-53.8,0-80.7c0-42.9,0-85.8,0-128.7c0-9.9,0-19.8,0-29.6C221.8-8.9,211.8-8.9,211.8-2.5L211.8-2.5z"/>
	</g>
</g>
<g>
	<line class="st1" x1="-7.8" y1="114.5" x2="422.8" y2="114.5"/>
	<g>
		<path class="st1" d="M-7.8,120.5c14.2,0,28.5,0,42.7,0c34.2,0,68.4,0,102.7,0c41.4,0,82.8,0,124.3,0c36,0,71.9,0,107.9,0
			c17.3,0,34.9,0.8,52.2,0c0.2,0,0.5,0,0.7,0c7.7,0,7.7-12,0-12c-14.2,0-28.5,0-42.7,0c-34.2,0-68.4,0-102.7,0
			c-41.4,0-82.9,0-124.3,0c-36,0-71.9,0-107.9,0c-17.3,0-34.9-0.8-52.2,0c-0.2,0-0.5,0-0.7,0C-15.5,108.5-15.5,120.5-7.8,120.5
			L-7.8,120.5z"/>
	</g>
</g>
<path class="st2" d="M221.7,94.1c2.6-2.8-9.9-22.1-28-34c-11.3-7.4-25.5-12.4-27-10c-0.3,0.5-0.7,2.3,11,13
	C191.5,75.8,218.4,97.6,221.7,94.1z"/>
<path class="st2" d="M153.1,77.6c-1.2,3.6,18.3,15.8,39.8,18.8c13.3,1.9,28.4,0.4,28.7-2.5c0.1-0.6-0.4-2.3-15.5-7.1
	C188.2,81.3,154.6,73.1,153.1,77.6z"/>
<path class="st2" d="M147.2,54.6c-5.1-5.8-8-14.7-6-16c3.7-2.5,26.5,20.4,24,24C163.8,64.7,153.5,61.7,147.2,54.6z"/>
<path class="st2" d="M179.2,102.6c-0.8-2.7-20.8,1.5-23,2c-18.7,4-34.3,7.3-48,20c-12.6,11.7-21.2,29.1-18,32c3.9,3.6,22-18.6,64-40
	C167.4,109.9,179.9,104.8,179.2,102.6z"/>
<path class="st2" d="M214.6,101.4c-2.3-2.8-26.9,9-42.7,18c-11.6,6.7-12.9,8.8-29.5,18.8c-20.2,12.1-28.6,15.2-28,16.5
	c1.1,2.2,31.1-3.5,59.5-19.2C197.5,122.4,216.8,104.2,214.6,101.4z"/>
<path class="st2" d="M121.2,141.6c-1.1-1.3-19.2,6.7-25,23c-2.5,6.9-2.4,14.6-1,15c1.7,0.5,4.2-9.2,13-22
	C116,146.3,121.9,142.4,121.2,141.6z"/>
<path class="st2" d="M228.3,106.7c1.4-1.4,16.4,17.1,43.5,34.4c9.4,6,22.1,14.1,40.5,19.8c23.6,7.4,45.7,7.6,49.4,7.6
	c16,0,30.8-2.3,31.5,0.7c0.4,1.5-3,3.5-4,4.2c-14.1,8.5-52.8,5.9-102.2-16.7c-5.4-2.4-18.7-8.1-32.5-19.1
	c-4.1-3.3-8.1-6.9-12.1-11.1C235.2,118.7,227.2,107.8,228.3,106.7z"/>
<g>
	<g>
		<path class="st1" d="M226.6,103.2c-10.6,34.6-25.8,67.6-45.3,98.2c-4.2,6.5,6.2,12.6,10.4,6.1c20.1-31.3,35.6-65.5,46.5-101
			C240.5,99,228.9,95.8,226.6,103.2L226.6,103.2z"/>
	</g>
</g>
<path class="st2" d="M249.2,132.6c0.9,0.3,6,1.8,6,4c0.1,3.6-13.5,4.8-27,10c-24.8,9.5-36.4,27.5-38,26c-1.4-1.3,7.5-15,21-26
	C217.2,141.7,234.1,128,249.2,132.6z"/>
<path class="st2" d="M256.1,136.1c-0.9-0.8-5.5,2.9-14.5,10.1c-15.2,12.2-22.8,18.3-21.8,19.9c1.1,1.9,12.5-1.3,21.5-8.2
	C251.9,149.8,257.8,137.5,256.1,136.1z"/>
<path class="st2" d="M227,100.2c-2.2-1.2,2.5-24.6,21.6-33.6c15.4-7.3,34.3-2.4,34.7,0.2c0.3,2.4-16.3,1.3-33.8,12.2
	C233.4,88.8,228.7,101.1,227,100.2z"/>
<g>
	<g>
		<path class="st1" d="M227.2,104.3c9.4-16.8,17.9-34.6,28.6-50.6c4.6-6.9,10.5-13.9,18.6-16.9c7.1-2.6,14.4-0.8,17.8,6.4
			c7.4,15.7-9,32.3-21.3,39.5c-16.2,9.4-35.4,11-53.8,11.2c-7.7,0.1-7.7,12.1,0,12c32.4-0.4,73.5-8,86.4-42.7
			c5.3-14.3,0.8-33-14.9-38.4c-15.7-5.5-30.9,6.4-39.8,18.1c-5.9,7.8-10.5,16.6-15.2,25.2c-5.6,10.1-11.2,20.1-16.8,30.2
			C213.1,105,223.4,111.1,227.2,104.3L227.2,104.3z"/>
	</g>
</g>
<g>
	<g>
		<path class="st1" d="M219.1,120c27.2,13.4,56.4,21.7,86.6,24.5c7.7,0.7,7.6-11.3,0-12c-28-2.6-55.4-10.4-80.6-22.8
			C218.3,106.3,212.2,116.6,219.1,120L219.1,120z"/>
	</g>
</g>
<path class="st2" d="M259.2,136.6c-2.1-0.5-4.5-23.2,9-37c10.9-11.2,28.1-12.2,29-10c0.9,2.1-13.3,6-25,21
	C261.5,124.3,260.8,137,259.2,136.6z"/>
<path class="st2" d="M213.5,105.7c-0.8-1.9-5.6-2.2-9.3-1c-5.5,1.8-8.1,6.8-10.6,11.3c-10.7,18.9-20.3,26.8-18.4,28.7
	c1.2,1.2,5.5-1.2,8-3c6-4.4,6.8-9.6,10-15.5C201,112.2,214.9,109.1,213.5,105.7z"/>
<g>
	<g>
		<path class="st1" d="M225.9,100.1c-2.7-5.2-9.8-5.8-15-5.7c-8.8,0.2-17.7,2.3-25.9,5.2c-16.8,5.8-38,16.5-44.9,34.2
			c-6.6,16.8,0.6,39.1,20.2,41.5c18,2.2,35.9-9.4,40.6-26.8c2.9-10.6,5.9-20.1,13.3-28.7c4.2-4.9,14.4-10.6,12.2-18.3
			c-2.1-7.4-13.7-4.2-11.6,3.2c-0.6-2,1-2.8,0-2.3c-0.8,0.4-1.6,1.5-2.2,2.1c-2.6,2.4-5.1,4.8-7.4,7.5c-5.5,6.5-9.9,13.8-12.7,21.9
			c-1.9,5.5-2.4,11.7-5.1,16.9c-2.9,5.7-9.1,9.5-15,11.4c-6,1.9-13.8,2.6-18.5-2.5c-4.1-4.4-4.8-11.6-3.8-17.3
			c2.4-14.1,18.2-22.6,30-28c7.7-3.6,16.1-6.2,24.5-7.4c3-0.4,6.1-0.8,9.2-0.5c0.7,0.1,1.5,0.4,2.2,0.3c1.1,0,0,0.1-0.4-0.6
			C219.1,113,229.4,106.9,225.9,100.1z"/>
	</g>
</g>
<polygon class="st3" points="234.8,88.2 236.8,114.8 259.7,128.2 235.1,138.2 229.4,164.2 212.2,143.9 185.8,146.5 199.8,123.9 
	189.1,99.6 214.9,105.9 "/>
<g>
	<path class="st2" d="M207.3,132.8c3.3-1.9,11.8-7.1,15.4-9.5c0.8-0.5,1.7-1.4,2.1-2.4c0.6-1.4-0.1-3.2-2.2-4
		c-1.5-0.6-3.3-0.1-4.4,0.4c-0.4,0.2-0.9,0-1-0.4l-1.3-3.2c-0.2-0.3,0-0.8,0.4-1c0,0,4.5-2.4,8.9-0.6c5.3,2.2,7,6.8,5.3,10.9
		c-0.8,2-1.8,2.8-3.4,4.2c-2.1,1.6-6.7,4.3-9.5,6.1l6.5,2.7c0.4,0.1,0.6,0.6,0.4,1l-1.4,3.3c-0.1,0.4-0.6,0.6-1,0.4l-14.8-6.1
		c-0.4-0.2-0.6-0.6-0.4-1L207.3,132.8z"/>
</g>
</svg>
