<?xml version="1.0" encoding="utf-8"?>
<!-- Generator: Adobe Illustrator 23.0.6, SVG Export Plug-In . SVG Version: 6.00 Build 0)  -->
<svg version="1.1" id="Layer_1" xmlns="http://www.w3.org/2000/svg" xmlns:xlink="http://www.w3.org/1999/xlink" x="0px" y="0px"
	 viewBox="0 0 342 379" style="enable-background:new 0 0 342 379;" xml:space="preserve">
<style type="text/css">
	.st0{fill:#F5CC83;}
	.st1{fill:#EABA61;}
	.st2{fill:#F6E2BB;}
	.st3{fill:#26745A;}
</style>
<rect x="-7.4" y="-112.4" class="st0" width="352" height="602.5"/>
<g>
	<line class="st1" x1="344.6" y1="202.9" x2="-2.4" y2="202.9"/>
	<g>
		<path class="st1" d="M344.6,197.9c-11.5,0-22.9,0-34.4,0c-27.7,0-55.4,0-83.1,0c-33.3,0-66.7,0-100.1,0c-28.8,0-57.7,0-86.6,0
			c-14,0-28.4-1-42.3,0c-0.2,0-0.4,0-0.6,0c-6.4,0-6.4,10,0,10c11.5,0,22.9,0,34.4,0c27.7,0,55.4,0,83.1,0c33.4,0,66.7,0,100.1,0
			c28.9,0,57.7,0,86.6,0c14,0,28.4,1,42.3,0c0.2,0,0.4,0,0.6,0C351,207.9,351,197.9,344.6,197.9L344.6,197.9z"/>
	</g>
</g>
<g>
	<line class="st1" x1="174.7" y1="-123" x2="174.7" y2="502"/>
	<g>
		<path class="st1" d="M168.7-123c0,20.7,0,41.4,0,62.1c0,49.9,0,99.7,0,149.6c0,60.2,0,120.3,0,180.5c0,52,0,104,0,156
			c0,25.2-0.8,50.6,0,75.8c0,0.4,0,0.7,0,1.1c0,7.7,12,7.7,12,0c0-20.7,0-41.4,0-62.1c0-49.9,0-99.7,0-149.6c0-60.2,0-120.3,0-180.5
			c0-52,0-104,0-156c0-25.2,0.8-50.6,0-75.8c0-0.3,0-0.7,0-1.1C180.7-130.7,168.7-130.8,168.7-123L168.7-123z"/>
	</g>
</g>
<path class="st2" d="M204.3,210.1c4,3.8,32.1-14.3,49.4-40.6c10.7-16.4,18-37,14.5-39.2c-0.7-0.4-3.3-1-18.9,16
	C230.9,166.3,199.3,205.4,204.3,210.1z"/>
<path class="st2" d="M228.3,110.6c-5.3-1.8-22.9,26.6-27.3,57.8c-2.7,19.4-0.5,41.2,3.6,41.6c0.8,0.1,3.4-0.5,10.3-22.5
	C222.9,161.5,234.8,112.7,228.3,110.6z"/>
<path class="st2" d="M261.6,102c8.4-7.5,21.3-11.6,23.2-8.7c3.7,5.4-29.6,38.5-34.9,34.9C247,126,251.3,111.1,261.6,102z"/>
<path class="st2" d="M191.9,148.4c3.9-1.2-2.2-30.2-2.9-33.4c-5.8-27.1-10.6-49.8-29-69.7c-17-18.3-42.2-30.8-46.5-26.1
	c-5.2,5.7,27,31.9,58.1,92.9C181.4,131.3,188.8,149.4,191.9,148.4z"/>
<path class="st2" d="M193.7,199.8c4-3.3-13-39.1-26.2-61.9c-9.7-16.8-12.7-18.7-27.3-42.9c-17.6-29.3-22.1-41.5-23.9-40.7
	c-3.2,1.6,5.1,45.2,27.9,86.4C163.3,175,189.7,203.1,193.7,199.8z"/>
<path class="st2" d="M135.3,64.2c1.9-1.6-9.8-27.9-33.4-36.3c-10.1-3.6-21.2-3.5-21.8-1.5c-0.7,2.4,13.3,6.1,31.9,18.9
	C128.6,56.6,134.2,65.2,135.3,64.2z"/>
<path class="st2" d="M186,219.7c2,2-24.8,23.9-50,63.2c-8.7,13.6-20.4,32.1-28.8,58.8c-10.8,34.3-11.1,66.3-11.1,71.7
	c-0.1,23.2,3.3,44.8-1,45.8c-2.2,0.5-5.1-4.3-6.1-5.9c-12.4-20.4-8.5-76.7,24.2-148.4c3.6-7.8,11.8-27.1,27.7-47.1
	c4.8-6,10-11.8,16.2-17.5C168.7,229.7,184.4,218.1,186,219.7z"/>
<g>
	<g>
		<path class="st1" d="M190.4,219.9c-50.4-15.5-98.7-37.5-143.1-66c-6.5-4.2-12.5,6.2-6.1,10.4c45.3,29,94.6,51.4,146,67.2
			C194.6,233.7,197.8,222.1,190.4,219.9L190.4,219.9z"/>
	</g>
</g>
<path class="st2" d="M148.4,250.1c-0.4,1.4-2.6,8.7-5.8,8.7c-5.2,0.1-7-19.6-14.5-39.2c-13.8-36.1-39.9-52.9-37.8-55.2
	c1.9-2,21.8,10.9,37.8,30.5C135.2,203.6,155.1,228,148.4,250.1z"/>
<path class="st2" d="M143.3,260.1c1.1-1.3-4.1-7.9-14.7-21.1c-17.7-22.1-26.5-33.1-29-31.6c-2.7,1.6,1.9,18.1,12,31.2
	C123.4,253.9,141.3,262.5,143.3,260.1z"/>
<path class="st2" d="M195.5,217.8c1.8-3.2,35.8,3.6,48.8,31.3c10.6,22.4,3.4,49.9-0.2,50.3c-3.4,0.4-1.9-23.7-17.7-49.1
	C212.1,227.2,194.1,220.2,195.5,217.8z"/>
<g>
	<g>
		<path class="st1" d="M190.9,215.8c20.3,11.2,40.7,22.3,60.8,33.8c16.3,9.3,35.4,21.3,39.8,41c2,9-1.3,17.7-9.1,22.7
			c-8.3,5.3-18.4,5.1-27.5,2.1c-18.5-6.2-32-22.7-40.2-39.8c-10.7-22.3-12.5-47.7-12.8-72.1c-0.1-7.7-12.1-7.7-12,0
			c0.6,45.5,10.6,102.9,58.5,122.2c20.2,8.1,48.4,2.4,54.6-21.3c5.9-22.6-11.9-42.6-28.7-54.7c-11.5-8.3-24.3-14.8-36.6-21.6
			c-13.6-7.5-27.2-15.1-40.7-22.6C190.2,201.6,184.1,212,190.9,215.8L190.9,215.8z"/>
	</g>
</g>
<g>
	<g>
		<path class="st1" d="M169,207.7c-19.3,39-31.2,81.1-35.2,124.4c-0.7,7.7,11.3,7.6,12,0c3.8-41.1,15.2-81.3,33.5-118.4
			C182.8,206.9,172.4,200.8,169,207.7L169,207.7z"/>
	</g>
</g>
<path class="st2" d="M142.6,264.6c0.7-3.1,33.7-6.5,53.7,13.1c16.2,15.9,17.7,40.8,14.5,42.1c-3,1.3-8.7-19.3-30.5-36.3
	C160.5,267.9,142.1,266.9,142.6,264.6z"/>
<path class="st2" d="M187.6,198.2c2.8-1.1,3.2-8.2,1.5-13.5c-2.6-8-9.9-11.7-16.4-15.4c-27.5-15.6-39-29.4-41.7-26.7
	c-1.7,1.7,1.8,8.1,4.4,11.6c6.4,8.7,14,9.9,22.5,14.6C178.1,180,182.6,200.2,187.6,198.2z"/>
<g>
	<g>
		<path class="st1" d="M194.2,213.9c7-3.4,7.2-13.9,6.9-20.5c-0.4-12.5-3.5-25.1-7.7-36.9c-4.6-13-11-25.2-18.6-36.6
			c-7.2-10.7-16-20.4-28.1-25.4c-11.4-4.7-25.3-4.9-36.8-0.3c-12.5,5.1-19.9,15.8-21,29.1c-1.1,12.6,3.5,26.2,10.9,36.3
			c6.9,9.5,15.9,15,27.1,18c6.1,1.6,12.3,3,18.2,5.2c8.5,3.2,16.5,8.4,23.4,14.3c4.7,4.1,8.6,8.8,13,13.1c3,3,6.8,5.6,11.2,4.1
			c7.3-2.4,4.2-14-3.2-11.6c-1.8,0.6,2.3,0.3,2.1,0.4c-0.1,0.1-0.4-0.1-0.6-0.4c-1.1-1.2-2.3-2.4-3.4-3.6
			c-3.6-3.9-7.2-7.7-11.2-11.1c-9.6-8.2-20.5-14.6-32.6-18.4c-8.1-2.6-17.2-3.4-24.6-7.8c-8.7-5.1-14.2-15-16.9-24.4
			c-2.6-9.3-2.7-20.8,5-27.9c7.1-6.5,18.6-7.7,27.8-6.1c21.4,3.9,34.3,27.6,42.5,45.7c5.2,11.5,9.1,24,10.8,36.6
			c0.6,4.4,1,8.9,0.6,13.3c-0.1,1.5-0.5,2.8-0.9,4.2c-0.1,0.4-0.2,0.2-0.1,0.1C181.3,206.9,187.3,217.2,194.2,213.9z"/>
	</g>
</g>
<polygon class="st3" points="222.8,229.1 184.4,232 164.9,265.3 150.3,229.6 112.6,221.3 142,196.4 138.2,158 171,178.3 
	206.4,162.8 197.2,200.3 "/>
<g>
	<path class="st2" d="M159.2,225.6l-3.8-5.2l2.4-33.1c0-0.3,0.1-0.5,0.5-0.8l3.6-2.6c0.5-0.4,1.2-0.3,1.6,0.3l14.6,20.2l3.9-2.8
		c0.5-0.4,1.2-0.3,1.6,0.2l2.9,4.1c0.4,0.5,0.3,1.2-0.3,1.6l-3.9,2.8l4.4,6c0.4,0.5,0.2,1.3-0.3,1.6l-5.3,3.8
		c-0.5,0.4-1.3,0.2-1.6-0.3l-4.3-6l-14.5,10.4C160.3,226.3,159.6,226.1,159.2,225.6z M171.1,209.2l-6.6-9.2l-1.2,14.9L171.1,209.2z"
		/>
</g>
</svg>
